<?xml version="1.0" encoding="UTF-8" standalone="no"?>
<!DOCTYPE svg PUBLIC "-//W3C//DTD SVG 1.1//EN"
 "http://www.w3.org/Graphics/SVG/1.1/DTD/svg11.dtd">
<!-- Generated by graphviz version 12.2.1 (20241206.2353)
 -->
<!-- Pages: 1 -->
<svg width="2270pt" height="839pt"
 viewBox="0.00 0.00 2270.46 838.50" xmlns="http://www.w3.org/2000/svg" xmlns:xlink="http://www.w3.org/1999/xlink">
<g id="graph0" class="graph" transform="scale(1 1) rotate(0) translate(4 834.5)">
<polygon fill="white" stroke="none" points="-4,4 -4,-834.5 2266.46,-834.5 2266.46,4 -4,4"/>
<g id="clust1" class="cluster">
<title>cluster_business</title>
<polygon fill="none" stroke="black" points="8,-185 8,-822.5 395,-822.5 395,-185 8,-185"/>
<text text-anchor="middle" x="201.5" y="-805.2" font-family="Times New Roman,serif" font-size="14.00">business</text>
</g>
<g id="clust2" class="cluster">
<title>cluster_relationship</title>
<polygon fill="none" stroke="black" points="482,-8 482,-374.5 1657,-374.5 1657,-8 482,-8"/>
<text text-anchor="middle" x="1069.5" y="-357.2" font-family="Times New Roman,serif" font-size="14.00">relationship</text>
</g>
<g id="clust3" class="cluster">
<title>cluster_logging</title>
<polygon fill="none" stroke="black" points="1187,-721.5 1187,-822.5 1347,-822.5 1347,-721.5 1187,-721.5"/>
<text text-anchor="middle" x="1267" y="-805.2" font-family="Times New Roman,serif" font-size="14.00">logging</text>
</g>
<g id="clust4" class="cluster">
<title>cluster_authentication</title>
<polygon fill="none" stroke="black" points="1665,-273.5 1665,-598.5 2132,-598.5 2132,-273.5 1665,-273.5"/>
<text text-anchor="middle" x="1898.5" y="-581.2" font-family="Times New Roman,serif" font-size="14.00">authentication</text>
</g>
<!-- aditivo -->
<g id="node1" class="node">
<title>aditivo</title>
<ellipse fill="none" stroke="black" cx="53" cy="-211" rx="36.51" ry="18"/>
<text text-anchor="middle" x="53" y="-205.95" font-family="Times New Roman,serif" font-size="14.00">aditivo</text>
</g>
<!-- afms -->
<g id="node2" class="node">
<title>afms</title>
<ellipse fill="none" stroke="black" cx="232" cy="-211" rx="29.34" ry="18"/>
<text text-anchor="middle" x="232" y="-205.95" font-family="Times New Roman,serif" font-size="14.00">afms</text>
</g>
<!-- afms_item -->
<g id="node13" class="node">
<title>afms_item</title>
<ellipse fill="none" stroke="black" cx="541" cy="-211" rx="50.84" ry="18"/>
<text text-anchor="middle" x="541" y="-205.95" font-family="Times New Roman,serif" font-size="14.00">afms_item</text>
</g>
<!-- afms&#45;&gt;afms_item -->
<g id="edge4" class="edge">
<title>afms&#45;&gt;afms_item</title>
<path fill="none" stroke="black" d="M261.63,-211C311.29,-211 412.36,-211 478.35,-211"/>
<polygon fill="black" stroke="black" points="478.32,-214.5 488.32,-211 478.32,-207.5 478.32,-214.5"/>
<text text-anchor="middle" x="375.75" y="-217.2" font-family="Times New Roman,serif" font-size="14.00">FK_AFMS</text>
</g>
<!-- nota_fiscal -->
<g id="node20" class="node">
<title>nota_fiscal</title>
<ellipse fill="none" stroke="black" cx="661" cy="-211" rx="51.35" ry="18"/>
<text text-anchor="middle" x="661" y="-205.95" font-family="Times New Roman,serif" font-size="14.00">nota_fiscal</text>
</g>
<!-- afms&#45;&gt;nota_fiscal -->
<g id="edge33" class="edge">
<title>afms&#45;&gt;nota_fiscal</title>
<path fill="none" stroke="black" d="M243.5,-227.68C251.97,-238.41 264.56,-251.44 279.25,-257.46 304.55,-267.81 313.46,-258.95 340.75,-257.46 456.93,-251.12 486.97,-252.14 601,-229 604.62,-228.26 608.34,-227.41 612.07,-226.47"/>
<polygon fill="black" stroke="black" points="612.97,-229.86 621.72,-223.88 611.15,-223.1 612.97,-229.86"/>
<text text-anchor="middle" x="310" y="-250.2" font-family="Times New Roman,serif" font-size="14.00">FK_AFMS</text>
</g>
<!-- cidade -->
<g id="node3" class="node">
<title>cidade</title>
<ellipse fill="none" stroke="black" cx="73" cy="-659" rx="34.97" ry="18"/>
<text text-anchor="middle" x="73" y="-653.95" font-family="Times New Roman,serif" font-size="14.00">cidade</text>
</g>
<!-- orgao -->
<g id="node12" class="node">
<title>orgao</title>
<ellipse fill="none" stroke="black" cx="198" cy="-523.5" rx="31.9" ry="18"/>
<text text-anchor="middle" x="198" y="-518.45" font-family="Times New Roman,serif" font-size="14.00">orgao</text>
</g>
<!-- cidade&#45;&gt;orgao -->
<g id="edge39" class="edge">
<title>cidade&#45;&gt;orgao</title>
<path fill="none" stroke="black" d="M82.43,-641.47C88.76,-630.98 97.64,-617.38 107,-606.5 126.43,-583.92 151.84,-561.5 170.87,-545.82"/>
<polygon fill="black" stroke="black" points="172.91,-548.67 178.47,-539.65 168.5,-543.24 172.91,-548.67"/>
<text text-anchor="middle" x="144.5" y="-609.7" font-family="Times New Roman,serif" font-size="14.00">FK_CIDADE</text>
</g>
<!-- contrato -->
<g id="node4" class="node">
<title>contrato</title>
<ellipse fill="none" stroke="black" cx="149" cy="-299.5" rx="41.12" ry="18"/>
<text text-anchor="middle" x="149" y="-294.45" font-family="Times New Roman,serif" font-size="14.00">contrato</text>
</g>
<!-- contrato&#45;&gt;aditivo -->
<g id="edge1" class="edge">
<title>contrato&#45;&gt;aditivo</title>
<path fill="none" stroke="black" d="M108.58,-295.47C86.83,-291.53 61.72,-282.78 48,-263.5 43.18,-256.74 42.5,-248.14 43.59,-239.92"/>
<polygon fill="black" stroke="black" points="46.98,-240.78 45.74,-230.26 40.15,-239.26 46.98,-240.78"/>
<text text-anchor="middle" x="96" y="-250.2" font-family="Times New Roman,serif" font-size="14.00">FK_CONTRATO</text>
</g>
<!-- contrato&#45;&gt;afms -->
<g id="edge2" class="edge">
<title>contrato&#45;&gt;afms</title>
<path fill="none" stroke="black" d="M146.54,-281.22C145.94,-270.43 146.98,-256.78 154,-247 163.32,-234.03 178.58,-225.78 193.14,-220.57"/>
<polygon fill="black" stroke="black" points="194.09,-223.94 202.59,-217.61 192,-217.27 194.09,-223.94"/>
<text text-anchor="middle" x="202" y="-250.2" font-family="Times New Roman,serif" font-size="14.00">FK_CONTRATO</text>
</g>
<!-- contrato_item -->
<g id="node15" class="node">
<title>contrato_item</title>
<ellipse fill="none" stroke="black" cx="793" cy="-211" rx="62.61" ry="18"/>
<text text-anchor="middle" x="793" y="-205.95" font-family="Times New Roman,serif" font-size="14.00">contrato_item</text>
</g>
<!-- contrato&#45;&gt;contrato_item -->
<g id="edge17" class="edge">
<title>contrato&#45;&gt;contrato_item</title>
<path fill="none" stroke="black" d="M174.06,-284.85C183.22,-280.47 193.84,-276.09 204,-273.5 263.59,-258.32 284.18,-284.43 342,-263.5 353.83,-259.22 353.12,-251.15 365,-247 439.77,-220.85 642.58,-240.15 721,-229 726.29,-228.25 731.75,-227.29 737.2,-226.22"/>
<polygon fill="black" stroke="black" points="737.76,-229.68 746.82,-224.19 736.31,-222.83 737.76,-229.68"/>
<text text-anchor="middle" x="413" y="-250.2" font-family="Times New Roman,serif" font-size="14.00">FK_CONTRATO</text>
</g>
<!-- rescisao_contrato -->
<g id="node24" class="node">
<title>rescisao_contrato</title>
<ellipse fill="none" stroke="black" cx="565" cy="-299.5" rx="75.41" ry="18"/>
<text text-anchor="middle" x="565" y="-294.45" font-family="Times New Roman,serif" font-size="14.00">rescisao_contrato</text>
</g>
<!-- contrato&#45;&gt;rescisao_contrato -->
<g id="edge42" class="edge">
<title>contrato&#45;&gt;rescisao_contrato</title>
<path fill="none" stroke="black" d="M156.38,-317.6C164.87,-335.73 180.71,-362.6 204,-374.5 257.04,-401.59 413,-383.76 472,-375.62 502.65,-371.4 529,-346.52 545.74,-326.34"/>
<polygon fill="black" stroke="black" points="548.34,-328.69 551.8,-318.68 542.85,-324.35 548.34,-328.69"/>
<text text-anchor="middle" x="424" y="-385.7" font-family="Times New Roman,serif" font-size="14.00">FK_CONTRATO</text>
</g>
<!-- cotacao -->
<g id="node5" class="node">
<title>cotacao</title>
<ellipse fill="none" stroke="black" cx="142" cy="-747.5" rx="39.07" ry="18"/>
<text text-anchor="middle" x="142" y="-742.45" font-family="Times New Roman,serif" font-size="14.00">cotacao</text>
</g>
<!-- entrada_fornecedor -->
<g id="node17" class="node">
<title>entrada_fornecedor</title>
<ellipse fill="none" stroke="black" cx="1021" cy="-299.5" rx="82.57" ry="18"/>
<text text-anchor="middle" x="1021" y="-294.45" font-family="Times New Roman,serif" font-size="14.00">entrada_fornecedor</text>
</g>
<!-- cotacao&#45;&gt;entrada_fornecedor -->
<g id="edge21" class="edge">
<title>cotacao&#45;&gt;entrada_fornecedor</title>
<path fill="none" stroke="black" d="M164.09,-732.29C171.95,-727.98 181.08,-723.78 190,-721.5 241.9,-708.22 618.62,-715.97 672,-711.5 750.12,-704.95 1021,-738.4 1021,-660 1021,-660 1021,-660 1021,-434 1021,-397.82 1021,-356.13 1021,-329.1"/>
<polygon fill="black" stroke="black" points="1024.5,-329.29 1021,-319.29 1017.5,-329.29 1024.5,-329.29"/>
<text text-anchor="middle" x="1065.25" y="-518.45" font-family="Times New Roman,serif" font-size="14.00">FK_COTACAO</text>
</g>
<!-- item_cotacao -->
<g id="node18" class="node">
<title>item_cotacao</title>
<ellipse fill="none" stroke="black" cx="860" cy="-299.5" rx="60.56" ry="18"/>
<text text-anchor="middle" x="860" y="-294.45" font-family="Times New Roman,serif" font-size="14.00">item_cotacao</text>
</g>
<!-- cotacao&#45;&gt;item_cotacao -->
<g id="edge26" class="edge">
<title>cotacao&#45;&gt;item_cotacao</title>
<path fill="none" stroke="black" d="M164.67,-732.39C172.43,-728.2 181.35,-724.04 190,-721.5 261.51,-700.47 858,-734.54 858,-660 858,-660 858,-660 858,-434 858,-397.82 858.74,-356.13 859.32,-329.1"/>
<polygon fill="black" stroke="black" points="862.82,-329.37 859.54,-319.29 855.82,-329.21 862.82,-329.37"/>
<text text-anchor="middle" x="902.25" y="-518.45" font-family="Times New Roman,serif" font-size="14.00">FK_COTACAO</text>
</g>
<!-- estado -->
<g id="node6" class="node">
<title>estado</title>
<ellipse fill="none" stroke="black" cx="50" cy="-747.5" rx="34.46" ry="18"/>
<text text-anchor="middle" x="50" y="-742.45" font-family="Times New Roman,serif" font-size="14.00">estado</text>
</g>
<!-- estado&#45;&gt;cidade -->
<g id="edge13" class="edge">
<title>estado&#45;&gt;cidade</title>
<path fill="none" stroke="black" d="M54.54,-729.41C57.69,-717.56 61.96,-701.52 65.6,-687.84"/>
<polygon fill="black" stroke="black" points="68.89,-689.08 68.08,-678.52 62.12,-687.28 68.89,-689.08"/>
<text text-anchor="middle" x="101.81" y="-698.2" font-family="Times New Roman,serif" font-size="14.00">FK_ESTADO</text>
</g>
<!-- estado&#45;&gt;orgao -->
<g id="edge38" class="edge">
<title>estado&#45;&gt;orgao</title>
<path fill="none" stroke="black" d="M70.82,-732.86C77.93,-728.7 86.1,-724.45 94,-721.5 115.23,-713.58 126.4,-725.77 144,-711.5 191.54,-672.95 198.84,-595.35 199.04,-553.24"/>
<polygon fill="black" stroke="black" points="202.55,-553.36 198.94,-543.4 195.55,-553.43 202.55,-553.36"/>
<text text-anchor="middle" x="225.3" y="-653.95" font-family="Times New Roman,serif" font-size="14.00">FK_ESTADO</text>
</g>
<!-- fornecedor -->
<g id="node7" class="node">
<title>fornecedor</title>
<ellipse fill="none" stroke="black" cx="336" cy="-435" rx="50.84" ry="18"/>
<text text-anchor="middle" x="336" y="-429.95" font-family="Times New Roman,serif" font-size="14.00">fornecedor</text>
</g>
<!-- fornecedor&#45;&gt;contrato -->
<g id="edge14" class="edge">
<title>fornecedor&#45;&gt;contrato</title>
<path fill="none" stroke="black" d="M297.9,-422.65C269.89,-412.99 231.98,-397.07 204,-374.5 187.75,-361.39 173.78,-342.43 163.99,-326.99"/>
<polygon fill="black" stroke="black" points="167.15,-325.45 158.96,-318.73 161.17,-329.09 167.15,-325.45"/>
<text text-anchor="middle" x="297.47" y="-385.7" font-family="Times New Roman,serif" font-size="14.00">FK_FORNECEDOR</text>
</g>
<!-- fornecedor&#45;&gt;entrada_fornecedor -->
<g id="edge22" class="edge">
<title>fornecedor&#45;&gt;entrada_fornecedor</title>
<path fill="none" stroke="black" d="M386.69,-432.36C498.03,-428.45 760.97,-417.54 848,-399 868.83,-394.56 872.54,-388.43 893,-382.5 909.16,-377.82 914.83,-381.79 930,-374.5 955.4,-362.3 979.92,-341.67 997.1,-325.29"/>
<polygon fill="black" stroke="black" points="999.13,-328.2 1003.83,-318.7 994.24,-323.19 999.13,-328.2"/>
<text text-anchor="middle" x="950" y="-385.7" font-family="Times New Roman,serif" font-size="14.00">FK_FORNECEDOR</text>
</g>
<!-- fornecedor&#45;&gt;item_cotacao -->
<g id="edge27" class="edge">
<title>fornecedor&#45;&gt;item_cotacao</title>
<path fill="none" stroke="black" d="M386.82,-432.48C474.35,-429.32 649.67,-420.46 707,-399 718.78,-394.59 718.3,-387.12 730,-382.5 755.43,-372.45 766.69,-387.01 791,-374.5 812.28,-363.55 830.46,-343.29 842.8,-326.73"/>
<polygon fill="black" stroke="black" points="845.54,-328.92 848.5,-318.75 839.84,-324.86 845.54,-328.92"/>
<text text-anchor="middle" x="787" y="-385.7" font-family="Times New Roman,serif" font-size="14.00">FK_FORNECEDOR</text>
</g>
<!-- item -->
<g id="node8" class="node">
<title>item</title>
<ellipse fill="none" stroke="black" cx="239" cy="-435" rx="27.81" ry="18"/>
<text text-anchor="middle" x="239" y="-429.95" font-family="Times New Roman,serif" font-size="14.00">item</text>
</g>
<!-- item&#45;&gt;afms_item -->
<g id="edge3" class="edge">
<title>item&#45;&gt;afms_item</title>
<path fill="none" stroke="black" d="M255.45,-420.28C266.31,-409.54 277.01,-394.47 268,-382.5 260.28,-372.24 247.97,-384.76 240.25,-374.5 213.26,-338.63 219.55,-313.33 240.25,-273.5 242.61,-268.95 273.23,-248.86 278,-247 287.41,-243.33 407.51,-228.24 482.12,-219.12"/>
<polygon fill="black" stroke="black" points="482.22,-222.63 491.73,-217.94 481.38,-215.68 482.22,-222.63"/>
<text text-anchor="middle" x="269.12" y="-294.45" font-family="Times New Roman,serif" font-size="14.00">FK_ITEM</text>
</g>
<!-- item&#45;&gt;contrato_item -->
<g id="edge16" class="edge">
<title>item&#45;&gt;contrato_item</title>
<path fill="none" stroke="black" d="M258.35,-421.51C266.88,-415.4 276.61,-407.52 284,-399 323.37,-353.61 286.51,-309.98 334.25,-273.5 356.7,-256.35 434.06,-272 461,-263.5 474.78,-259.15 475.22,-251.34 489,-247 587.65,-215.95 618.81,-244.93 721,-229 726.2,-228.19 731.58,-227.2 736.95,-226.12"/>
<polygon fill="black" stroke="black" points="737.36,-229.61 746.41,-224.09 735.9,-222.76 737.36,-229.61"/>
<text text-anchor="middle" x="363.12" y="-294.45" font-family="Times New Roman,serif" font-size="14.00">FK_ITEM</text>
</g>
<!-- item&#45;&gt;item_cotacao -->
<g id="edge28" class="edge">
<title>item&#45;&gt;item_cotacao</title>
<path fill="none" stroke="black" d="M260.02,-422.68C265.12,-420.41 270.65,-418.32 276,-417 351.41,-398.46 552.53,-426.91 625,-399 635.83,-394.83 634.42,-386.69 645.25,-382.5 675.5,-370.79 761.62,-388.25 791,-374.5 812.81,-364.3 831.05,-343.8 843.29,-326.96"/>
<polygon fill="black" stroke="black" points="846.11,-329.03 848.92,-318.82 840.35,-325.05 846.11,-329.03"/>
<text text-anchor="middle" x="674.12" y="-385.7" font-family="Times New Roman,serif" font-size="14.00">FK_ITEM</text>
</g>
<!-- item_solicitacao -->
<g id="node19" class="node">
<title>item_solicitacao</title>
<ellipse fill="none" stroke="black" cx="1175" cy="-211" rx="71.82" ry="18"/>
<text text-anchor="middle" x="1175" y="-205.95" font-family="Times New Roman,serif" font-size="14.00">item_solicitacao</text>
</g>
<!-- item&#45;&gt;item_solicitacao -->
<g id="edge30" class="edge">
<title>item&#45;&gt;item_solicitacao</title>
<path fill="none" stroke="black" d="M260.79,-423.64C265.75,-421.38 271.03,-419.05 276,-417 282.35,-414.38 387.27,-379.48 392,-374.5 424.37,-340.44 386.6,-302.91 423.25,-273.5 436.25,-263.07 904.03,-230.33 1095.01,-217.37"/>
<polygon fill="black" stroke="black" points="1095.12,-220.87 1104.86,-216.7 1094.64,-213.88 1095.12,-220.87"/>
<text text-anchor="middle" x="452.12" y="-294.45" font-family="Times New Roman,serif" font-size="14.00">FK_ITEM</text>
</g>
<!-- licitacao -->
<g id="node9" class="node">
<title>licitacao</title>
<ellipse fill="none" stroke="black" cx="151" cy="-435" rx="42.14" ry="18"/>
<text text-anchor="middle" x="151" y="-429.95" font-family="Times New Roman,serif" font-size="14.00">licitacao</text>
</g>
<!-- licitacao&#45;&gt;contrato -->
<g id="edge15" class="edge">
<title>licitacao&#45;&gt;contrato</title>
<path fill="none" stroke="black" d="M117.25,-423.73C109.91,-421.51 102.2,-419.17 95,-417 68.35,-408.96 51.62,-421.34 35,-399 9.15,-364.25 64.43,-333.25 106.71,-315.68"/>
<polygon fill="black" stroke="black" points="108,-318.93 115.99,-311.96 105.4,-312.43 108,-318.93"/>
<text text-anchor="middle" x="83" y="-385.7" font-family="Times New Roman,serif" font-size="14.00">FK_LICITACAO</text>
</g>
<!-- lotacao -->
<g id="node10" class="node">
<title>lotacao</title>
<ellipse fill="none" stroke="black" cx="237" cy="-747.5" rx="37.53" ry="18"/>
<text text-anchor="middle" x="237" y="-742.45" font-family="Times New Roman,serif" font-size="14.00">lotacao</text>
</g>
<!-- aprovador_has_lotacao -->
<g id="node14" class="node">
<title>aprovador_has_lotacao</title>
<ellipse fill="none" stroke="black" cx="1218" cy="-299.5" rx="96.39" ry="18"/>
<text text-anchor="middle" x="1218" y="-294.45" font-family="Times New Roman,serif" font-size="14.00">aprovador_has_lotacao</text>
</g>
<!-- lotacao&#45;&gt;aprovador_has_lotacao -->
<g id="edge6" class="edge">
<title>lotacao&#45;&gt;aprovador_has_lotacao</title>
<path fill="none" stroke="black" d="M258.11,-732.52C265.92,-728.11 275.05,-723.79 284,-721.5 367.64,-700.07 975.95,-726.35 1061,-711.5 1130.02,-699.45 1210,-730.07 1210,-660 1210,-660 1210,-660 1210,-434 1210,-397.76 1212.97,-356.08 1215.3,-329.07"/>
<polygon fill="black" stroke="black" points="1218.77,-329.54 1216.17,-319.27 1211.8,-328.92 1218.77,-329.54"/>
<text text-anchor="middle" x="1253.88" y="-518.45" font-family="Times New Roman,serif" font-size="14.00">FK_LOTACAO</text>
</g>
<!-- user -->
<g id="node34" class="node">
<title>user</title>
<ellipse fill="none" stroke="black" cx="1700" cy="-435" rx="27" ry="18"/>
<text text-anchor="middle" x="1700" y="-429.95" font-family="Times New Roman,serif" font-size="14.00">user</text>
</g>
<!-- lotacao&#45;&gt;user -->
<g id="edge48" class="edge">
<title>lotacao&#45;&gt;user</title>
<path fill="none" stroke="black" d="M258.11,-732.51C265.91,-728.1 275.04,-723.78 284,-721.5 385.21,-695.68 1123.27,-739.12 1224,-711.5 1414.4,-659.28 1607.77,-511.68 1675.09,-456.85"/>
<polygon fill="black" stroke="black" points="1677.06,-459.76 1682.57,-450.71 1672.62,-454.35 1677.06,-459.76"/>
<text text-anchor="middle" x="1488.78" y="-609.7" font-family="Times New Roman,serif" font-size="14.00">fk_lotacao</text>
</g>
<!-- migration -->
<g id="node11" class="node">
<title>migration</title>
<ellipse fill="none" stroke="black" cx="340" cy="-747.5" rx="47.26" ry="18"/>
<text text-anchor="middle" x="340" y="-742.45" font-family="Times New Roman,serif" font-size="14.00">migration</text>
</g>
<!-- orgao&#45;&gt;fornecedor -->
<g id="edge23" class="edge">
<title>orgao&#45;&gt;fornecedor</title>
<path fill="none" stroke="black" d="M227.31,-515.95C247.12,-510.55 273.18,-501.48 293,-487.5 302.75,-480.63 311.58,-471.01 318.67,-461.94"/>
<polygon fill="black" stroke="black" points="321.37,-464.18 324.49,-454.05 315.74,-460.02 321.37,-464.18"/>
<text text-anchor="middle" x="346.62" y="-474.2" font-family="Times New Roman,serif" font-size="14.00">FK_ORGAO</text>
</g>
<!-- orgao&#45;&gt;item -->
<g id="edge24" class="edge">
<title>orgao&#45;&gt;item</title>
<path fill="none" stroke="black" d="M205.23,-505.69C209.65,-495.58 215.49,-482.48 221,-471 222.34,-468.21 223.77,-465.31 225.21,-462.43"/>
<polygon fill="black" stroke="black" points="228.27,-464.13 229.7,-453.64 222.04,-460.95 228.27,-464.13"/>
<text text-anchor="middle" x="257" y="-474.2" font-family="Times New Roman,serif" font-size="14.00">FK_ORGAO</text>
</g>
<!-- orgao&#45;&gt;licitacao -->
<g id="edge31" class="edge">
<title>orgao&#45;&gt;licitacao</title>
<path fill="none" stroke="black" d="M170.67,-513.71C158.39,-508.24 145.09,-499.84 138,-487.5 133.77,-480.13 134.27,-471.4 136.64,-463.24"/>
<polygon fill="black" stroke="black" points="139.85,-464.64 140.21,-454.05 133.32,-462.1 139.85,-464.64"/>
<text text-anchor="middle" x="174" y="-474.2" font-family="Times New Roman,serif" font-size="14.00">FK_ORGAO</text>
</g>
<!-- orgao&#45;&gt;orgao -->
<g id="edge40" class="edge">
<title>orgao&#45;&gt;orgao</title>
<path fill="none" stroke="black" d="M226.97,-531.76C238.37,-532.17 247.9,-529.42 247.9,-523.5 247.9,-519.71 243.99,-517.22 238.18,-516.02"/>
<polygon fill="black" stroke="black" points="238.7,-512.55 228.48,-515.35 238.21,-519.53 238.7,-512.55"/>
<text text-anchor="middle" x="287.65" y="-518.45" font-family="Times New Roman,serif" font-size="14.00">FK_MASTER</text>
</g>
<!-- unidade_item -->
<g id="node26" class="node">
<title>unidade_item</title>
<ellipse fill="none" stroke="black" cx="720" cy="-299.5" rx="61.59" ry="18"/>
<text text-anchor="middle" x="720" y="-294.45" font-family="Times New Roman,serif" font-size="14.00">unidade_item</text>
</g>
<!-- orgao&#45;&gt;unidade_item -->
<g id="edge45" class="edge">
<title>orgao&#45;&gt;unidade_item</title>
<path fill="none" stroke="black" d="M168.54,-516.45C108.42,-502.88 -18.96,-467.25 28,-417 48.15,-395.44 263.76,-403.03 293,-399 328.53,-394.11 336.38,-386.7 372,-382.5 402.58,-378.89 620.85,-386.98 649,-374.5 671.52,-364.51 690.44,-343.7 703.07,-326.68"/>
<polygon fill="black" stroke="black" points="705.62,-329.13 708.55,-318.95 699.91,-325.09 705.62,-329.13"/>
<text text-anchor="middle" x="64" y="-429.95" font-family="Times New Roman,serif" font-size="14.00">FK_ORGAO</text>
</g>
<!-- unidade_orgao -->
<g id="node27" class="node">
<title>unidade_orgao</title>
<ellipse fill="none" stroke="black" cx="1583" cy="-299.5" rx="65.68" ry="18"/>
<text text-anchor="middle" x="1583" y="-294.45" font-family="Times New Roman,serif" font-size="14.00">unidade_orgao</text>
</g>
<!-- orgao&#45;&gt;unidade_orgao -->
<g id="edge46" class="edge">
<title>orgao&#45;&gt;unidade_orgao</title>
<path fill="none" stroke="black" d="M228.46,-517.3C354.06,-496.1 844.33,-415.75 1251,-382.5 1279.59,-380.16 1482.68,-385.88 1509,-374.5 1532.08,-364.52 1551.83,-343.71 1565.1,-326.69"/>
<polygon fill="black" stroke="black" points="1567.72,-329.04 1570.89,-318.93 1562.11,-324.86 1567.72,-329.04"/>
<text text-anchor="middle" x="948.16" y="-429.95" font-family="Times New Roman,serif" font-size="14.00">FK_ORGAO</text>
</g>
<!-- orgao&#45;&gt;user -->
<g id="edge47" class="edge">
<title>orgao&#45;&gt;user</title>
<path fill="none" stroke="black" d="M229.94,-521.23C332.33,-517.1 661.67,-503.4 934,-487.5 1039.96,-481.31 1066.35,-478.18 1172.25,-471 1355.56,-458.57 1574.72,-444.19 1661.71,-438.5"/>
<polygon fill="black" stroke="black" points="1661.83,-442 1671.58,-437.86 1661.37,-435.02 1661.83,-442"/>
<text text-anchor="middle" x="1196.62" y="-474.2" font-family="Times New Roman,serif" font-size="14.00">fk_orgao</text>
</g>
<!-- nota_fiscal_item -->
<g id="node22" class="node">
<title>nota_fiscal_item</title>
<ellipse fill="none" stroke="black" cx="652" cy="-122.5" rx="72.85" ry="18"/>
<text text-anchor="middle" x="652" y="-117.45" font-family="Times New Roman,serif" font-size="14.00">nota_fiscal_item</text>
</g>
<!-- afms_item&#45;&gt;nota_fiscal_item -->
<g id="edge36" class="edge">
<title>afms_item&#45;&gt;nota_fiscal_item</title>
<path fill="none" stroke="black" d="M539.8,-192.85C539.95,-181.84 541.99,-167.89 550,-158.5 558.23,-148.86 569.23,-141.88 580.97,-136.81"/>
<polygon fill="black" stroke="black" points="581.91,-140.2 590.01,-133.37 579.42,-133.66 581.91,-140.2"/>
<text text-anchor="middle" x="601" y="-161.7" font-family="Times New Roman,serif" font-size="14.00">FK_AFMS_ITEM</text>
</g>
<!-- distribuicao_item -->
<g id="node16" class="node">
<title>distribuicao_item</title>
<ellipse fill="none" stroke="black" cx="830" cy="-122.5" rx="75.92" ry="18"/>
<text text-anchor="middle" x="830" y="-117.45" font-family="Times New Roman,serif" font-size="14.00">distribuicao_item</text>
</g>
<!-- contrato_item&#45;&gt;distribuicao_item -->
<g id="edge20" class="edge">
<title>contrato_item&#45;&gt;distribuicao_item</title>
<path fill="none" stroke="black" d="M800.31,-192.91C805.4,-181.02 812.29,-164.91 818.15,-151.2"/>
<polygon fill="black" stroke="black" points="821.27,-152.81 821.98,-142.24 814.83,-150.06 821.27,-152.81"/>
<text text-anchor="middle" x="899.94" y="-161.7" font-family="Times New Roman,serif" font-size="14.00">FK_CONTRATO_HAS_ITEM</text>
</g>
<!-- nota_fiscal_distribuicao_item -->
<g id="node21" class="node">
<title>nota_fiscal_distribuicao_item</title>
<ellipse fill="none" stroke="black" cx="741" cy="-34" rx="120.96" ry="18"/>
<text text-anchor="middle" x="741" y="-28.95" font-family="Times New Roman,serif" font-size="14.00">nota_fiscal_distribuicao_item</text>
</g>
<!-- distribuicao_item&#45;&gt;nota_fiscal_distribuicao_item -->
<g id="edge35" class="edge">
<title>distribuicao_item&#45;&gt;nota_fiscal_distribuicao_item</title>
<path fill="none" stroke="black" d="M825.8,-104.07C822.46,-93.23 816.85,-79.56 808,-70 803.55,-65.19 798.28,-60.92 792.68,-57.17"/>
<polygon fill="black" stroke="black" points="794.71,-54.3 784.34,-52.12 791.09,-60.29 794.71,-54.3"/>
<text text-anchor="middle" x="898.78" y="-73.2" font-family="Times New Roman,serif" font-size="14.00">FK_DISTRIBUICAO_ITEM</text>
</g>
<!-- nota_fiscal&#45;&gt;nota_fiscal_item -->
<g id="edge37" class="edge">
<title>nota_fiscal&#45;&gt;nota_fiscal_item</title>
<path fill="none" stroke="black" d="M659.22,-192.91C658.01,-181.26 656.37,-165.55 654.97,-152.02"/>
<polygon fill="black" stroke="black" points="658.48,-151.94 653.96,-142.36 651.52,-152.66 658.48,-151.94"/>
<text text-anchor="middle" x="714.31" y="-161.7" font-family="Times New Roman,serif" font-size="14.00">FK_NOTA_FISCAL</text>
</g>
<!-- nota_fiscal_item&#45;&gt;nota_fiscal_distribuicao_item -->
<g id="edge34" class="edge">
<title>nota_fiscal_item&#45;&gt;nota_fiscal_distribuicao_item</title>
<path fill="none" stroke="black" d="M648.02,-104.25C646.55,-93.48 646.64,-79.83 653.5,-70 657.56,-64.19 662.75,-59.34 668.57,-55.3"/>
<polygon fill="black" stroke="black" points="670.06,-58.49 676.87,-50.37 666.48,-52.47 670.06,-58.49"/>
<text text-anchor="middle" x="730.75" y="-73.2" font-family="Times New Roman,serif" font-size="14.00">FK_NOTA_FISCAL_ITEM</text>
</g>
<!-- projeto_lotacao -->
<g id="node23" class="node">
<title>projeto_lotacao</title>
<ellipse fill="none" stroke="black" cx="1448" cy="-211" rx="68.24" ry="18"/>
<text text-anchor="middle" x="1448" y="-205.95" font-family="Times New Roman,serif" font-size="14.00">projeto_lotacao</text>
</g>
<!-- projeto_lotacao&#45;&gt;distribuicao_item -->
<g id="edge19" class="edge">
<title>projeto_lotacao&#45;&gt;distribuicao_item</title>
<path fill="none" stroke="black" d="M1388.74,-201.71C1275.81,-185.9 1029.92,-151.48 905.44,-134.06"/>
<polygon fill="black" stroke="black" points="906.03,-130.61 895.64,-132.69 905.06,-137.54 906.03,-130.61"/>
<text text-anchor="middle" x="1270.48" y="-161.7" font-family="Times New Roman,serif" font-size="14.00">FK_PROJETO_LOTACAO</text>
</g>
<!-- solicitacao_despesa -->
<g id="node25" class="node">
<title>solicitacao_despesa</title>
<ellipse fill="none" stroke="black" cx="1416" cy="-299.5" rx="83.6" ry="18"/>
<text text-anchor="middle" x="1416" y="-294.45" font-family="Times New Roman,serif" font-size="14.00">solicitacao_despesa</text>
</g>
<!-- solicitacao_despesa&#45;&gt;item_solicitacao -->
<g id="edge29" class="edge">
<title>solicitacao_despesa&#45;&gt;item_solicitacao</title>
<path fill="none" stroke="black" d="M1374.3,-283.53C1333.06,-268.73 1269.91,-246.07 1225.78,-230.23"/>
<polygon fill="black" stroke="black" points="1227.01,-226.95 1216.42,-226.87 1224.65,-233.54 1227.01,-226.95"/>
<text text-anchor="middle" x="1373.71" y="-250.2" font-family="Times New Roman,serif" font-size="14.00">FK_SOLICITACAO</text>
</g>
<!-- unidade_item&#45;&gt;item -->
<g id="edge25" class="edge">
<title>unidade_item&#45;&gt;item</title>
<path fill="none" stroke="black" d="M709.37,-317.59C697.22,-335.39 675.54,-362.34 649,-374.5 618.65,-388.41 530.6,-371.75 499,-382.5 486.74,-386.67 487.18,-394.61 475,-399 391.46,-429.14 361.81,-394.13 276,-417 274.25,-417.47 272.48,-418.01 270.72,-418.61"/>
<polygon fill="black" stroke="black" points="269.47,-415.34 261.47,-422.27 272.05,-421.84 269.47,-415.34"/>
<text text-anchor="middle" x="562" y="-385.7" font-family="Times New Roman,serif" font-size="14.00">FK_UNIDADE_ITEM</text>
</g>
<!-- unidade_orgao&#45;&gt;lotacao -->
<g id="edge32" class="edge">
<title>unidade_orgao&#45;&gt;lotacao</title>
<path fill="none" stroke="black" d="M1590.86,-317.86C1602.46,-341.13 1626.57,-381.53 1661,-399 1708.1,-422.89 2099.37,-378.95 2136,-417 2191.95,-475.11 2189.26,-537.91 2136,-598.5 2006.7,-745.59 1457.37,-697.92 1262,-711.5 1207.79,-715.27 336.65,-708.08 284,-721.5 278.68,-722.86 273.3,-724.93 268.18,-727.31"/>
<polygon fill="black" stroke="black" points="266.74,-724.11 259.46,-731.81 269.95,-730.33 266.74,-724.11"/>
<text text-anchor="middle" x="2219.71" y="-518.45" font-family="Times New Roman,serif" font-size="14.00">FK_UNIDADE</text>
</g>
<!-- unidade_orgao&#45;&gt;projeto_lotacao -->
<g id="edge41" class="edge">
<title>unidade_orgao&#45;&gt;projeto_lotacao</title>
<path fill="none" stroke="black" d="M1557.92,-282.43C1536.71,-268.84 1506.09,-249.22 1482.55,-234.14"/>
<polygon fill="black" stroke="black" points="1484.52,-231.25 1474.22,-228.8 1480.75,-237.14 1484.52,-231.25"/>
<text text-anchor="middle" x="1570.34" y="-250.2" font-family="Times New Roman,serif" font-size="14.00">FK_UNIDADE</text>
</g>
<!-- audit_trail_entry -->
<g id="node28" class="node">
<title>audit_trail_entry</title>
<ellipse fill="none" stroke="black" cx="1267" cy="-747.5" rx="72.34" ry="18"/>
<text text-anchor="middle" x="1267" y="-742.45" font-family="Times New Roman,serif" font-size="14.00">audit_trail_entry</text>
</g>
<!-- auth_assignment -->
<g id="node29" class="node">
<title>auth_assignment</title>
<ellipse fill="none" stroke="black" cx="1890" cy="-299.5" rx="73.36" ry="18"/>
<text text-anchor="middle" x="1890" y="-294.45" font-family="Times New Roman,serif" font-size="14.00">auth_assignment</text>
</g>
<!-- auth_item -->
<g id="node30" class="node">
<title>auth_item</title>
<ellipse fill="none" stroke="black" cx="2003" cy="-435" rx="48.28" ry="18"/>
<text text-anchor="middle" x="2003" y="-429.95" font-family="Times New Roman,serif" font-size="14.00">auth_item</text>
</g>
<!-- auth_item&#45;&gt;auth_assignment -->
<g id="edge7" class="edge">
<title>auth_item&#45;&gt;auth_assignment</title>
<path fill="none" stroke="black" d="M1967.93,-422.38C1955.49,-416.88 1942.18,-409.21 1932.5,-399 1913.91,-379.38 1902.73,-350.35 1896.55,-328.89"/>
<polygon fill="black" stroke="black" points="1899.95,-328.07 1894,-319.31 1893.19,-329.87 1899.95,-328.07"/>
<text text-anchor="middle" x="1963.25" y="-385.7" font-family="Times New Roman,serif" font-size="14.00">item_name</text>
</g>
<!-- auth_item_child -->
<g id="node31" class="node">
<title>auth_item_child</title>
<ellipse fill="none" stroke="black" cx="2053" cy="-299.5" rx="71.31" ry="18"/>
<text text-anchor="middle" x="2053" y="-294.45" font-family="Times New Roman,serif" font-size="14.00">auth_item_child</text>
</g>
<!-- auth_item&#45;&gt;auth_item_child -->
<g id="edge11" class="edge">
<title>auth_item&#45;&gt;auth_item_child</title>
<path fill="none" stroke="black" d="M2018.65,-417.61C2023.22,-412.07 2027.84,-405.6 2031,-399 2041.66,-376.79 2047.24,-349.26 2050.11,-328.95"/>
<polygon fill="black" stroke="black" points="2053.57,-329.51 2051.35,-319.15 2046.63,-328.63 2053.57,-329.51"/>
<text text-anchor="middle" x="2054.16" y="-385.7" font-family="Times New Roman,serif" font-size="14.00">parent</text>
</g>
<!-- auth_item&#45;&gt;auth_item_child -->
<g id="edge12" class="edge">
<title>auth_item&#45;&gt;auth_item_child</title>
<path fill="none" stroke="black" d="M1999.14,-416.97C1997.53,-406.77 1996.71,-393.67 2000,-382.5 2006.08,-361.9 2019.12,-341.61 2030.75,-326.36"/>
<polygon fill="black" stroke="black" points="2033.31,-328.76 2036.79,-318.75 2027.83,-324.4 2033.31,-328.76"/>
<text text-anchor="middle" x="2013.5" y="-385.7" font-family="Times New Roman,serif" font-size="14.00">child</text>
</g>
<!-- auth_item_group -->
<g id="node32" class="node">
<title>auth_item_group</title>
<ellipse fill="none" stroke="black" cx="1901" cy="-523.5" rx="74.38" ry="18"/>
<text text-anchor="middle" x="1901" y="-518.45" font-family="Times New Roman,serif" font-size="14.00">auth_item_group</text>
</g>
<!-- auth_item_group&#45;&gt;auth_item -->
<g id="edge10" class="edge">
<title>auth_item_group&#45;&gt;auth_item</title>
<path fill="none" stroke="black" d="M1915.23,-505.81C1924.64,-495.25 1937.54,-481.64 1950.25,-471 1956.08,-466.12 1962.62,-461.32 1969.05,-456.91"/>
<polygon fill="black" stroke="black" points="1970.64,-460.06 1977.04,-451.61 1966.77,-454.22 1970.64,-460.06"/>
<text text-anchor="middle" x="1982.12" y="-474.2" font-family="Times New Roman,serif" font-size="14.00">group_code</text>
</g>
<!-- auth_rule -->
<g id="node33" class="node">
<title>auth_rule</title>
<ellipse fill="none" stroke="black" cx="2039" cy="-523.5" rx="45.72" ry="18"/>
<text text-anchor="middle" x="2039" y="-518.45" font-family="Times New Roman,serif" font-size="14.00">auth_rule</text>
</g>
<!-- auth_rule&#45;&gt;auth_item -->
<g id="edge9" class="edge">
<title>auth_rule&#45;&gt;auth_item</title>
<path fill="none" stroke="black" d="M2031.89,-505.41C2026.91,-493.44 2020.15,-477.2 2014.42,-463.43"/>
<polygon fill="black" stroke="black" points="2017.75,-462.34 2010.68,-454.45 2011.29,-465.03 2017.75,-462.34"/>
<text text-anchor="middle" x="2053.1" y="-474.2" font-family="Times New Roman,serif" font-size="14.00">rule_name</text>
</g>
<!-- user&#45;&gt;cotacao -->
<g id="edge18" class="edge">
<title>user&#45;&gt;cotacao</title>
<path fill="none" stroke="black" d="M1672.84,-436.94C1579.28,-440.59 1271.52,-456.18 1188,-505.5 1089.8,-563.49 1136.58,-659.66 1035,-711.5 993.18,-732.84 235.53,-710.07 190,-721.5 184.7,-722.83 179.33,-724.85 174.19,-727.17"/>
<polygon fill="black" stroke="black" points="172.8,-723.96 165.43,-731.57 175.94,-730.21 172.8,-723.96"/>
<text text-anchor="middle" x="1155.99" y="-609.7" font-family="Times New Roman,serif" font-size="14.00">FK_USUARIO</text>
</g>
<!-- user&#45;&gt;aprovador_has_lotacao -->
<g id="edge5" class="edge">
<title>user&#45;&gt;aprovador_has_lotacao</title>
<path fill="none" stroke="black" d="M1672.65,-433.23C1583.81,-430.54 1307.05,-420.49 1273.5,-399 1248.62,-383.06 1233.8,-351.8 1225.83,-328.75"/>
<polygon fill="black" stroke="black" points="1229.19,-327.79 1222.81,-319.33 1222.52,-329.92 1229.19,-327.79"/>
<text text-anchor="middle" x="1326.75" y="-385.7" font-family="Times New Roman,serif" font-size="14.00">FK_APROVADOR</text>
</g>
<!-- user&#45;&gt;solicitacao_despesa -->
<g id="edge43" class="edge">
<title>user&#45;&gt;solicitacao_despesa</title>
<path fill="none" stroke="black" d="M1672.77,-432.94C1600.94,-429.86 1410.57,-419.8 1392,-399 1374.49,-379.39 1385.58,-349.14 1397.86,-327.33"/>
<polygon fill="black" stroke="black" points="1400.73,-329.35 1402.89,-318.98 1394.73,-325.74 1400.73,-329.35"/>
<text text-anchor="middle" x="1447.5" y="-385.7" font-family="Times New Roman,serif" font-size="14.00">FK_SOLICITANTE</text>
</g>
<!-- user&#45;&gt;solicitacao_despesa -->
<g id="edge44" class="edge">
<title>user&#45;&gt;solicitacao_despesa</title>
<path fill="none" stroke="black" d="M1672.72,-432.89C1637.29,-430.48 1574.32,-422.91 1526.5,-399 1516.77,-394.14 1471.59,-352.63 1442.1,-325.07"/>
<polygon fill="black" stroke="black" points="1444.67,-322.68 1434.97,-318.4 1439.88,-327.79 1444.67,-322.68"/>
<text text-anchor="middle" x="1579.75" y="-385.7" font-family="Times New Roman,serif" font-size="14.00">FK_APROVADOR</text>
</g>
<!-- user&#45;&gt;auth_assignment -->
<g id="edge8" class="edge">
<title>user&#45;&gt;auth_assignment</title>
<path fill="none" stroke="black" d="M1721.56,-423.96C1744.01,-413.1 1779.75,-394.62 1808,-374.5 1828.69,-359.76 1849.93,-340.46 1865.6,-325.27"/>
<polygon fill="black" stroke="black" points="1867.94,-327.87 1872.62,-318.37 1863.03,-322.88 1867.94,-327.87"/>
<text text-anchor="middle" x="1814" y="-385.7" font-family="Times New Roman,serif" font-size="14.00">user_id</text>
</g>
<!-- user_visit_log -->
<g id="node35" class="node">
<title>user_visit_log</title>
<ellipse fill="none" stroke="black" cx="1736" cy="-299.5" rx="63.12" ry="18"/>
<text text-anchor="middle" x="1736" y="-294.45" font-family="Times New Roman,serif" font-size="14.00">user_visit_log</text>
</g>
<!-- user&#45;&gt;user_visit_log -->
<g id="edge49" class="edge">
<title>user&#45;&gt;user_visit_log</title>
<path fill="none" stroke="black" d="M1704.63,-416.82C1710.65,-394.49 1721.25,-355.21 1728.44,-328.53"/>
<polygon fill="black" stroke="black" points="1731.77,-329.64 1730.99,-319.07 1725.01,-327.82 1731.77,-329.64"/>
<text text-anchor="middle" x="1733.59" y="-385.7" font-family="Times New Roman,serif" font-size="14.00">user_id</text>
</g>
</g>
</svg>
