<?xml version="1.0" encoding="UTF-8" standalone="no"?>
<!DOCTYPE svg PUBLIC "-//W3C//DTD SVG 1.1//EN"
 "http://www.w3.org/Graphics/SVG/1.1/DTD/svg11.dtd">
<!-- Generated by graphviz version 12.2.1 (20241206.2353)
 -->
<!-- Pages: 1 -->
<svg width="1027pt" height="506pt"
 viewBox="0.00 0.00 1026.88 505.50" xmlns="http://www.w3.org/2000/svg" xmlns:xlink="http://www.w3.org/1999/xlink">
<g id="graph0" class="graph" transform="scale(1 1) rotate(0) translate(4 501.5)">
<polygon fill="white" stroke="none" points="-4,4 -4,-501.5 1022.88,-501.5 1022.88,4 -4,4"/>
<!-- audit_trail_entry -->
<g id="node1" class="node">
<title>audit_trail_entry</title>
<polygon fill="none" stroke="black" points="746.25,-497.5 640.25,-497.5 640.25,-440 746.25,-440 746.25,-497.5"/>
<text text-anchor="middle" x="693.25" y="-480.2" font-family="Times New Roman,serif" font-size="14.00">audit_trail_entry</text>
<text text-anchor="middle" x="693.25" y="-463.7" font-family="Times New Roman,serif" font-size="14.00">313.091 rows</text>
<text text-anchor="middle" x="693.25" y="-447.2" font-family="Times New Roman,serif" font-size="14.00">89.66 MB</text>
</g>
<!-- auth_assignment -->
<g id="node2" class="node">
<title>auth_assignment</title>
<polygon fill="none" stroke="black" points="236,-57.5 128.5,-57.5 128.5,0 236,0 236,-57.5"/>
<text text-anchor="middle" x="182.25" y="-40.2" font-family="Times New Roman,serif" font-size="14.00">auth_assignment</text>
<text text-anchor="middle" x="182.25" y="-23.7" font-family="Times New Roman,serif" font-size="14.00">79 rows</text>
<text text-anchor="middle" x="182.25" y="-7.2" font-family="Times New Roman,serif" font-size="14.00">0.03 MB</text>
</g>
<!-- auth_item -->
<g id="node3" class="node">
<title>auth_item</title>
<polygon fill="none" stroke="black" points="140.62,-167.5 69.88,-167.5 69.88,-110 140.62,-110 140.62,-167.5"/>
<text text-anchor="middle" x="105.25" y="-150.2" font-family="Times New Roman,serif" font-size="14.00">auth_item</text>
<text text-anchor="middle" x="105.25" y="-133.7" font-family="Times New Roman,serif" font-size="14.00">190 rows</text>
<text text-anchor="middle" x="105.25" y="-117.2" font-family="Times New Roman,serif" font-size="14.00">0.06 MB</text>
</g>
<!-- auth_item&#45;&gt;auth_assignment -->
<g id="edge1" class="edge">
<title>auth_item&#45;&gt;auth_assignment</title>
<path fill="none" stroke="black" d="M125.28,-109.66C134.55,-96.66 145.69,-81.03 155.65,-67.06"/>
<polygon fill="black" stroke="black" points="158.49,-69.11 161.44,-58.94 152.79,-65.05 158.49,-69.11"/>
<text text-anchor="middle" x="179.11" y="-78.7" font-family="Times New Roman,serif" font-size="14.00">item_name</text>
</g>
<!-- auth_item_child -->
<g id="node4" class="node">
<title>auth_item_child</title>
<polygon fill="none" stroke="black" points="104.5,-57.5 0,-57.5 0,0 104.5,0 104.5,-57.5"/>
<text text-anchor="middle" x="52.25" y="-40.2" font-family="Times New Roman,serif" font-size="14.00">auth_item_child</text>
<text text-anchor="middle" x="52.25" y="-23.7" font-family="Times New Roman,serif" font-size="14.00">20 rows</text>
<text text-anchor="middle" x="52.25" y="-7.2" font-family="Times New Roman,serif" font-size="14.00">0.03 MB</text>
</g>
<!-- auth_item&#45;&gt;auth_item_child -->
<g id="edge5" class="edge">
<title>auth_item&#45;&gt;auth_item_child</title>
<path fill="none" stroke="black" d="M69.66,-116.42C61.55,-109.7 54,-101.51 49.5,-92 46.17,-84.97 44.93,-76.98 44.87,-69.12"/>
<polygon fill="black" stroke="black" points="48.35,-69.53 45.42,-59.34 41.36,-69.13 48.35,-69.53"/>
<text text-anchor="middle" x="66.38" y="-78.7" font-family="Times New Roman,serif" font-size="14.00">parent</text>
</g>
<!-- auth_item&#45;&gt;auth_item_child -->
<g id="edge6" class="edge">
<title>auth_item&#45;&gt;auth_item_child</title>
<path fill="none" stroke="black" d="M96.98,-109.54C93.35,-98.65 88.68,-86.24 83.25,-75.5 81.88,-72.78 80.37,-70.04 78.78,-67.31"/>
<polygon fill="black" stroke="black" points="81.81,-65.56 73.57,-58.9 75.86,-69.24 81.81,-65.56"/>
<text text-anchor="middle" x="103.43" y="-78.7" font-family="Times New Roman,serif" font-size="14.00">child</text>
</g>
<!-- auth_item_group -->
<g id="node5" class="node">
<title>auth_item_group</title>
<polygon fill="none" stroke="black" points="212.75,-277.5 103.75,-277.5 103.75,-220 212.75,-220 212.75,-277.5"/>
<text text-anchor="middle" x="158.25" y="-260.2" font-family="Times New Roman,serif" font-size="14.00">auth_item_group</text>
<text text-anchor="middle" x="158.25" y="-243.7" font-family="Times New Roman,serif" font-size="14.00">2 rows</text>
<text text-anchor="middle" x="158.25" y="-227.2" font-family="Times New Roman,serif" font-size="14.00">0.02 MB</text>
</g>
<!-- auth_item_group&#45;&gt;auth_item -->
<g id="edge4" class="edge">
<title>auth_item_group&#45;&gt;auth_item</title>
<path fill="none" stroke="black" d="M149.98,-219.54C146.35,-208.65 141.68,-196.24 136.25,-185.5 134.88,-182.78 133.37,-180.04 131.78,-177.31"/>
<polygon fill="black" stroke="black" points="134.81,-175.56 126.57,-168.9 128.86,-179.24 134.81,-175.56"/>
<text text-anchor="middle" x="174.81" y="-188.7" font-family="Times New Roman,serif" font-size="14.00">group_code</text>
</g>
<!-- auth_rule -->
<g id="node6" class="node">
<title>auth_rule</title>
<polygon fill="none" stroke="black" points="85.75,-277.5 18.75,-277.5 18.75,-220 85.75,-220 85.75,-277.5"/>
<text text-anchor="middle" x="52.25" y="-260.2" font-family="Times New Roman,serif" font-size="14.00">auth_rule</text>
<text text-anchor="middle" x="52.25" y="-243.7" font-family="Times New Roman,serif" font-size="14.00">0 rows</text>
<text text-anchor="middle" x="52.25" y="-227.2" font-family="Times New Roman,serif" font-size="14.00">0.02 MB</text>
</g>
<!-- auth_rule&#45;&gt;auth_item -->
<g id="edge3" class="edge">
<title>auth_rule&#45;&gt;auth_item</title>
<path fill="none" stroke="black" d="M63.25,-219.51C67.68,-208.73 73.04,-196.41 78.5,-185.5 79.76,-182.98 81.1,-180.41 82.49,-177.83"/>
<polygon fill="black" stroke="black" points="85.43,-179.75 87.24,-169.31 79.31,-176.34 85.43,-179.75"/>
<text text-anchor="middle" x="107.38" y="-188.7" font-family="Times New Roman,serif" font-size="14.00">rule_name</text>
</g>
<!-- cidade -->
<g id="node7" class="node">
<title>cidade</title>
<polygon fill="none" stroke="black" points="835.62,-387.5 758.88,-387.5 758.88,-330 835.62,-330 835.62,-387.5"/>
<text text-anchor="middle" x="797.25" y="-370.2" font-family="Times New Roman,serif" font-size="14.00">cidade</text>
<text text-anchor="middle" x="797.25" y="-353.7" font-family="Times New Roman,serif" font-size="14.00">5.571 rows</text>
<text text-anchor="middle" x="797.25" y="-337.2" font-family="Times New Roman,serif" font-size="14.00">0.41 MB</text>
</g>
<!-- entidade -->
<g id="node14" class="node">
<title>entidade</title>
<polygon fill="none" stroke="black" points="830,-277.5 764.5,-277.5 764.5,-220 830,-220 830,-277.5"/>
<text text-anchor="middle" x="797.25" y="-260.2" font-family="Times New Roman,serif" font-size="14.00">entidade</text>
<text text-anchor="middle" x="797.25" y="-243.7" font-family="Times New Roman,serif" font-size="14.00">36 rows</text>
<text text-anchor="middle" x="797.25" y="-227.2" font-family="Times New Roman,serif" font-size="14.00">0.05 MB</text>
</g>
<!-- cidade&#45;&gt;entidade -->
<g id="edge15" class="edge">
<title>cidade&#45;&gt;entidade</title>
<path fill="none" stroke="black" d="M797.25,-329.66C797.25,-317.28 797.25,-302.53 797.25,-289.09"/>
<polygon fill="black" stroke="black" points="800.75,-289.22 797.25,-279.22 793.75,-289.22 800.75,-289.22"/>
<text text-anchor="middle" x="823.88" y="-298.7" font-family="Times New Roman,serif" font-size="14.00">fk_cidade</text>
</g>
<!-- cnd -->
<g id="node8" class="node">
<title>cnd</title>
<polygon fill="none" stroke="black" points="937,-57.5 853.5,-57.5 853.5,0 937,0 937,-57.5"/>
<text text-anchor="middle" x="895.25" y="-40.2" font-family="Times New Roman,serif" font-size="14.00">cnd</text>
<text text-anchor="middle" x="895.25" y="-23.7" font-family="Times New Roman,serif" font-size="14.00">63.169 rows</text>
<text text-anchor="middle" x="895.25" y="-7.2" font-family="Times New Roman,serif" font-size="14.00">5.03 MB</text>
</g>
<!-- contribuinte -->
<g id="node9" class="node">
<title>contribuinte</title>
<polygon fill="none" stroke="black" points="842.38,-167.5 752.12,-167.5 752.12,-110 842.38,-110 842.38,-167.5"/>
<text text-anchor="middle" x="797.25" y="-150.2" font-family="Times New Roman,serif" font-size="14.00">contribuinte</text>
<text text-anchor="middle" x="797.25" y="-133.7" font-family="Times New Roman,serif" font-size="14.00">196.520 rows</text>
<text text-anchor="middle" x="797.25" y="-117.2" font-family="Times New Roman,serif" font-size="14.00">32.08 MB</text>
</g>
<!-- contribuinte&#45;&gt;cnd -->
<g id="edge8" class="edge">
<title>contribuinte&#45;&gt;cnd</title>
<path fill="none" stroke="black" d="M842.51,-113.9C855.97,-106.09 868.43,-97.91 873.25,-92 878.79,-85.21 882.99,-76.92 886.14,-68.63"/>
<polygon fill="black" stroke="black" points="889.41,-69.89 889.24,-59.3 882.77,-67.69 889.41,-69.89"/>
<text text-anchor="middle" x="924.29" y="-78.7" font-family="Times New Roman,serif" font-size="14.00">fk_contribuinte</text>
</g>
<!-- dam -->
<g id="node12" class="node">
<title>dam</title>
<polygon fill="none" stroke="black" points="623.38,-57.5 533.12,-57.5 533.12,0 623.38,0 623.38,-57.5"/>
<text text-anchor="middle" x="578.25" y="-40.2" font-family="Times New Roman,serif" font-size="14.00">dam</text>
<text text-anchor="middle" x="578.25" y="-23.7" font-family="Times New Roman,serif" font-size="14.00">125.910 rows</text>
<text text-anchor="middle" x="578.25" y="-7.2" font-family="Times New Roman,serif" font-size="14.00">39.03 MB</text>
</g>
<!-- contribuinte&#45;&gt;dam -->
<g id="edge11" class="edge">
<title>contribuinte&#45;&gt;dam</title>
<path fill="none" stroke="black" d="M785.57,-109.76C779.17,-97.58 770.1,-84.14 758.25,-75.5 722.36,-49.33 672.98,-38.08 635.01,-33.27"/>
<polygon fill="black" stroke="black" points="635.46,-29.8 625.13,-32.14 634.67,-36.75 635.46,-29.8"/>
<text text-anchor="middle" x="815.3" y="-78.7" font-family="Times New Roman,serif" font-size="14.00">fk_contribuinte</text>
</g>
<!-- dados_iptu -->
<g id="node10" class="node">
<title>dados_iptu</title>
<polygon fill="none" stroke="black" points="734.38,-167.5 644.12,-167.5 644.12,-110 734.38,-110 734.38,-167.5"/>
<text text-anchor="middle" x="689.25" y="-150.2" font-family="Times New Roman,serif" font-size="14.00">dados_iptu</text>
<text text-anchor="middle" x="689.25" y="-133.7" font-family="Times New Roman,serif" font-size="14.00">107.220 rows</text>
<text text-anchor="middle" x="689.25" y="-117.2" font-family="Times New Roman,serif" font-size="14.00">29.52 MB</text>
</g>
<!-- dados_iptu&#45;&gt;dam -->
<g id="edge14" class="edge">
<title>dados_iptu&#45;&gt;dam</title>
<path fill="none" stroke="black" d="M684.13,-109.68C680.87,-98.06 675.62,-85.08 667.25,-75.5 658.05,-64.97 645.84,-56.54 633.42,-49.93"/>
<polygon fill="black" stroke="black" points="635.34,-46.97 624.82,-45.68 632.24,-53.25 635.34,-46.97"/>
<text text-anchor="middle" x="715.57" y="-78.7" font-family="Times New Roman,serif" font-size="14.00">fk_dados_iptu</text>
</g>
<!-- dados_tlf -->
<g id="node11" class="node">
<title>dados_tlf</title>
<polygon fill="none" stroke="black" points="423,-167.5 339.5,-167.5 339.5,-110 423,-110 423,-167.5"/>
<text text-anchor="middle" x="381.25" y="-150.2" font-family="Times New Roman,serif" font-size="14.00">dados_tlf</text>
<text text-anchor="middle" x="381.25" y="-133.7" font-family="Times New Roman,serif" font-size="14.00">21.725 rows</text>
<text text-anchor="middle" x="381.25" y="-117.2" font-family="Times New Roman,serif" font-size="14.00">4.33 MB</text>
</g>
<!-- dados_tlf&#45;&gt;dam -->
<g id="edge13" class="edge">
<title>dados_tlf&#45;&gt;dam</title>
<path fill="none" stroke="black" d="M400.68,-109.53C410.14,-97.59 422.4,-84.42 436,-75.5 461.84,-58.56 494.42,-47.48 521.88,-40.48"/>
<polygon fill="black" stroke="black" points="522.54,-43.92 531.44,-38.16 520.9,-37.11 522.54,-43.92"/>
<text text-anchor="middle" x="470.12" y="-78.7" font-family="Times New Roman,serif" font-size="14.00">fk_dados_tlf</text>
</g>
<!-- dam_log -->
<g id="node13" class="node">
<title>dam_log</title>
<polygon fill="none" stroke="black" points="932,-497.5 848.5,-497.5 848.5,-440 932,-440 932,-497.5"/>
<text text-anchor="middle" x="890.25" y="-480.2" font-family="Times New Roman,serif" font-size="14.00">dam_log</text>
<text text-anchor="middle" x="890.25" y="-463.7" font-family="Times New Roman,serif" font-size="14.00">11.080 rows</text>
<text text-anchor="middle" x="890.25" y="-447.2" font-family="Times New Roman,serif" font-size="14.00">5.06 MB</text>
</g>
<!-- entidade&#45;&gt;contribuinte -->
<g id="edge9" class="edge">
<title>entidade&#45;&gt;contribuinte</title>
<path fill="none" stroke="black" d="M797.25,-219.66C797.25,-207.28 797.25,-192.53 797.25,-179.09"/>
<polygon fill="black" stroke="black" points="800.75,-179.22 797.25,-169.22 793.75,-179.22 800.75,-179.22"/>
<text text-anchor="middle" x="829.12" y="-188.7" font-family="Times New Roman,serif" font-size="14.00">fk_entidade</text>
</g>
<!-- requests -->
<g id="node18" class="node">
<title>requests</title>
<polygon fill="none" stroke="black" points="944,-167.5 860.5,-167.5 860.5,-110 944,-110 944,-167.5"/>
<text text-anchor="middle" x="902.25" y="-150.2" font-family="Times New Roman,serif" font-size="14.00">requests</text>
<text text-anchor="middle" x="902.25" y="-133.7" font-family="Times New Roman,serif" font-size="14.00">33.091 rows</text>
<text text-anchor="middle" x="902.25" y="-117.2" font-family="Times New Roman,serif" font-size="14.00">85.08 MB</text>
</g>
<!-- entidade&#45;&gt;requests -->
<g id="edge16" class="edge">
<title>entidade&#45;&gt;requests</title>
<path fill="none" stroke="black" d="M830.29,-229.67C842.21,-222.13 855.18,-212.65 865.25,-202 872.02,-194.84 878.11,-186.24 883.3,-177.74"/>
<polygon fill="black" stroke="black" points="886.25,-179.63 888.22,-169.22 880.19,-176.13 886.25,-179.63"/>
<text text-anchor="middle" x="909.46" y="-188.7" font-family="Times New Roman,serif" font-size="14.00">fk_entidade</text>
</g>
<!-- user -->
<g id="node19" class="node">
<title>user</title>
<polygon fill="none" stroke="black" points="321,-167.5 255.5,-167.5 255.5,-110 321,-110 321,-167.5"/>
<text text-anchor="middle" x="288.25" y="-150.2" font-family="Times New Roman,serif" font-size="14.00">user</text>
<text text-anchor="middle" x="288.25" y="-133.7" font-family="Times New Roman,serif" font-size="14.00">38 rows</text>
<text text-anchor="middle" x="288.25" y="-117.2" font-family="Times New Roman,serif" font-size="14.00">0.03 MB</text>
</g>
<!-- entidade&#45;&gt;user -->
<g id="edge17" class="edge">
<title>entidade&#45;&gt;user</title>
<path fill="none" stroke="black" d="M764.01,-246.7C687.38,-243.31 493.15,-229.23 331.62,-167.33"/>
<polygon fill="black" stroke="black" points="333.03,-164.13 322.44,-163.74 330.48,-170.64 333.03,-164.13"/>
<text text-anchor="middle" x="460.48" y="-188.7" font-family="Times New Roman,serif" font-size="14.00">fk_entidade</text>
</g>
<!-- estado -->
<g id="node15" class="node">
<title>estado</title>
<polygon fill="none" stroke="black" points="830,-497.5 764.5,-497.5 764.5,-440 830,-440 830,-497.5"/>
<text text-anchor="middle" x="797.25" y="-480.2" font-family="Times New Roman,serif" font-size="14.00">estado</text>
<text text-anchor="middle" x="797.25" y="-463.7" font-family="Times New Roman,serif" font-size="14.00">27 rows</text>
<text text-anchor="middle" x="797.25" y="-447.2" font-family="Times New Roman,serif" font-size="14.00">0.02 MB</text>
</g>
<!-- estado&#45;&gt;cidade -->
<g id="edge7" class="edge">
<title>estado&#45;&gt;cidade</title>
<path fill="none" stroke="black" d="M797.25,-439.66C797.25,-427.28 797.25,-412.53 797.25,-399.09"/>
<polygon fill="black" stroke="black" points="800.75,-399.22 797.25,-389.22 793.75,-399.22 800.75,-399.22"/>
<text text-anchor="middle" x="823.5" y="-408.7" font-family="Times New Roman,serif" font-size="14.00">fk_estado</text>
</g>
<!-- migration -->
<g id="node16" class="node">
<title>migration</title>
<polygon fill="none" stroke="black" points="1018.88,-497.5 949.62,-497.5 949.62,-440 1018.88,-440 1018.88,-497.5"/>
<text text-anchor="middle" x="984.25" y="-480.2" font-family="Times New Roman,serif" font-size="14.00">migration</text>
<text text-anchor="middle" x="984.25" y="-463.7" font-family="Times New Roman,serif" font-size="14.00">15 rows</text>
<text text-anchor="middle" x="984.25" y="-447.2" font-family="Times New Roman,serif" font-size="14.00">0.02 MB</text>
</g>
<!-- receita -->
<g id="node17" class="node">
<title>receita</title>
<polygon fill="none" stroke="black" points="517.62,-167.5 440.88,-167.5 440.88,-110 517.62,-110 517.62,-167.5"/>
<text text-anchor="middle" x="479.25" y="-150.2" font-family="Times New Roman,serif" font-size="14.00">receita</text>
<text text-anchor="middle" x="479.25" y="-133.7" font-family="Times New Roman,serif" font-size="14.00">1.511 rows</text>
<text text-anchor="middle" x="479.25" y="-117.2" font-family="Times New Roman,serif" font-size="14.00">0.16 MB</text>
</g>
<!-- receita&#45;&gt;dam -->
<g id="edge10" class="edge">
<title>receita&#45;&gt;dam</title>
<path fill="none" stroke="black" d="M495.57,-109.78C502.75,-98.56 511.71,-85.86 521.25,-75.5 524.44,-72.03 527.9,-68.61 531.49,-65.29"/>
<polygon fill="black" stroke="black" points="533.71,-68 538.9,-58.76 529.08,-62.75 533.71,-68"/>
<text text-anchor="middle" x="548.25" y="-78.7" font-family="Times New Roman,serif" font-size="14.00">fk_receita</text>
</g>
<!-- user&#45;&gt;auth_assignment -->
<g id="edge2" class="edge">
<title>user&#45;&gt;auth_assignment</title>
<path fill="none" stroke="black" d="M260.68,-109.66C247.55,-96.28 231.69,-80.13 217.69,-65.85"/>
<polygon fill="black" stroke="black" points="220.25,-63.47 210.75,-58.78 215.25,-68.37 220.25,-63.47"/>
<text text-anchor="middle" x="261.47" y="-78.7" font-family="Times New Roman,serif" font-size="14.00">user_id</text>
</g>
<!-- user_visit_log -->
<g id="node20" class="node">
<title>user_visit_log</title>
<polygon fill="none" stroke="black" points="349.5,-57.5 257,-57.5 257,0 349.5,0 349.5,-57.5"/>
<text text-anchor="middle" x="303.25" y="-40.2" font-family="Times New Roman,serif" font-size="14.00">user_visit_log</text>
<text text-anchor="middle" x="303.25" y="-23.7" font-family="Times New Roman,serif" font-size="14.00">273.408 rows</text>
<text text-anchor="middle" x="303.25" y="-7.2" font-family="Times New Roman,serif" font-size="14.00">58.09 MB</text>
</g>
<!-- user&#45;&gt;user_visit_log -->
<g id="edge18" class="edge">
<title>user&#45;&gt;user_visit_log</title>
<path fill="none" stroke="black" d="M292.15,-109.66C293.87,-97.28 295.92,-82.53 297.79,-69.09"/>
<polygon fill="black" stroke="black" points="301.25,-69.59 299.16,-59.2 294.32,-68.63 301.25,-69.59"/>
<text text-anchor="middle" x="316.52" y="-78.7" font-family="Times New Roman,serif" font-size="14.00">user_id</text>
</g>
<!-- valores_dam -->
<g id="node21" class="node">
<title>valores_dam</title>
<polygon fill="none" stroke="black" points="626.38,-167.5 536.12,-167.5 536.12,-110 626.38,-110 626.38,-167.5"/>
<text text-anchor="middle" x="581.25" y="-150.2" font-family="Times New Roman,serif" font-size="14.00">valores_dam</text>
<text text-anchor="middle" x="581.25" y="-133.7" font-family="Times New Roman,serif" font-size="14.00">135.105 rows</text>
<text text-anchor="middle" x="581.25" y="-117.2" font-family="Times New Roman,serif" font-size="14.00">48.50 MB</text>
</g>
<!-- valores_dam&#45;&gt;dam -->
<g id="edge12" class="edge">
<title>valores_dam&#45;&gt;dam</title>
<path fill="none" stroke="black" d="M580.1,-109.69C579.88,-103.84 579.67,-97.72 579.5,-92 579.29,-84.7 579.1,-76.91 578.94,-69.4"/>
<polygon fill="black" stroke="black" points="582.44,-69.39 578.74,-59.47 575.44,-69.53 582.44,-69.39"/>
<text text-anchor="middle" x="623.38" y="-78.7" font-family="Times New Roman,serif" font-size="14.00">fk_valores_dam</text>
</g>
</g>
</svg>
