<?xml version="1.0" encoding="UTF-8" standalone="no"?>
<!DOCTYPE svg PUBLIC "-//W3C//DTD SVG 1.1//EN"
 "http://www.w3.org/Graphics/SVG/1.1/DTD/svg11.dtd">
<!-- Generated by graphviz version 12.2.1 (20241206.2353)
 -->
<!-- Pages: 1 -->
<svg width="1981pt" height="987pt"
 viewBox="0.00 0.00 1981.00 986.50" xmlns="http://www.w3.org/2000/svg" xmlns:xlink="http://www.w3.org/1999/xlink">
<g id="graph0" class="graph" transform="scale(1 1) rotate(0) translate(4 982.5)">
<polygon fill="white" stroke="none" points="-4,4 -4,-982.5 1977,-982.5 1977,4 -4,4"/>
<!-- aditivo -->
<g id="node1" class="node">
<title>aditivo</title>
<polygon fill="none" stroke="black" points="65.5,-387.5 0,-387.5 0,-330 65.5,-330 65.5,-387.5"/>
<text text-anchor="middle" x="32.75" y="-370.2" font-family="Times New Roman,serif" font-size="14.00">aditivo</text>
<text text-anchor="middle" x="32.75" y="-353.7" font-family="Times New Roman,serif" font-size="14.00">73 rows</text>
<text text-anchor="middle" x="32.75" y="-337.2" font-family="Times New Roman,serif" font-size="14.00">0.06 MB</text>
</g>
<!-- afms -->
<g id="node2" class="node">
<title>afms</title>
<polygon fill="none" stroke="black" points="312.5,-387.5 229,-387.5 229,-330 312.5,-330 312.5,-387.5"/>
<text text-anchor="middle" x="270.75" y="-370.2" font-family="Times New Roman,serif" font-size="14.00">afms</text>
<text text-anchor="middle" x="270.75" y="-353.7" font-family="Times New Roman,serif" font-size="14.00">23.489 rows</text>
<text text-anchor="middle" x="270.75" y="-337.2" font-family="Times New Roman,serif" font-size="14.00">4.03 MB</text>
</g>
<!-- afms_item -->
<g id="node3" class="node">
<title>afms_item</title>
<polygon fill="none" stroke="black" points="452.88,-277.5 362.62,-277.5 362.62,-220 452.88,-220 452.88,-277.5"/>
<text text-anchor="middle" x="407.75" y="-260.2" font-family="Times New Roman,serif" font-size="14.00">afms_item</text>
<text text-anchor="middle" x="407.75" y="-243.7" font-family="Times New Roman,serif" font-size="14.00">122.094 rows</text>
<text text-anchor="middle" x="407.75" y="-227.2" font-family="Times New Roman,serif" font-size="14.00">12.55 MB</text>
</g>
<!-- afms&#45;&gt;afms_item -->
<g id="edge4" class="edge">
<title>afms&#45;&gt;afms_item</title>
<path fill="none" stroke="black" d="M312.81,-329.66C320.88,-323.97 329.17,-317.92 336.75,-312 347.45,-303.64 358.66,-294.18 368.92,-285.2"/>
<polygon fill="black" stroke="black" points="370.98,-288.05 376.16,-278.81 366.35,-282.81 370.98,-288.05"/>
<text text-anchor="middle" x="387.59" y="-298.7" font-family="Times New Roman,serif" font-size="14.00">FK_AFMS</text>
</g>
<!-- nota_fiscal -->
<g id="node25" class="node">
<title>nota_fiscal</title>
<polygon fill="none" stroke="black" points="309.12,-277.5 232.38,-277.5 232.38,-220 309.12,-220 309.12,-277.5"/>
<text text-anchor="middle" x="270.75" y="-260.2" font-family="Times New Roman,serif" font-size="14.00">nota_fiscal</text>
<text text-anchor="middle" x="270.75" y="-243.7" font-family="Times New Roman,serif" font-size="14.00">9.932 rows</text>
<text text-anchor="middle" x="270.75" y="-227.2" font-family="Times New Roman,serif" font-size="14.00">1.73 MB</text>
</g>
<!-- afms&#45;&gt;nota_fiscal -->
<g id="edge33" class="edge">
<title>afms&#45;&gt;nota_fiscal</title>
<path fill="none" stroke="black" d="M270.75,-329.66C270.75,-317.28 270.75,-302.53 270.75,-289.09"/>
<polygon fill="black" stroke="black" points="274.25,-289.22 270.75,-279.22 267.25,-289.22 274.25,-289.22"/>
<text text-anchor="middle" x="301.5" y="-298.7" font-family="Times New Roman,serif" font-size="14.00">FK_AFMS</text>
</g>
<!-- nota_fiscal_item -->
<g id="node27" class="node">
<title>nota_fiscal_item</title>
<polygon fill="none" stroke="black" points="451.12,-167.5 344.38,-167.5 344.38,-110 451.12,-110 451.12,-167.5"/>
<text text-anchor="middle" x="397.75" y="-150.2" font-family="Times New Roman,serif" font-size="14.00">nota_fiscal_item</text>
<text text-anchor="middle" x="397.75" y="-133.7" font-family="Times New Roman,serif" font-size="14.00">50.337 rows</text>
<text text-anchor="middle" x="397.75" y="-117.2" font-family="Times New Roman,serif" font-size="14.00">5.55 MB</text>
</g>
<!-- afms_item&#45;&gt;nota_fiscal_item -->
<g id="edge36" class="edge">
<title>afms_item&#45;&gt;nota_fiscal_item</title>
<path fill="none" stroke="black" d="M405.15,-219.66C404,-207.28 402.64,-192.53 401.39,-179.09"/>
<polygon fill="black" stroke="black" points="404.88,-178.84 400.48,-169.21 397.91,-179.49 404.88,-178.84"/>
<text text-anchor="middle" x="454.35" y="-188.7" font-family="Times New Roman,serif" font-size="14.00">FK_AFMS_ITEM</text>
</g>
<!-- aprovador_has_lotacao -->
<g id="node4" class="node">
<title>aprovador_has_lotacao</title>
<polygon fill="none" stroke="black" points="1715.38,-277.5 1574.12,-277.5 1574.12,-220 1715.38,-220 1715.38,-277.5"/>
<text text-anchor="middle" x="1644.75" y="-260.2" font-family="Times New Roman,serif" font-size="14.00">aprovador_has_lotacao</text>
<text text-anchor="middle" x="1644.75" y="-243.7" font-family="Times New Roman,serif" font-size="14.00">147 rows</text>
<text text-anchor="middle" x="1644.75" y="-227.2" font-family="Times New Roman,serif" font-size="14.00">0.05 MB</text>
</g>
<!-- audit_trail_entry -->
<g id="node5" class="node">
<title>audit_trail_entry</title>
<polygon fill="none" stroke="black" points="1023.75,-978.5 917.75,-978.5 917.75,-921 1023.75,-921 1023.75,-978.5"/>
<text text-anchor="middle" x="970.75" y="-961.2" font-family="Times New Roman,serif" font-size="14.00">audit_trail_entry</text>
<text text-anchor="middle" x="970.75" y="-944.7" font-family="Times New Roman,serif" font-size="14.00">538.096 rows</text>
<text text-anchor="middle" x="970.75" y="-928.2" font-family="Times New Roman,serif" font-size="14.00">196.81 MB</text>
</g>
<!-- auth_assignment -->
<g id="node6" class="node">
<title>auth_assignment</title>
<polygon fill="none" stroke="black" points="1841.5,-277.5 1734,-277.5 1734,-220 1841.5,-220 1841.5,-277.5"/>
<text text-anchor="middle" x="1787.75" y="-260.2" font-family="Times New Roman,serif" font-size="14.00">auth_assignment</text>
<text text-anchor="middle" x="1787.75" y="-243.7" font-family="Times New Roman,serif" font-size="14.00">250 rows</text>
<text text-anchor="middle" x="1787.75" y="-227.2" font-family="Times New Roman,serif" font-size="14.00">0.03 MB</text>
</g>
<!-- auth_item -->
<g id="node7" class="node">
<title>auth_item</title>
<polygon fill="none" stroke="black" points="1909.12,-387.5 1838.38,-387.5 1838.38,-330 1909.12,-330 1909.12,-387.5"/>
<text text-anchor="middle" x="1873.75" y="-370.2" font-family="Times New Roman,serif" font-size="14.00">auth_item</text>
<text text-anchor="middle" x="1873.75" y="-353.7" font-family="Times New Roman,serif" font-size="14.00">303 rows</text>
<text text-anchor="middle" x="1873.75" y="-337.2" font-family="Times New Roman,serif" font-size="14.00">0.09 MB</text>
</g>
<!-- auth_item&#45;&gt;auth_assignment -->
<g id="edge7" class="edge">
<title>auth_item&#45;&gt;auth_assignment</title>
<path fill="none" stroke="black" d="M1838.16,-340.6C1826.19,-333.27 1813.74,-323.69 1805.25,-312 1800.31,-305.19 1796.76,-297.04 1794.21,-288.9"/>
<polygon fill="black" stroke="black" points="1797.65,-288.2 1791.71,-279.42 1790.88,-289.99 1797.65,-288.2"/>
<text text-anchor="middle" x="1836" y="-298.7" font-family="Times New Roman,serif" font-size="14.00">item_name</text>
</g>
<!-- auth_item_child -->
<g id="node8" class="node">
<title>auth_item_child</title>
<polygon fill="none" stroke="black" points="1973,-277.5 1868.5,-277.5 1868.5,-220 1973,-220 1973,-277.5"/>
<text text-anchor="middle" x="1920.75" y="-260.2" font-family="Times New Roman,serif" font-size="14.00">auth_item_child</text>
<text text-anchor="middle" x="1920.75" y="-243.7" font-family="Times New Roman,serif" font-size="14.00">98 rows</text>
<text text-anchor="middle" x="1920.75" y="-227.2" font-family="Times New Roman,serif" font-size="14.00">0.03 MB</text>
</g>
<!-- auth_item&#45;&gt;auth_item_child -->
<g id="edge11" class="edge">
<title>auth_item&#45;&gt;auth_item_child</title>
<path fill="none" stroke="black" d="M1869.91,-329.54C1869.52,-318.53 1870.51,-306.04 1875,-295.5 1876.22,-292.64 1877.7,-289.87 1879.39,-287.2"/>
<polygon fill="black" stroke="black" points="1882.18,-289.31 1885.33,-279.19 1876.56,-285.14 1882.18,-289.31"/>
<text text-anchor="middle" x="1891.88" y="-298.7" font-family="Times New Roman,serif" font-size="14.00">parent</text>
</g>
<!-- auth_item&#45;&gt;auth_item_child -->
<g id="edge12" class="edge">
<title>auth_item&#45;&gt;auth_item_child</title>
<path fill="none" stroke="black" d="M1898.51,-329.51C1902.41,-323.98 1906.05,-318.02 1908.75,-312 1911.96,-304.85 1914.31,-296.86 1916.03,-289.05"/>
<polygon fill="black" stroke="black" points="1919.45,-289.82 1917.86,-279.34 1912.57,-288.53 1919.45,-289.82"/>
<text text-anchor="middle" x="1927.93" y="-298.7" font-family="Times New Roman,serif" font-size="14.00">child</text>
</g>
<!-- auth_item_group -->
<g id="node9" class="node">
<title>auth_item_group</title>
<polygon fill="none" stroke="black" points="1875.25,-538.5 1766.25,-538.5 1766.25,-481 1875.25,-481 1875.25,-538.5"/>
<text text-anchor="middle" x="1820.75" y="-521.2" font-family="Times New Roman,serif" font-size="14.00">auth_item_group</text>
<text text-anchor="middle" x="1820.75" y="-504.7" font-family="Times New Roman,serif" font-size="14.00">3 rows</text>
<text text-anchor="middle" x="1820.75" y="-488.2" font-family="Times New Roman,serif" font-size="14.00">0.02 MB</text>
</g>
<!-- auth_item_group&#45;&gt;auth_item -->
<g id="edge10" class="edge">
<title>auth_item_group&#45;&gt;auth_item</title>
<path fill="none" stroke="black" d="M1815.55,-480.68C1812.89,-459.12 1812.17,-429.14 1823,-405.5 1824.97,-401.19 1827.57,-397.12 1830.54,-393.3"/>
<polygon fill="black" stroke="black" points="1832.98,-395.82 1837.03,-386.03 1827.76,-391.15 1832.98,-395.82"/>
<text text-anchor="middle" x="1854.88" y="-429.2" font-family="Times New Roman,serif" font-size="14.00">group_code</text>
</g>
<!-- auth_rule -->
<g id="node10" class="node">
<title>auth_rule</title>
<polygon fill="none" stroke="black" points="1960.25,-538.5 1893.25,-538.5 1893.25,-481 1960.25,-481 1960.25,-538.5"/>
<text text-anchor="middle" x="1926.75" y="-521.2" font-family="Times New Roman,serif" font-size="14.00">auth_rule</text>
<text text-anchor="middle" x="1926.75" y="-504.7" font-family="Times New Roman,serif" font-size="14.00">0 rows</text>
<text text-anchor="middle" x="1926.75" y="-488.2" font-family="Times New Roman,serif" font-size="14.00">0.02 MB</text>
</g>
<!-- auth_rule&#45;&gt;auth_item -->
<g id="edge9" class="edge">
<title>auth_rule&#45;&gt;auth_item</title>
<path fill="none" stroke="black" d="M1916.78,-480.72C1908.52,-457.49 1896.68,-424.21 1887.51,-398.44"/>
<polygon fill="black" stroke="black" points="1890.92,-397.58 1884.27,-389.33 1884.33,-399.92 1890.92,-397.58"/>
<text text-anchor="middle" x="1938.48" y="-429.2" font-family="Times New Roman,serif" font-size="14.00">rule_name</text>
</g>
<!-- cidade -->
<g id="node11" class="node">
<title>cidade</title>
<polygon fill="none" stroke="black" points="860.12,-868.5 783.38,-868.5 783.38,-811 860.12,-811 860.12,-868.5"/>
<text text-anchor="middle" x="821.75" y="-851.2" font-family="Times New Roman,serif" font-size="14.00">cidade</text>
<text text-anchor="middle" x="821.75" y="-834.7" font-family="Times New Roman,serif" font-size="14.00">5.571 rows</text>
<text text-anchor="middle" x="821.75" y="-818.2" font-family="Times New Roman,serif" font-size="14.00">0.41 MB</text>
</g>
<!-- orgao -->
<g id="node28" class="node">
<title>orgao</title>
<polygon fill="none" stroke="black" points="900.5,-758.5 835,-758.5 835,-701 900.5,-701 900.5,-758.5"/>
<text text-anchor="middle" x="867.75" y="-741.2" font-family="Times New Roman,serif" font-size="14.00">orgao</text>
<text text-anchor="middle" x="867.75" y="-724.7" font-family="Times New Roman,serif" font-size="14.00">23 rows</text>
<text text-anchor="middle" x="867.75" y="-708.2" font-family="Times New Roman,serif" font-size="14.00">0.08 MB</text>
</g>
<!-- cidade&#45;&gt;orgao -->
<g id="edge39" class="edge">
<title>cidade&#45;&gt;orgao</title>
<path fill="none" stroke="black" d="M818.42,-810.56C818.19,-799.55 819.3,-787.06 823.75,-776.5 824.95,-773.65 826.42,-770.87 828.08,-768.19"/>
<polygon fill="black" stroke="black" points="830.89,-770.28 833.93,-760.13 825.22,-766.17 830.89,-770.28"/>
<text text-anchor="middle" x="861.25" y="-779.7" font-family="Times New Roman,serif" font-size="14.00">FK_CIDADE</text>
</g>
<!-- contrato -->
<g id="node12" class="node">
<title>contrato</title>
<polygon fill="none" stroke="black" points="240.12,-538.5 163.38,-538.5 163.38,-481 240.12,-481 240.12,-538.5"/>
<text text-anchor="middle" x="201.75" y="-521.2" font-family="Times New Roman,serif" font-size="14.00">contrato</text>
<text text-anchor="middle" x="201.75" y="-504.7" font-family="Times New Roman,serif" font-size="14.00">1.913 rows</text>
<text text-anchor="middle" x="201.75" y="-488.2" font-family="Times New Roman,serif" font-size="14.00">0.30 MB</text>
</g>
<!-- contrato&#45;&gt;aditivo -->
<g id="edge1" class="edge">
<title>contrato&#45;&gt;aditivo</title>
<path fill="none" stroke="black" d="M163.07,-508.83C126.72,-506.66 73.7,-497.27 44.75,-463 30.01,-445.55 26.91,-420.12 27.55,-398.86"/>
<polygon fill="black" stroke="black" points="31.03,-399.27 28.14,-389.07 24.04,-398.84 31.03,-399.27"/>
<text text-anchor="middle" x="92.75" y="-429.2" font-family="Times New Roman,serif" font-size="14.00">FK_CONTRATO</text>
</g>
<!-- contrato&#45;&gt;afms -->
<g id="edge2" class="edge">
<title>contrato&#45;&gt;afms</title>
<path fill="none" stroke="black" d="M235.7,-480.66C240.68,-475.24 245.28,-469.28 248.75,-463 259.56,-443.42 265.06,-419.04 267.86,-398.89"/>
<polygon fill="black" stroke="black" points="271.32,-399.43 269.04,-389.08 264.37,-398.6 271.32,-399.43"/>
<text text-anchor="middle" x="314.74" y="-429.2" font-family="Times New Roman,serif" font-size="14.00">FK_CONTRATO</text>
</g>
<!-- contrato_item -->
<g id="node13" class="node">
<title>contrato_item</title>
<polygon fill="none" stroke="black" points="572.62,-387.5 480.88,-387.5 480.88,-330 572.62,-330 572.62,-387.5"/>
<text text-anchor="middle" x="526.75" y="-370.2" font-family="Times New Roman,serif" font-size="14.00">contrato_item</text>
<text text-anchor="middle" x="526.75" y="-353.7" font-family="Times New Roman,serif" font-size="14.00">45.592 rows</text>
<text text-anchor="middle" x="526.75" y="-337.2" font-family="Times New Roman,serif" font-size="14.00">6.55 MB</text>
</g>
<!-- contrato&#45;&gt;contrato_item -->
<g id="edge17" class="edge">
<title>contrato&#45;&gt;contrato_item</title>
<path fill="none" stroke="black" d="M240.57,-501.46C274.75,-494.24 325.39,-481.56 366.75,-463 407.62,-444.66 450.04,-416.82 480.93,-394.66"/>
<polygon fill="black" stroke="black" points="482.87,-397.58 488.9,-388.87 478.75,-391.91 482.87,-397.58"/>
<text text-anchor="middle" x="512.38" y="-429.2" font-family="Times New Roman,serif" font-size="14.00">FK_CONTRATO</text>
</g>
<!-- rescisao_contrato -->
<g id="node30" class="node">
<title>rescisao_contrato</title>
<polygon fill="none" stroke="black" points="207,-387.5 96.5,-387.5 96.5,-330 207,-330 207,-387.5"/>
<text text-anchor="middle" x="151.75" y="-370.2" font-family="Times New Roman,serif" font-size="14.00">rescisao_contrato</text>
<text text-anchor="middle" x="151.75" y="-353.7" font-family="Times New Roman,serif" font-size="14.00">0 rows</text>
<text text-anchor="middle" x="151.75" y="-337.2" font-family="Times New Roman,serif" font-size="14.00">0.03 MB</text>
</g>
<!-- contrato&#45;&gt;rescisao_contrato -->
<g id="edge42" class="edge">
<title>contrato&#45;&gt;rescisao_contrato</title>
<path fill="none" stroke="black" d="M164.51,-480.6C159.75,-475.3 155.56,-469.39 152.75,-463 144,-443.11 143.31,-418.91 145.01,-398.94"/>
<polygon fill="black" stroke="black" points="148.46,-399.56 146.08,-389.24 141.5,-398.79 148.46,-399.56"/>
<text text-anchor="middle" x="200.75" y="-429.2" font-family="Times New Roman,serif" font-size="14.00">FK_CONTRATO</text>
</g>
<!-- distribuicao_item -->
<g id="node15" class="node">
<title>distribuicao_item</title>
<polygon fill="none" stroke="black" points="682.38,-277.5 571.12,-277.5 571.12,-220 682.38,-220 682.38,-277.5"/>
<text text-anchor="middle" x="626.75" y="-260.2" font-family="Times New Roman,serif" font-size="14.00">distribuicao_item</text>
<text text-anchor="middle" x="626.75" y="-243.7" font-family="Times New Roman,serif" font-size="14.00">25.407 rows</text>
<text text-anchor="middle" x="626.75" y="-227.2" font-family="Times New Roman,serif" font-size="14.00">4.55 MB</text>
</g>
<!-- contrato_item&#45;&gt;distribuicao_item -->
<g id="edge20" class="edge">
<title>contrato_item&#45;&gt;distribuicao_item</title>
<path fill="none" stroke="black" d="M540.07,-329.75C546.26,-318.4 554.29,-305.61 563.5,-295.5 566.82,-291.85 570.48,-288.31 574.31,-284.93"/>
<polygon fill="black" stroke="black" points="576.29,-287.84 581.75,-278.76 571.82,-282.46 576.29,-287.84"/>
<text text-anchor="middle" x="648.62" y="-298.7" font-family="Times New Roman,serif" font-size="14.00">FK_CONTRATO_HAS_ITEM</text>
</g>
<!-- cotacao -->
<g id="node14" class="node">
<title>cotacao</title>
<polygon fill="none" stroke="black" points="1068.5,-277.5 1003,-277.5 1003,-220 1068.5,-220 1068.5,-277.5"/>
<text text-anchor="middle" x="1035.75" y="-260.2" font-family="Times New Roman,serif" font-size="14.00">cotacao</text>
<text text-anchor="middle" x="1035.75" y="-243.7" font-family="Times New Roman,serif" font-size="14.00">74 rows</text>
<text text-anchor="middle" x="1035.75" y="-227.2" font-family="Times New Roman,serif" font-size="14.00">0.03 MB</text>
</g>
<!-- entrada_fornecedor -->
<g id="node16" class="node">
<title>entrada_fornecedor</title>
<polygon fill="none" stroke="black" points="590.25,-167.5 469.25,-167.5 469.25,-110 590.25,-110 590.25,-167.5"/>
<text text-anchor="middle" x="529.75" y="-150.2" font-family="Times New Roman,serif" font-size="14.00">entrada_fornecedor</text>
<text text-anchor="middle" x="529.75" y="-133.7" font-family="Times New Roman,serif" font-size="14.00">36 rows</text>
<text text-anchor="middle" x="529.75" y="-117.2" font-family="Times New Roman,serif" font-size="14.00">0.05 MB</text>
</g>
<!-- cotacao&#45;&gt;entrada_fornecedor -->
<g id="edge21" class="edge">
<title>cotacao&#45;&gt;entrada_fornecedor</title>
<path fill="none" stroke="black" d="M1002.6,-243.54C929.76,-233.87 750.57,-207.74 604.75,-167.5 603.58,-167.18 602.4,-166.84 601.22,-166.5"/>
<polygon fill="black" stroke="black" points="602.49,-163.23 591.9,-163.64 600.43,-169.92 602.49,-163.23"/>
<text text-anchor="middle" x="789.67" y="-188.7" font-family="Times New Roman,serif" font-size="14.00">FK_COTACAO</text>
</g>
<!-- item_cotacao -->
<g id="node20" class="node">
<title>item_cotacao</title>
<polygon fill="none" stroke="black" points="1019.12,-167.5 930.38,-167.5 930.38,-110 1019.12,-110 1019.12,-167.5"/>
<text text-anchor="middle" x="974.75" y="-150.2" font-family="Times New Roman,serif" font-size="14.00">item_cotacao</text>
<text text-anchor="middle" x="974.75" y="-133.7" font-family="Times New Roman,serif" font-size="14.00">227 rows</text>
<text text-anchor="middle" x="974.75" y="-117.2" font-family="Times New Roman,serif" font-size="14.00">0.06 MB</text>
</g>
<!-- cotacao&#45;&gt;item_cotacao -->
<g id="edge26" class="edge">
<title>cotacao&#45;&gt;item_cotacao</title>
<path fill="none" stroke="black" d="M1019.88,-219.66C1012.61,-206.78 1003.88,-191.33 996.05,-177.46"/>
<polygon fill="black" stroke="black" points="999.25,-176.01 991.28,-169.02 993.15,-179.45 999.25,-176.01"/>
<text text-anchor="middle" x="1053.15" y="-188.7" font-family="Times New Roman,serif" font-size="14.00">FK_COTACAO</text>
</g>
<!-- nota_fiscal_distribuicao_item -->
<g id="node26" class="node">
<title>nota_fiscal_distribuicao_item</title>
<polygon fill="none" stroke="black" points="601.38,-57.5 424.12,-57.5 424.12,0 601.38,0 601.38,-57.5"/>
<text text-anchor="middle" x="512.75" y="-40.2" font-family="Times New Roman,serif" font-size="14.00">nota_fiscal_distribuicao_item</text>
<text text-anchor="middle" x="512.75" y="-23.7" font-family="Times New Roman,serif" font-size="14.00">48.260 rows</text>
<text text-anchor="middle" x="512.75" y="-7.2" font-family="Times New Roman,serif" font-size="14.00">5.55 MB</text>
</g>
<!-- distribuicao_item&#45;&gt;nota_fiscal_distribuicao_item -->
<g id="edge35" class="edge">
<title>distribuicao_item&#45;&gt;nota_fiscal_distribuicao_item</title>
<path fill="none" stroke="black" d="M632.53,-219.53C638.39,-182.83 642.8,-118.37 612.75,-75.5 610.11,-71.74 607.09,-68.28 603.77,-65.1"/>
<polygon fill="black" stroke="black" points="606.06,-62.45 596.14,-58.73 601.58,-67.83 606.06,-62.45"/>
<text text-anchor="middle" x="716.64" y="-133.7" font-family="Times New Roman,serif" font-size="14.00">FK_DISTRIBUICAO_ITEM</text>
</g>
<!-- estado -->
<g id="node17" class="node">
<title>estado</title>
<polygon fill="none" stroke="black" points="899.5,-978.5 834,-978.5 834,-921 899.5,-921 899.5,-978.5"/>
<text text-anchor="middle" x="866.75" y="-961.2" font-family="Times New Roman,serif" font-size="14.00">estado</text>
<text text-anchor="middle" x="866.75" y="-944.7" font-family="Times New Roman,serif" font-size="14.00">27 rows</text>
<text text-anchor="middle" x="866.75" y="-928.2" font-family="Times New Roman,serif" font-size="14.00">0.02 MB</text>
</g>
<!-- estado&#45;&gt;cidade -->
<g id="edge13" class="edge">
<title>estado&#45;&gt;cidade</title>
<path fill="none" stroke="black" d="M833.53,-920.96C828.94,-915.51 824.9,-909.46 822.25,-903 819.36,-895.96 818.02,-888.09 817.6,-880.37"/>
<polygon fill="black" stroke="black" points="821.1,-880.41 817.58,-870.42 814.1,-880.43 821.1,-880.41"/>
<text text-anchor="middle" x="860.5" y="-889.7" font-family="Times New Roman,serif" font-size="14.00">FK_ESTADO</text>
</g>
<!-- estado&#45;&gt;orgao -->
<g id="edge38" class="edge">
<title>estado&#45;&gt;orgao</title>
<path fill="none" stroke="black" d="M890.29,-920.64C893.77,-915.1 896.83,-909.1 898.75,-903 915.64,-849.38 915.24,-830.25 898.75,-776.5 897.97,-773.95 896.99,-771.41 895.86,-768.91"/>
<polygon fill="black" stroke="black" points="899.06,-767.46 891.27,-760.28 892.88,-770.75 899.06,-767.46"/>
<text text-anchor="middle" x="949.52" y="-834.7" font-family="Times New Roman,serif" font-size="14.00">FK_ESTADO</text>
</g>
<!-- fornecedor -->
<g id="node18" class="node">
<title>fornecedor</title>
<polygon fill="none" stroke="black" points="451,-648.5 376.5,-648.5 376.5,-591 451,-591 451,-648.5"/>
<text text-anchor="middle" x="413.75" y="-631.2" font-family="Times New Roman,serif" font-size="14.00">fornecedor</text>
<text text-anchor="middle" x="413.75" y="-614.7" font-family="Times New Roman,serif" font-size="14.00">899 rows</text>
<text text-anchor="middle" x="413.75" y="-598.2" font-family="Times New Roman,serif" font-size="14.00">0.19 MB</text>
</g>
<!-- fornecedor&#45;&gt;contrato -->
<g id="edge14" class="edge">
<title>fornecedor&#45;&gt;contrato</title>
<path fill="none" stroke="black" d="M376.15,-610.69C335.53,-601.52 273.91,-586.11 253.75,-573 243.55,-566.37 234.32,-557.12 226.55,-547.78"/>
<polygon fill="black" stroke="black" points="229.43,-545.79 220.51,-540.07 223.92,-550.1 229.43,-545.79"/>
<text text-anchor="middle" x="310.75" y="-559.7" font-family="Times New Roman,serif" font-size="14.00">FK_FORNECEDOR</text>
</g>
<!-- fornecedor&#45;&gt;entrada_fornecedor -->
<g id="edge22" class="edge">
<title>fornecedor&#45;&gt;entrada_fornecedor</title>
<path fill="none" stroke="black" d="M409.8,-590.53C403.51,-549.12 389.53,-469.83 366.75,-405.5 363.76,-397.07 359.8,-396.21 357.75,-387.5 351.88,-362.63 342.28,-350.34 357.75,-330 375.9,-306.14 396.4,-326.3 422.75,-312 443.09,-300.96 446.73,-295.1 461.75,-277.5 487.56,-247.25 492.86,-238 509.75,-202 513.19,-194.67 516.27,-186.58 518.91,-178.74"/>
<polygon fill="black" stroke="black" points="522.2,-179.94 521.91,-169.35 515.53,-177.82 522.2,-179.94"/>
<text text-anchor="middle" x="414.75" y="-353.7" font-family="Times New Roman,serif" font-size="14.00">FK_FORNECEDOR</text>
</g>
<!-- fornecedor&#45;&gt;item_cotacao -->
<g id="edge27" class="edge">
<title>fornecedor&#45;&gt;item_cotacao</title>
<path fill="none" stroke="black" d="M450.94,-590.73C504.66,-549.35 605.75,-468.07 680.75,-387.5 702.49,-364.14 701.26,-352.64 723.75,-330 785.25,-268.1 867.6,-209.45 920.91,-174.05"/>
<polygon fill="black" stroke="black" points="922.84,-176.98 929.26,-168.55 918.98,-171.13 922.84,-176.98"/>
<text text-anchor="middle" x="780.75" y="-353.7" font-family="Times New Roman,serif" font-size="14.00">FK_FORNECEDOR</text>
</g>
<!-- item -->
<g id="node19" class="node">
<title>item</title>
<polygon fill="none" stroke="black" points="853.5,-538.5 770,-538.5 770,-481 853.5,-481 853.5,-538.5"/>
<text text-anchor="middle" x="811.75" y="-521.2" font-family="Times New Roman,serif" font-size="14.00">item</text>
<text text-anchor="middle" x="811.75" y="-504.7" font-family="Times New Roman,serif" font-size="14.00">34.919 rows</text>
<text text-anchor="middle" x="811.75" y="-488.2" font-family="Times New Roman,serif" font-size="14.00">14.55 MB</text>
</g>
<!-- item&#45;&gt;afms_item -->
<g id="edge3" class="edge">
<title>item&#45;&gt;afms_item</title>
<path fill="none" stroke="black" d="M806.27,-480.72C800.02,-456.73 787.32,-423.33 762.75,-405.5 712.07,-368.71 676.77,-419.61 623,-387.5 596,-371.38 606,-350.03 581.75,-330 576.72,-325.84 512.43,-296.61 463.45,-274.61"/>
<polygon fill="black" stroke="black" points="464.88,-271.42 454.32,-270.52 462.02,-277.81 464.88,-271.42"/>
<text text-anchor="middle" x="651.88" y="-353.7" font-family="Times New Roman,serif" font-size="14.00">FK_ITEM</text>
</g>
<!-- item&#45;&gt;contrato_item -->
<g id="edge16" class="edge">
<title>item&#45;&gt;contrato_item</title>
<path fill="none" stroke="black" d="M769.65,-492.08C749.78,-483.86 725.91,-473.49 705,-463 662.49,-441.67 616.04,-414.64 581.21,-393.58"/>
<polygon fill="black" stroke="black" points="583.37,-390.8 573.01,-388.6 579.74,-396.78 583.37,-390.8"/>
<text text-anchor="middle" x="733.88" y="-429.2" font-family="Times New Roman,serif" font-size="14.00">FK_ITEM</text>
</g>
<!-- item&#45;&gt;item_cotacao -->
<g id="edge28" class="edge">
<title>item&#45;&gt;item_cotacao</title>
<path fill="none" stroke="black" d="M853.78,-497.83C903.34,-482.44 983.44,-449.11 1018.75,-387.5 1031.46,-365.33 1032.15,-351.76 1018.75,-330 1009.42,-314.85 992.69,-326.92 983,-312 957.21,-272.3 960.13,-215.92 966.14,-178.61"/>
<polygon fill="black" stroke="black" points="969.51,-179.63 967.81,-169.18 962.62,-178.41 969.51,-179.63"/>
<text text-anchor="middle" x="1011.88" y="-298.7" font-family="Times New Roman,serif" font-size="14.00">FK_ITEM</text>
</g>
<!-- item_solicitacao -->
<g id="node21" class="node">
<title>item_solicitacao</title>
<polygon fill="none" stroke="black" points="1245.38,-167.5 1140.12,-167.5 1140.12,-110 1245.38,-110 1245.38,-167.5"/>
<text text-anchor="middle" x="1192.75" y="-150.2" font-family="Times New Roman,serif" font-size="14.00">item_solicitacao</text>
<text text-anchor="middle" x="1192.75" y="-133.7" font-family="Times New Roman,serif" font-size="14.00">128 rows</text>
<text text-anchor="middle" x="1192.75" y="-117.2" font-family="Times New Roman,serif" font-size="14.00">0.05 MB</text>
</g>
<!-- item&#45;&gt;item_solicitacao -->
<g id="edge30" class="edge">
<title>item&#45;&gt;item_solicitacao</title>
<path fill="none" stroke="black" d="M853.72,-509.13C934.71,-508.92 1108.15,-503.6 1148.75,-463 1168.02,-443.73 1178.07,-247 1181.75,-220 1183.55,-206.77 1185.53,-192.32 1187.31,-179.37"/>
<polygon fill="black" stroke="black" points="1190.78,-179.86 1188.67,-169.47 1183.84,-178.91 1190.78,-179.86"/>
<text text-anchor="middle" x="1204.2" y="-298.7" font-family="Times New Roman,serif" font-size="14.00">FK_ITEM</text>
</g>
<!-- licitacao -->
<g id="node22" class="node">
<title>licitacao</title>
<polygon fill="none" stroke="black" points="281.12,-648.5 204.38,-648.5 204.38,-591 281.12,-591 281.12,-648.5"/>
<text text-anchor="middle" x="242.75" y="-631.2" font-family="Times New Roman,serif" font-size="14.00">licitacao</text>
<text text-anchor="middle" x="242.75" y="-614.7" font-family="Times New Roman,serif" font-size="14.00">1.103 rows</text>
<text text-anchor="middle" x="242.75" y="-598.2" font-family="Times New Roman,serif" font-size="14.00">0.44 MB</text>
</g>
<!-- licitacao&#45;&gt;contrato -->
<g id="edge15" class="edge">
<title>licitacao&#45;&gt;contrato</title>
<path fill="none" stroke="black" d="M203.89,-613.24C179.57,-607.56 150.04,-596.09 134.75,-573 124.76,-557.92 136.93,-543.94 153.51,-533.06"/>
<polygon fill="black" stroke="black" points="154.98,-536.26 161.76,-528.12 151.38,-530.25 154.98,-536.26"/>
<text text-anchor="middle" x="182.75" y="-559.7" font-family="Times New Roman,serif" font-size="14.00">FK_LICITACAO</text>
</g>
<!-- lotacao -->
<g id="node23" class="node">
<title>lotacao</title>
<polygon fill="none" stroke="black" points="1338.5,-538.5 1273,-538.5 1273,-481 1338.5,-481 1338.5,-538.5"/>
<text text-anchor="middle" x="1305.75" y="-521.2" font-family="Times New Roman,serif" font-size="14.00">lotacao</text>
<text text-anchor="middle" x="1305.75" y="-504.7" font-family="Times New Roman,serif" font-size="14.00">83 rows</text>
<text text-anchor="middle" x="1305.75" y="-488.2" font-family="Times New Roman,serif" font-size="14.00">0.03 MB</text>
</g>
<!-- lotacao&#45;&gt;aprovador_has_lotacao -->
<g id="edge6" class="edge">
<title>lotacao&#45;&gt;aprovador_has_lotacao</title>
<path fill="none" stroke="black" d="M1338.85,-502.79C1414.55,-487.18 1599.57,-437.28 1674.75,-312 1679.31,-304.41 1678.74,-296.01 1675.63,-287.92"/>
<polygon fill="black" stroke="black" points="1678.87,-286.56 1671.2,-279.25 1672.63,-289.75 1678.87,-286.56"/>
<text text-anchor="middle" x="1704.86" y="-353.7" font-family="Times New Roman,serif" font-size="14.00">FK_LOTACAO</text>
</g>
<!-- user -->
<g id="node34" class="node">
<title>user</title>
<polygon fill="none" stroke="black" points="1410.88,-387.5 1344.62,-387.5 1344.62,-330 1410.88,-330 1410.88,-387.5"/>
<text text-anchor="middle" x="1377.75" y="-370.2" font-family="Times New Roman,serif" font-size="14.00">user</text>
<text text-anchor="middle" x="1377.75" y="-353.7" font-family="Times New Roman,serif" font-size="14.00">110 rows</text>
<text text-anchor="middle" x="1377.75" y="-337.2" font-family="Times New Roman,serif" font-size="14.00">0.08 MB</text>
</g>
<!-- lotacao&#45;&gt;user -->
<g id="edge48" class="edge">
<title>lotacao&#45;&gt;user</title>
<path fill="none" stroke="black" d="M1299.14,-480.64C1295.56,-458.78 1294.11,-428.42 1306.75,-405.5 1313.05,-394.08 1323.54,-385.07 1334.55,-378.18"/>
<polygon fill="black" stroke="black" points="1335.99,-381.39 1342.96,-373.41 1332.53,-375.3 1335.99,-381.39"/>
<text text-anchor="middle" x="1335.25" y="-429.2" font-family="Times New Roman,serif" font-size="14.00">fk_lotacao</text>
</g>
<!-- migration -->
<g id="node24" class="node">
<title>migration</title>
<polygon fill="none" stroke="black" points="1111.38,-978.5 1042.12,-978.5 1042.12,-921 1111.38,-921 1111.38,-978.5"/>
<text text-anchor="middle" x="1076.75" y="-961.2" font-family="Times New Roman,serif" font-size="14.00">migration</text>
<text text-anchor="middle" x="1076.75" y="-944.7" font-family="Times New Roman,serif" font-size="14.00">20 rows</text>
<text text-anchor="middle" x="1076.75" y="-928.2" font-family="Times New Roman,serif" font-size="14.00">0.02 MB</text>
</g>
<!-- nota_fiscal&#45;&gt;nota_fiscal_item -->
<g id="edge37" class="edge">
<title>nota_fiscal&#45;&gt;nota_fiscal_item</title>
<path fill="none" stroke="black" d="M270.96,-219.5C272.39,-207.84 275.88,-194.89 283.75,-185.5 296.46,-170.33 314.93,-160.15 333.32,-153.33"/>
<polygon fill="black" stroke="black" points="334.31,-156.69 342.66,-150.18 332.07,-150.06 334.31,-156.69"/>
<text text-anchor="middle" x="340.75" y="-188.7" font-family="Times New Roman,serif" font-size="14.00">FK_NOTA_FISCAL</text>
</g>
<!-- nota_fiscal_item&#45;&gt;nota_fiscal_distribuicao_item -->
<g id="edge34" class="edge">
<title>nota_fiscal_item&#45;&gt;nota_fiscal_distribuicao_item</title>
<path fill="none" stroke="black" d="M423.97,-109.57C434.4,-98.68 446.66,-86.27 458.25,-75.5 461.91,-72.1 465.78,-68.62 469.69,-65.19"/>
<polygon fill="black" stroke="black" points="471.85,-67.96 477.13,-58.77 467.27,-62.66 471.85,-67.96"/>
<text text-anchor="middle" x="535.5" y="-78.7" font-family="Times New Roman,serif" font-size="14.00">FK_NOTA_FISCAL_ITEM</text>
</g>
<!-- orgao&#45;&gt;fornecedor -->
<g id="edge23" class="edge">
<title>orgao&#45;&gt;fornecedor</title>
<path fill="none" stroke="black" d="M834.73,-720.9C755.7,-702.09 555.3,-654.42 462.41,-632.32"/>
<polygon fill="black" stroke="black" points="463.37,-628.96 452.83,-630.05 461.75,-635.77 463.37,-628.96"/>
<text text-anchor="middle" x="703.93" y="-669.7" font-family="Times New Roman,serif" font-size="14.00">FK_ORGAO</text>
</g>
<!-- orgao&#45;&gt;item -->
<g id="edge24" class="edge">
<title>orgao&#45;&gt;item</title>
<path fill="none" stroke="black" d="M900.12,-700.58C904.46,-695.21 908.26,-689.28 910.75,-683 931.46,-630.73 941.04,-603.87 910.75,-556.5 900.26,-540.1 882.23,-529.49 864.4,-522.67"/>
<polygon fill="black" stroke="black" points="866.01,-519.53 855.42,-519.57 863.73,-526.14 866.01,-519.53"/>
<text text-anchor="middle" x="966.04" y="-614.7" font-family="Times New Roman,serif" font-size="14.00">FK_ORGAO</text>
</g>
<!-- orgao&#45;&gt;licitacao -->
<g id="edge31" class="edge">
<title>orgao&#45;&gt;licitacao</title>
<path fill="none" stroke="black" d="M834.86,-724.88C775.39,-717.73 646.08,-701.48 537.75,-683 461.75,-670.03 443.16,-664.52 367.75,-648.5 343.01,-643.24 315.57,-637.18 292.72,-632.06"/>
<polygon fill="black" stroke="black" points="293.56,-628.66 283.04,-629.89 292.03,-635.49 293.56,-628.66"/>
<text text-anchor="middle" x="573.75" y="-669.7" font-family="Times New Roman,serif" font-size="14.00">FK_ORGAO</text>
</g>
<!-- orgao&#45;&gt;orgao -->
<g id="edge40" class="edge">
<title>orgao&#45;&gt;orgao</title>
<path fill="none" stroke="black" d="M900.94,-740.04C910.82,-739.73 918.5,-736.3 918.5,-729.75 918.5,-726.06 916.07,-723.37 912.18,-721.66"/>
<polygon fill="black" stroke="black" points="912.91,-718.23 902.43,-719.75 911.57,-725.1 912.91,-718.23"/>
<text text-anchor="middle" x="958.25" y="-724.7" font-family="Times New Roman,serif" font-size="14.00">FK_MASTER</text>
</g>
<!-- unidade_item -->
<g id="node32" class="node">
<title>unidade_item</title>
<polygon fill="none" stroke="black" points="842.88,-648.5 752.62,-648.5 752.62,-591 842.88,-591 842.88,-648.5"/>
<text text-anchor="middle" x="797.75" y="-631.2" font-family="Times New Roman,serif" font-size="14.00">unidade_item</text>
<text text-anchor="middle" x="797.75" y="-614.7" font-family="Times New Roman,serif" font-size="14.00">619 rows</text>
<text text-anchor="middle" x="797.75" y="-598.2" font-family="Times New Roman,serif" font-size="14.00">0.06 MB</text>
</g>
<!-- orgao&#45;&gt;unidade_item -->
<g id="edge45" class="edge">
<title>orgao&#45;&gt;unidade_item</title>
<path fill="none" stroke="black" d="M849.54,-700.66C841.12,-687.66 830.99,-672.03 821.93,-658.06"/>
<polygon fill="black" stroke="black" points="825.07,-656.46 816.69,-649.97 819.19,-660.27 825.07,-656.46"/>
<text text-anchor="middle" x="872.94" y="-669.7" font-family="Times New Roman,serif" font-size="14.00">FK_ORGAO</text>
</g>
<!-- unidade_orgao -->
<g id="node33" class="node">
<title>unidade_orgao</title>
<polygon fill="none" stroke="black" points="1145.88,-648.5 1049.62,-648.5 1049.62,-591 1145.88,-591 1145.88,-648.5"/>
<text text-anchor="middle" x="1097.75" y="-631.2" font-family="Times New Roman,serif" font-size="14.00">unidade_orgao</text>
<text text-anchor="middle" x="1097.75" y="-614.7" font-family="Times New Roman,serif" font-size="14.00">251 rows</text>
<text text-anchor="middle" x="1097.75" y="-598.2" font-family="Times New Roman,serif" font-size="14.00">0.03 MB</text>
</g>
<!-- orgao&#45;&gt;unidade_orgao -->
<g id="edge46" class="edge">
<title>orgao&#45;&gt;unidade_orgao</title>
<path fill="none" stroke="black" d="M900.7,-713.28C936.7,-696.38 995.06,-668.97 1038.95,-648.36"/>
<polygon fill="black" stroke="black" points="1040.27,-651.61 1047.84,-644.19 1037.3,-645.27 1040.27,-651.61"/>
<text text-anchor="middle" x="1032.52" y="-669.7" font-family="Times New Roman,serif" font-size="14.00">FK_ORGAO</text>
</g>
<!-- orgao&#45;&gt;user -->
<g id="edge47" class="edge">
<title>orgao&#45;&gt;user</title>
<path fill="none" stroke="black" d="M900.9,-723.24C941.83,-716 1013.35,-701.96 1072.75,-683 1182.23,-648.06 1210.64,-636 1306.75,-573 1326.67,-559.94 1335.5,-558.93 1347.75,-538.5 1373.41,-495.7 1378.79,-437.33 1379.17,-399.1"/>
<polygon fill="black" stroke="black" points="1382.67,-399.43 1379.15,-389.44 1375.67,-399.45 1382.67,-399.43"/>
<text text-anchor="middle" x="1357.04" y="-559.7" font-family="Times New Roman,serif" font-size="14.00">fk_orgao</text>
</g>
<!-- projeto_lotacao -->
<g id="node29" class="node">
<title>projeto_lotacao</title>
<polygon fill="none" stroke="black" points="1147.75,-463 1047.75,-463 1047.75,-405.5 1147.75,-405.5 1147.75,-463"/>
<text text-anchor="middle" x="1097.75" y="-445.7" font-family="Times New Roman,serif" font-size="14.00">projeto_lotacao</text>
<text text-anchor="middle" x="1097.75" y="-429.2" font-family="Times New Roman,serif" font-size="14.00">400 rows</text>
<text text-anchor="middle" x="1097.75" y="-412.7" font-family="Times New Roman,serif" font-size="14.00">0.08 MB</text>
</g>
<!-- projeto_lotacao&#45;&gt;distribuicao_item -->
<g id="edge19" class="edge">
<title>projeto_lotacao&#45;&gt;distribuicao_item</title>
<path fill="none" stroke="black" d="M1047.34,-413.61C961.88,-380.32 788.57,-312.79 693.26,-275.66"/>
<polygon fill="black" stroke="black" points="694.6,-272.43 684.01,-272.06 692.06,-278.95 694.6,-272.43"/>
<text text-anchor="middle" x="1054.74" y="-353.7" font-family="Times New Roman,serif" font-size="14.00">FK_PROJETO_LOTACAO</text>
</g>
<!-- solicitacao_despesa -->
<g id="node31" class="node">
<title>solicitacao_despesa</title>
<polygon fill="none" stroke="black" points="1313,-277.5 1190.5,-277.5 1190.5,-220 1313,-220 1313,-277.5"/>
<text text-anchor="middle" x="1251.75" y="-260.2" font-family="Times New Roman,serif" font-size="14.00">solicitacao_despesa</text>
<text text-anchor="middle" x="1251.75" y="-243.7" font-family="Times New Roman,serif" font-size="14.00">87 rows</text>
<text text-anchor="middle" x="1251.75" y="-227.2" font-family="Times New Roman,serif" font-size="14.00">0.05 MB</text>
</g>
<!-- solicitacao_despesa&#45;&gt;item_solicitacao -->
<g id="edge29" class="edge">
<title>solicitacao_despesa&#45;&gt;item_solicitacao</title>
<path fill="none" stroke="black" d="M1236.4,-219.66C1229.37,-206.78 1220.93,-191.33 1213.35,-177.46"/>
<polygon fill="black" stroke="black" points="1216.61,-176.13 1208.75,-169.03 1210.47,-179.49 1216.61,-176.13"/>
<text text-anchor="middle" x="1282.41" y="-188.7" font-family="Times New Roman,serif" font-size="14.00">FK_SOLICITACAO</text>
</g>
<!-- unidade_item&#45;&gt;item -->
<g id="edge25" class="edge">
<title>unidade_item&#45;&gt;item</title>
<path fill="none" stroke="black" d="M786.24,-590.69C783.3,-579.93 781.73,-567.58 784.75,-556.5 785.42,-554.04 786.26,-551.58 787.23,-549.15"/>
<polygon fill="black" stroke="black" points="790.39,-550.65 791.48,-540.11 784.06,-547.67 790.39,-550.65"/>
<text text-anchor="middle" x="847.75" y="-559.7" font-family="Times New Roman,serif" font-size="14.00">FK_UNIDADE_ITEM</text>
</g>
<!-- unidade_orgao&#45;&gt;lotacao -->
<g id="edge32" class="edge">
<title>unidade_orgao&#45;&gt;lotacao</title>
<path fill="none" stroke="black" d="M1145.93,-594.43C1159.48,-587.54 1174.21,-580.01 1187.75,-573 1212.52,-560.17 1240.1,-545.64 1262.36,-533.84"/>
<polygon fill="black" stroke="black" points="1263.97,-536.95 1271.17,-529.17 1260.69,-530.76 1263.97,-536.95"/>
<text text-anchor="middle" x="1259.71" y="-559.7" font-family="Times New Roman,serif" font-size="14.00">FK_UNIDADE</text>
</g>
<!-- unidade_orgao&#45;&gt;projeto_lotacao -->
<g id="edge41" class="edge">
<title>unidade_orgao&#45;&gt;projeto_lotacao</title>
<path fill="none" stroke="black" d="M1097.75,-590.88C1097.75,-559.89 1097.75,-509.61 1097.75,-474.61"/>
<polygon fill="black" stroke="black" points="1101.25,-474.9 1097.75,-464.9 1094.25,-474.9 1101.25,-474.9"/>
<text text-anchor="middle" x="1140.5" y="-559.7" font-family="Times New Roman,serif" font-size="14.00">FK_UNIDADE</text>
</g>
<!-- user&#45;&gt;aprovador_has_lotacao -->
<g id="edge5" class="edge">
<title>user&#45;&gt;aprovador_has_lotacao</title>
<path fill="none" stroke="black" d="M1411.14,-350.16C1443.03,-342.39 1492.13,-329.04 1532.75,-312 1551.96,-303.94 1572.11,-293.45 1589.93,-283.38"/>
<polygon fill="black" stroke="black" points="1591.33,-286.61 1598.26,-278.6 1587.85,-280.54 1591.33,-286.61"/>
<text text-anchor="middle" x="1617.81" y="-298.7" font-family="Times New Roman,serif" font-size="14.00">FK_APROVADOR</text>
</g>
<!-- user&#45;&gt;auth_assignment -->
<g id="edge8" class="edge">
<title>user&#45;&gt;auth_assignment</title>
<path fill="none" stroke="black" d="M1411.17,-356.4C1467.11,-353.31 1582.64,-343.36 1674.75,-312 1695.51,-304.93 1716.92,-294.17 1735.44,-283.56"/>
<polygon fill="black" stroke="black" points="1736.97,-286.73 1743.82,-278.65 1733.43,-280.69 1736.97,-286.73"/>
<text text-anchor="middle" x="1730.42" y="-298.7" font-family="Times New Roman,serif" font-size="14.00">user_id</text>
</g>
<!-- user&#45;&gt;cotacao -->
<g id="edge18" class="edge">
<title>user&#45;&gt;cotacao</title>
<path fill="none" stroke="black" d="M1344.33,-357.3C1271.18,-355.65 1099.99,-347.94 1056.75,-312 1049.66,-306.1 1044.95,-297.72 1041.83,-289.01"/>
<polygon fill="black" stroke="black" points="1045.2,-288.07 1039.08,-279.42 1038.47,-290 1045.2,-288.07"/>
<text text-anchor="middle" x="1098.75" y="-298.7" font-family="Times New Roman,serif" font-size="14.00">FK_USUARIO</text>
</g>
<!-- user&#45;&gt;solicitacao_despesa -->
<g id="edge43" class="edge">
<title>user&#45;&gt;solicitacao_despesa</title>
<path fill="none" stroke="black" d="M1344.35,-356.61C1312.86,-353.54 1267.23,-343.51 1244.75,-312 1240.03,-305.38 1238.66,-297.32 1239.09,-289.22"/>
<polygon fill="black" stroke="black" points="1242.55,-289.79 1240.52,-279.39 1235.62,-288.79 1242.55,-289.79"/>
<text text-anchor="middle" x="1300.25" y="-298.7" font-family="Times New Roman,serif" font-size="14.00">FK_SOLICITANTE</text>
</g>
<!-- user&#45;&gt;solicitacao_despesa -->
<g id="edge44" class="edge">
<title>user&#45;&gt;solicitacao_despesa</title>
<path fill="none" stroke="black" d="M1372.99,-329.75C1369.78,-318 1364.48,-304.91 1355.75,-295.5 1346.79,-285.84 1335.42,-278.11 1323.52,-271.95"/>
<polygon fill="black" stroke="black" points="1325.33,-268.94 1314.8,-267.8 1322.32,-275.26 1325.33,-268.94"/>
<text text-anchor="middle" x="1419.74" y="-298.7" font-family="Times New Roman,serif" font-size="14.00">FK_APROVADOR</text>
</g>
<!-- user_visit_log -->
<g id="node35" class="node">
<title>user_visit_log</title>
<polygon fill="none" stroke="black" points="1554,-277.5 1461.5,-277.5 1461.5,-220 1554,-220 1554,-277.5"/>
<text text-anchor="middle" x="1507.75" y="-260.2" font-family="Times New Roman,serif" font-size="14.00">user_visit_log</text>
<text text-anchor="middle" x="1507.75" y="-243.7" font-family="Times New Roman,serif" font-size="14.00">10.864 rows</text>
<text text-anchor="middle" x="1507.75" y="-227.2" font-family="Times New Roman,serif" font-size="14.00">2.78 MB</text>
</g>
<!-- user&#45;&gt;user_visit_log -->
<g id="edge49" class="edge">
<title>user&#45;&gt;user_visit_log</title>
<path fill="none" stroke="black" d="M1411.37,-348.53C1432.28,-341.38 1458.55,-329.68 1476.75,-312 1483.65,-305.3 1489.25,-296.75 1493.7,-288.14"/>
<polygon fill="black" stroke="black" points="1496.86,-289.65 1497.93,-279.11 1490.52,-286.69 1496.86,-289.65"/>
<text text-anchor="middle" x="1509.37" y="-298.7" font-family="Times New Roman,serif" font-size="14.00">user_id</text>
</g>
</g>
</svg>
