<?xml version="1.0" encoding="UTF-8" standalone="no"?>
<!DOCTYPE svg PUBLIC "-//W3C//DTD SVG 1.1//EN"
 "http://www.w3.org/Graphics/SVG/1.1/DTD/svg11.dtd">
<!-- Generated by graphviz version 12.2.1 (20241206.2353)
 -->
<!-- Pages: 1 -->
<svg width="1187pt" height="500pt"
 viewBox="0.00 0.00 1186.76 499.50" xmlns="http://www.w3.org/2000/svg" xmlns:xlink="http://www.w3.org/1999/xlink">
<g id="graph0" class="graph" transform="scale(1 1) rotate(0) translate(4 495.5)">
<polygon fill="white" stroke="none" points="-4,4 -4,-495.5 1182.76,-495.5 1182.76,4 -4,4"/>
<g id="clust1" class="cluster">
<title>cluster_logging</title>
<polygon fill="none" stroke="black" points="294,-407 294,-483.5 560,-483.5 560,-407 294,-407"/>
<text text-anchor="middle" x="427" y="-466.2" font-family="Times New Roman,serif" font-size="14.00">logging</text>
</g>
<g id="clust2" class="cluster">
<title>cluster_authentication</title>
<polygon fill="none" stroke="black" points="8,-8 8,-284 475,-284 475,-8 8,-8"/>
<text text-anchor="middle" x="241.5" y="-266.7" font-family="Times New Roman,serif" font-size="14.00">authentication</text>
</g>
<g id="clust3" class="cluster">
<title>cluster_business</title>
<polygon fill="none" stroke="black" points="854,-8 854,-483.5 1170,-483.5 1170,-8 854,-8"/>
<text text-anchor="middle" x="1012" y="-466.2" font-family="Times New Roman,serif" font-size="14.00">business</text>
</g>
<g id="clust4" class="cluster">
<title>cluster_relationship</title>
<polygon fill="none" stroke="black" points="483,-96.5 483,-173 846,-173 846,-96.5 483,-96.5"/>
<text text-anchor="middle" x="664.5" y="-155.7" font-family="Times New Roman,serif" font-size="14.00">relationship</text>
</g>
<!-- audit_trail_entry -->
<g id="node1" class="node">
<title>audit_trail_entry</title>
<ellipse fill="none" stroke="black" cx="374" cy="-433" rx="72.34" ry="18"/>
<text text-anchor="middle" x="374" y="-427.95" font-family="Times New Roman,serif" font-size="14.00">audit_trail_entry</text>
</g>
<!-- dam_log -->
<g id="node2" class="node">
<title>dam_log</title>
<ellipse fill="none" stroke="black" cx="508" cy="-433" rx="43.67" ry="18"/>
<text text-anchor="middle" x="508" y="-427.95" font-family="Times New Roman,serif" font-size="14.00">dam_log</text>
</g>
<!-- auth_assignment -->
<g id="node3" class="node">
<title>auth_assignment</title>
<ellipse fill="none" stroke="black" cx="250" cy="-34" rx="73.36" ry="18"/>
<text text-anchor="middle" x="250" y="-28.95" font-family="Times New Roman,serif" font-size="14.00">auth_assignment</text>
</g>
<!-- auth_item -->
<g id="node4" class="node">
<title>auth_item</title>
<ellipse fill="none" stroke="black" cx="137" cy="-122.5" rx="48.28" ry="18"/>
<text text-anchor="middle" x="137" y="-117.45" font-family="Times New Roman,serif" font-size="14.00">auth_item</text>
</g>
<!-- auth_item&#45;&gt;auth_assignment -->
<g id="edge1" class="edge">
<title>auth_item&#45;&gt;auth_assignment</title>
<path fill="none" stroke="black" d="M157.46,-105.84C174.81,-92.55 199.94,-73.32 219.64,-58.24"/>
<polygon fill="black" stroke="black" points="221.52,-61.21 227.33,-52.35 217.27,-55.65 221.52,-61.21"/>
<text text-anchor="middle" x="234.37" y="-73.2" font-family="Times New Roman,serif" font-size="14.00">item_name</text>
</g>
<!-- auth_item_child -->
<g id="node5" class="node">
<title>auth_item_child</title>
<ellipse fill="none" stroke="black" cx="87" cy="-34" rx="71.31" ry="18"/>
<text text-anchor="middle" x="87" y="-28.95" font-family="Times New Roman,serif" font-size="14.00">auth_item_child</text>
</g>
<!-- auth_item&#45;&gt;auth_item_child -->
<g id="edge5" class="edge">
<title>auth_item&#45;&gt;auth_item_child</title>
<path fill="none" stroke="black" d="M130.97,-104.24C127.06,-93.96 121.49,-80.85 115,-70 113.12,-66.86 110.99,-63.7 108.76,-60.62"/>
<polygon fill="black" stroke="black" points="111.74,-58.75 102.86,-52.97 106.19,-63.02 111.74,-58.75"/>
<text text-anchor="middle" x="140.38" y="-73.2" font-family="Times New Roman,serif" font-size="14.00">parent</text>
</g>
<!-- auth_item&#45;&gt;auth_item_child -->
<g id="edge6" class="edge">
<title>auth_item&#45;&gt;auth_item_child</title>
<path fill="none" stroke="black" d="M106.37,-108.33C97.54,-102.92 88.96,-95.73 84,-86.5 80.28,-79.59 79.46,-71.37 79.99,-63.55"/>
<polygon fill="black" stroke="black" points="83.44,-64.11 81.41,-53.71 76.52,-63.11 83.44,-64.11"/>
<text text-anchor="middle" x="97.5" y="-73.2" font-family="Times New Roman,serif" font-size="14.00">child</text>
</g>
<!-- auth_item_group -->
<g id="node6" class="node">
<title>auth_item_group</title>
<ellipse fill="none" stroke="black" cx="102" cy="-233.5" rx="74.38" ry="18"/>
<text text-anchor="middle" x="102" y="-228.45" font-family="Times New Roman,serif" font-size="14.00">auth_item_group</text>
</g>
<!-- auth_item_group&#45;&gt;auth_item -->
<g id="edge4" class="edge">
<title>auth_item_group&#45;&gt;auth_item</title>
<path fill="none" stroke="black" d="M107.47,-215.47C112.96,-198.37 121.51,-171.74 128,-151.52"/>
<polygon fill="black" stroke="black" points="131.27,-152.8 130.99,-142.21 124.6,-150.66 131.27,-152.8"/>
<text text-anchor="middle" x="150.33" y="-184.2" font-family="Times New Roman,serif" font-size="14.00">group_code</text>
</g>
<!-- auth_rule -->
<g id="node7" class="node">
<title>auth_rule</title>
<ellipse fill="none" stroke="black" cx="240" cy="-233.5" rx="45.72" ry="18"/>
<text text-anchor="middle" x="240" y="-228.45" font-family="Times New Roman,serif" font-size="14.00">auth_rule</text>
</g>
<!-- auth_rule&#45;&gt;auth_item -->
<g id="edge3" class="edge">
<title>auth_rule&#45;&gt;auth_item</title>
<path fill="none" stroke="black" d="M224.8,-216.42C207.78,-198.41 180.01,-169.01 160.26,-148.11"/>
<polygon fill="black" stroke="black" points="163.05,-145.97 153.64,-141.11 157.96,-150.78 163.05,-145.97"/>
<text text-anchor="middle" x="235.56" y="-184.2" font-family="Times New Roman,serif" font-size="14.00">rule_name</text>
</g>
<!-- user -->
<g id="node8" class="node">
<title>user</title>
<ellipse fill="none" stroke="black" cx="404" cy="-122.5" rx="27" ry="18"/>
<text text-anchor="middle" x="404" y="-117.45" font-family="Times New Roman,serif" font-size="14.00">user</text>
</g>
<!-- user&#45;&gt;auth_assignment -->
<g id="edge2" class="edge">
<title>user&#45;&gt;auth_assignment</title>
<path fill="none" stroke="black" d="M383.87,-110.19C359.69,-96.61 318.63,-73.55 288.34,-56.53"/>
<polygon fill="black" stroke="black" points="290.27,-53.61 279.84,-51.76 286.85,-59.71 290.27,-53.61"/>
<text text-anchor="middle" x="360.67" y="-73.2" font-family="Times New Roman,serif" font-size="14.00">user_id</text>
</g>
<!-- user_visit_log -->
<g id="node9" class="node">
<title>user_visit_log</title>
<ellipse fill="none" stroke="black" cx="404" cy="-34" rx="63.12" ry="18"/>
<text text-anchor="middle" x="404" y="-28.95" font-family="Times New Roman,serif" font-size="14.00">user_visit_log</text>
</g>
<!-- user&#45;&gt;user_visit_log -->
<g id="edge18" class="edge">
<title>user&#45;&gt;user_visit_log</title>
<path fill="none" stroke="black" d="M404,-104.41C404,-92.76 404,-77.05 404,-63.52"/>
<polygon fill="black" stroke="black" points="407.5,-63.86 404,-53.86 400.5,-63.86 407.5,-63.86"/>
<text text-anchor="middle" x="423.88" y="-73.2" font-family="Times New Roman,serif" font-size="14.00">user_id</text>
</g>
<!-- cidade -->
<g id="node10" class="node">
<title>cidade</title>
<ellipse fill="none" stroke="black" cx="992" cy="-344.5" rx="34.97" ry="18"/>
<text text-anchor="middle" x="992" y="-339.45" font-family="Times New Roman,serif" font-size="14.00">cidade</text>
</g>
<!-- entidade -->
<g id="node14" class="node">
<title>entidade</title>
<ellipse fill="none" stroke="black" cx="992" cy="-233.5" rx="42.14" ry="18"/>
<text text-anchor="middle" x="992" y="-228.45" font-family="Times New Roman,serif" font-size="14.00">entidade</text>
</g>
<!-- cidade&#45;&gt;entidade -->
<g id="edge15" class="edge">
<title>cidade&#45;&gt;entidade</title>
<path fill="none" stroke="black" d="M992,-326.47C992,-309.53 992,-283.23 992,-263.09"/>
<polygon fill="black" stroke="black" points="995.5,-263.28 992,-253.28 988.5,-263.28 995.5,-263.28"/>
<text text-anchor="middle" x="1018.62" y="-295.2" font-family="Times New Roman,serif" font-size="14.00">fk_cidade</text>
</g>
<!-- cnd -->
<g id="node11" class="node">
<title>cnd</title>
<ellipse fill="none" stroke="black" cx="1079" cy="-34" rx="27" ry="18"/>
<text text-anchor="middle" x="1079" y="-28.95" font-family="Times New Roman,serif" font-size="14.00">cnd</text>
</g>
<!-- contribuinte -->
<g id="node12" class="node">
<title>contribuinte</title>
<ellipse fill="none" stroke="black" cx="1107" cy="-122.5" rx="55.45" ry="18"/>
<text text-anchor="middle" x="1107" y="-117.45" font-family="Times New Roman,serif" font-size="14.00">contribuinte</text>
</g>
<!-- contribuinte&#45;&gt;cnd -->
<g id="edge8" class="edge">
<title>contribuinte&#45;&gt;cnd</title>
<path fill="none" stroke="black" d="M1101.47,-104.41C1097.63,-92.56 1092.44,-76.52 1088.01,-62.84"/>
<polygon fill="black" stroke="black" points="1091.4,-61.93 1084.99,-53.49 1084.74,-64.09 1091.4,-61.93"/>
<text text-anchor="middle" x="1137.13" y="-73.2" font-family="Times New Roman,serif" font-size="14.00">fk_contribuinte</text>
</g>
<!-- dam -->
<g id="node13" class="node">
<title>dam</title>
<ellipse fill="none" stroke="black" cx="889" cy="-34" rx="27.3" ry="18"/>
<text text-anchor="middle" x="889" y="-28.95" font-family="Times New Roman,serif" font-size="14.00">dam</text>
</g>
<!-- contribuinte&#45;&gt;dam -->
<g id="edge11" class="edge">
<title>contribuinte&#45;&gt;dam</title>
<path fill="none" stroke="black" d="M1073.53,-107.76C1063.48,-103.87 1052.37,-99.8 1042,-96.5 1024.85,-91.04 1019.74,-92.46 1002.75,-86.5 974.09,-76.45 942.74,-61.98 920.22,-50.93"/>
<polygon fill="black" stroke="black" points="921.8,-47.81 911.28,-46.5 918.68,-54.08 921.8,-47.81"/>
<text text-anchor="middle" x="1044.38" y="-73.2" font-family="Times New Roman,serif" font-size="14.00">fk_contribuinte</text>
</g>
<!-- entidade&#45;&gt;user -->
<g id="edge17" class="edge">
<title>entidade&#45;&gt;user</title>
<path fill="none" stroke="black" d="M950.09,-230.15C843.72,-223.78 565.56,-204.54 479,-173 460.9,-166.4 442.81,-154.65 428.93,-144.25"/>
<polygon fill="black" stroke="black" points="431.28,-141.65 421.24,-138.28 426.99,-147.18 431.28,-141.65"/>
<text text-anchor="middle" x="617.74" y="-184.2" font-family="Times New Roman,serif" font-size="14.00">fk_entidade</text>
</g>
<!-- entidade&#45;&gt;contribuinte -->
<g id="edge9" class="edge">
<title>entidade&#45;&gt;contribuinte</title>
<path fill="none" stroke="black" d="M1022.94,-220.79C1035.4,-215.05 1049.31,-207.26 1060,-197.5 1074.43,-184.32 1086.2,-165.75 1094.36,-150.51"/>
<polygon fill="black" stroke="black" points="1097.3,-152.45 1098.73,-141.95 1091.07,-149.27 1097.3,-152.45"/>
<text text-anchor="middle" x="1106.34" y="-184.2" font-family="Times New Roman,serif" font-size="14.00">fk_entidade</text>
</g>
<!-- requests -->
<g id="node18" class="node">
<title>requests</title>
<ellipse fill="none" stroke="black" cx="992" cy="-122.5" rx="41.12" ry="18"/>
<text text-anchor="middle" x="992" y="-117.45" font-family="Times New Roman,serif" font-size="14.00">requests</text>
</g>
<!-- entidade&#45;&gt;requests -->
<g id="edge16" class="edge">
<title>entidade&#45;&gt;requests</title>
<path fill="none" stroke="black" d="M992,-215.47C992,-198.53 992,-172.23 992,-152.09"/>
<polygon fill="black" stroke="black" points="995.5,-152.28 992,-142.28 988.5,-152.28 995.5,-152.28"/>
<text text-anchor="middle" x="1023.88" y="-184.2" font-family="Times New Roman,serif" font-size="14.00">fk_entidade</text>
</g>
<!-- estado -->
<g id="node15" class="node">
<title>estado</title>
<ellipse fill="none" stroke="black" cx="992" cy="-433" rx="34.46" ry="18"/>
<text text-anchor="middle" x="992" y="-427.95" font-family="Times New Roman,serif" font-size="14.00">estado</text>
</g>
<!-- estado&#45;&gt;cidade -->
<g id="edge7" class="edge">
<title>estado&#45;&gt;cidade</title>
<path fill="none" stroke="black" d="M992,-414.91C992,-403.26 992,-387.55 992,-374.02"/>
<polygon fill="black" stroke="black" points="995.5,-374.36 992,-364.36 988.5,-374.36 995.5,-374.36"/>
<text text-anchor="middle" x="1018.25" y="-383.7" font-family="Times New Roman,serif" font-size="14.00">fk_estado</text>
</g>
<!-- migration -->
<g id="node16" class="node">
<title>migration</title>
<ellipse fill="none" stroke="black" cx="1103" cy="-433" rx="47.26" ry="18"/>
<text text-anchor="middle" x="1103" y="-427.95" font-family="Times New Roman,serif" font-size="14.00">migration</text>
</g>
<!-- receita -->
<g id="node17" class="node">
<title>receita</title>
<ellipse fill="none" stroke="black" cx="897" cy="-122.5" rx="35.49" ry="18"/>
<text text-anchor="middle" x="897" y="-117.45" font-family="Times New Roman,serif" font-size="14.00">receita</text>
</g>
<!-- receita&#45;&gt;dam -->
<g id="edge10" class="edge">
<title>receita&#45;&gt;dam</title>
<path fill="none" stroke="black" d="M895.42,-104.41C894.34,-92.76 892.89,-77.05 891.64,-63.52"/>
<polygon fill="black" stroke="black" points="895.15,-63.49 890.74,-53.86 888.18,-64.14 895.15,-63.49"/>
<text text-anchor="middle" x="920.72" y="-73.2" font-family="Times New Roman,serif" font-size="14.00">fk_receita</text>
</g>
<!-- dados_iptu -->
<g id="node19" class="node">
<title>dados_iptu</title>
<ellipse fill="none" stroke="black" cx="542" cy="-122.5" rx="51.35" ry="18"/>
<text text-anchor="middle" x="542" y="-117.45" font-family="Times New Roman,serif" font-size="14.00">dados_iptu</text>
</g>
<!-- dados_iptu&#45;&gt;dam -->
<g id="edge14" class="edge">
<title>dados_iptu&#45;&gt;dam</title>
<path fill="none" stroke="black" d="M558.81,-105.18C572.07,-93.34 591.63,-78.06 611.75,-70 654.26,-52.98 784.8,-42.03 850.46,-37.45"/>
<polygon fill="black" stroke="black" points="850.67,-40.95 860.41,-36.78 850.2,-33.96 850.67,-40.95"/>
<text text-anchor="middle" x="650.38" y="-73.2" font-family="Times New Roman,serif" font-size="14.00">fk_dados_iptu</text>
</g>
<!-- dados_tlf -->
<g id="node20" class="node">
<title>dados_tlf</title>
<ellipse fill="none" stroke="black" cx="657" cy="-122.5" rx="45.21" ry="18"/>
<text text-anchor="middle" x="657" y="-117.45" font-family="Times New Roman,serif" font-size="14.00">dados_tlf</text>
</g>
<!-- dados_tlf&#45;&gt;dam -->
<g id="edge13" class="edge">
<title>dados_tlf&#45;&gt;dam</title>
<path fill="none" stroke="black" d="M671.61,-105.05C682.82,-93.47 699.29,-78.56 716.75,-70 759.64,-48.97 814.49,-40.57 850.64,-37.22"/>
<polygon fill="black" stroke="black" points="850.49,-40.74 860.17,-36.42 849.91,-33.77 850.49,-40.74"/>
<text text-anchor="middle" x="750.88" y="-73.2" font-family="Times New Roman,serif" font-size="14.00">fk_dados_tlf</text>
</g>
<!-- valores_dam -->
<g id="node21" class="node">
<title>valores_dam</title>
<ellipse fill="none" stroke="black" cx="779" cy="-122.5" rx="58.52" ry="18"/>
<text text-anchor="middle" x="779" y="-117.45" font-family="Times New Roman,serif" font-size="14.00">valores_dam</text>
</g>
<!-- valores_dam&#45;&gt;dam -->
<g id="edge12" class="edge">
<title>valores_dam&#45;&gt;dam</title>
<path fill="none" stroke="black" d="M782.45,-104.24C785.46,-93.19 790.88,-79.23 800.25,-70 814.19,-56.27 834.16,-47.76 851.63,-42.58"/>
<polygon fill="black" stroke="black" points="852.44,-45.98 861.2,-40.02 850.63,-39.22 852.44,-45.98"/>
<text text-anchor="middle" x="844.12" y="-73.2" font-family="Times New Roman,serif" font-size="14.00">fk_valores_dam</text>
</g>
</g>
</svg>
