<?xml version="1.0" encoding="UTF-8" standalone="no"?>
<!DOCTYPE svg PUBLIC "-//W3C//DTD SVG 1.1//EN"
 "http://www.w3.org/Graphics/SVG/1.1/DTD/svg11.dtd">
<!-- Generated by graphviz version 12.2.1 (20241206.2353)
 -->
<!-- Pages: 1 -->
<svg width="7626pt" height="66pt"
 viewBox="0.00 0.00 7625.62 65.50" xmlns="http://www.w3.org/2000/svg" xmlns:xlink="http://www.w3.org/1999/xlink">
<g id="graph0" class="graph" transform="scale(1 1) rotate(0) translate(4 61.5)">
<polygon fill="white" stroke="none" points="-4,4 -4,-61.5 7621.62,-61.5 7621.62,4 -4,4"/>
<!-- wp_actionscheduler_actions -->
<g id="node1" class="node">
<title>wp_actionscheduler_actions</title>
<polygon fill="none" stroke="black" points="169,-57.5 0,-57.5 0,0 169,0 169,-57.5"/>
<text text-anchor="middle" x="84.5" y="-40.2" font-family="Times New Roman,serif" font-size="14.00">wp_actionscheduler_actions</text>
<text text-anchor="middle" x="84.5" y="-23.7" font-family="Times New Roman,serif" font-size="14.00">0 rows</text>
<text text-anchor="middle" x="84.5" y="-7.2" font-family="Times New Roman,serif" font-size="14.00">0.13 MB</text>
</g>
<!-- wp_actionscheduler_claims -->
<g id="node2" class="node">
<title>wp_actionscheduler_claims</title>
<polygon fill="none" stroke="black" points="353.88,-57.5 187.12,-57.5 187.12,0 353.88,0 353.88,-57.5"/>
<text text-anchor="middle" x="270.5" y="-40.2" font-family="Times New Roman,serif" font-size="14.00">wp_actionscheduler_claims</text>
<text text-anchor="middle" x="270.5" y="-23.7" font-family="Times New Roman,serif" font-size="14.00">0 rows</text>
<text text-anchor="middle" x="270.5" y="-7.2" font-family="Times New Roman,serif" font-size="14.00">0.03 MB</text>
</g>
<!-- wp_actionscheduler_groups -->
<g id="node3" class="node">
<title>wp_actionscheduler_groups</title>
<polygon fill="none" stroke="black" points="539.25,-57.5 371.75,-57.5 371.75,0 539.25,0 539.25,-57.5"/>
<text text-anchor="middle" x="455.5" y="-40.2" font-family="Times New Roman,serif" font-size="14.00">wp_actionscheduler_groups</text>
<text text-anchor="middle" x="455.5" y="-23.7" font-family="Times New Roman,serif" font-size="14.00">0 rows</text>
<text text-anchor="middle" x="455.5" y="-7.2" font-family="Times New Roman,serif" font-size="14.00">0.03 MB</text>
</g>
<!-- wp_actionscheduler_logs -->
<g id="node4" class="node">
<title>wp_actionscheduler_logs</title>
<polygon fill="none" stroke="black" points="710.12,-57.5 556.88,-57.5 556.88,0 710.12,0 710.12,-57.5"/>
<text text-anchor="middle" x="633.5" y="-40.2" font-family="Times New Roman,serif" font-size="14.00">wp_actionscheduler_logs</text>
<text text-anchor="middle" x="633.5" y="-23.7" font-family="Times New Roman,serif" font-size="14.00">0 rows</text>
<text text-anchor="middle" x="633.5" y="-7.2" font-family="Times New Roman,serif" font-size="14.00">0.05 MB</text>
</g>
<!-- wp_aiowps_events -->
<g id="node5" class="node">
<title>wp_aiowps_events</title>
<polygon fill="none" stroke="black" points="846.88,-57.5 728.12,-57.5 728.12,0 846.88,0 846.88,-57.5"/>
<text text-anchor="middle" x="787.5" y="-40.2" font-family="Times New Roman,serif" font-size="14.00">wp_aiowps_events</text>
<text text-anchor="middle" x="787.5" y="-23.7" font-family="Times New Roman,serif" font-size="14.00">0 rows</text>
<text text-anchor="middle" x="787.5" y="-7.2" font-family="Times New Roman,serif" font-size="14.00">0.00 MB</text>
</g>
<!-- wp_aiowps_failed_logins -->
<g id="node6" class="node">
<title>wp_aiowps_failed_logins</title>
<polygon fill="none" stroke="black" points="1019.88,-57.5 865.12,-57.5 865.12,0 1019.88,0 1019.88,-57.5"/>
<text text-anchor="middle" x="942.5" y="-40.2" font-family="Times New Roman,serif" font-size="14.00">wp_aiowps_failed_logins</text>
<text text-anchor="middle" x="942.5" y="-23.7" font-family="Times New Roman,serif" font-size="14.00">5.000 rows</text>
<text text-anchor="middle" x="942.5" y="-7.2" font-family="Times New Roman,serif" font-size="14.00">0.28 MB</text>
</g>
<!-- wp_aiowps_global_meta -->
<g id="node7" class="node">
<title>wp_aiowps_global_meta</title>
<polygon fill="none" stroke="black" points="1189.38,-57.5 1037.62,-57.5 1037.62,0 1189.38,0 1189.38,-57.5"/>
<text text-anchor="middle" x="1113.5" y="-40.2" font-family="Times New Roman,serif" font-size="14.00">wp_aiowps_global_meta</text>
<text text-anchor="middle" x="1113.5" y="-23.7" font-family="Times New Roman,serif" font-size="14.00">0 rows</text>
<text text-anchor="middle" x="1113.5" y="-7.2" font-family="Times New Roman,serif" font-size="14.00">0.00 MB</text>
</g>
<!-- wp_aiowps_login_activity -->
<g id="node8" class="node">
<title>wp_aiowps_login_activity</title>
<polygon fill="none" stroke="black" points="1367.12,-57.5 1207.88,-57.5 1207.88,0 1367.12,0 1367.12,-57.5"/>
<text text-anchor="middle" x="1287.5" y="-40.2" font-family="Times New Roman,serif" font-size="14.00">wp_aiowps_login_activity</text>
<text text-anchor="middle" x="1287.5" y="-23.7" font-family="Times New Roman,serif" font-size="14.00">16 rows</text>
<text text-anchor="middle" x="1287.5" y="-7.2" font-family="Times New Roman,serif" font-size="14.00">0.00 MB</text>
</g>
<!-- wp_aiowps_login_lockdown -->
<g id="node9" class="node">
<title>wp_aiowps_login_lockdown</title>
<polygon fill="none" stroke="black" points="1557.5,-57.5 1385.5,-57.5 1385.5,0 1557.5,0 1557.5,-57.5"/>
<text text-anchor="middle" x="1471.5" y="-40.2" font-family="Times New Roman,serif" font-size="14.00">wp_aiowps_login_lockdown</text>
<text text-anchor="middle" x="1471.5" y="-23.7" font-family="Times New Roman,serif" font-size="14.00">0 rows</text>
<text text-anchor="middle" x="1471.5" y="-7.2" font-family="Times New Roman,serif" font-size="14.00">0.00 MB</text>
</g>
<!-- wp_aiowps_permanent_block -->
<g id="node10" class="node">
<title>wp_aiowps_permanent_block</title>
<polygon fill="none" stroke="black" points="1753.88,-57.5 1575.12,-57.5 1575.12,0 1753.88,0 1753.88,-57.5"/>
<text text-anchor="middle" x="1664.5" y="-40.2" font-family="Times New Roman,serif" font-size="14.00">wp_aiowps_permanent_block</text>
<text text-anchor="middle" x="1664.5" y="-23.7" font-family="Times New Roman,serif" font-size="14.00">0 rows</text>
<text text-anchor="middle" x="1664.5" y="-7.2" font-family="Times New Roman,serif" font-size="14.00">0.00 MB</text>
</g>
<!-- wp_commentmeta -->
<g id="node11" class="node">
<title>wp_commentmeta</title>
<polygon fill="none" stroke="black" points="1889.5,-57.5 1771.5,-57.5 1771.5,0 1889.5,0 1889.5,-57.5"/>
<text text-anchor="middle" x="1830.5" y="-40.2" font-family="Times New Roman,serif" font-size="14.00">wp_commentmeta</text>
<text text-anchor="middle" x="1830.5" y="-23.7" font-family="Times New Roman,serif" font-size="14.00">0 rows</text>
<text text-anchor="middle" x="1830.5" y="-7.2" font-family="Times New Roman,serif" font-size="14.00">0.00 MB</text>
</g>
<!-- wp_comments -->
<g id="node12" class="node">
<title>wp_comments</title>
<polygon fill="none" stroke="black" points="2003.62,-57.5 1907.38,-57.5 1907.38,0 2003.62,0 2003.62,-57.5"/>
<text text-anchor="middle" x="1955.5" y="-40.2" font-family="Times New Roman,serif" font-size="14.00">wp_comments</text>
<text text-anchor="middle" x="1955.5" y="-23.7" font-family="Times New Roman,serif" font-size="14.00">0 rows</text>
<text text-anchor="middle" x="1955.5" y="-7.2" font-family="Times New Roman,serif" font-size="14.00">0.00 MB</text>
</g>
<!-- wp_formmaker -->
<g id="node13" class="node">
<title>wp_formmaker</title>
<polygon fill="none" stroke="black" points="2122.88,-57.5 2022.12,-57.5 2022.12,0 2122.88,0 2122.88,-57.5"/>
<text text-anchor="middle" x="2072.5" y="-40.2" font-family="Times New Roman,serif" font-size="14.00">wp_formmaker</text>
<text text-anchor="middle" x="2072.5" y="-23.7" font-family="Times New Roman,serif" font-size="14.00">9 rows</text>
<text text-anchor="middle" x="2072.5" y="-7.2" font-family="Times New Roman,serif" font-size="14.00">0.04 MB</text>
</g>
<!-- wp_formmaker_backup -->
<g id="node14" class="node">
<title>wp_formmaker_backup</title>
<polygon fill="none" stroke="black" points="2287.75,-57.5 2141.25,-57.5 2141.25,0 2287.75,0 2287.75,-57.5"/>
<text text-anchor="middle" x="2214.5" y="-40.2" font-family="Times New Roman,serif" font-size="14.00">wp_formmaker_backup</text>
<text text-anchor="middle" x="2214.5" y="-23.7" font-family="Times New Roman,serif" font-size="14.00">0 rows</text>
<text text-anchor="middle" x="2214.5" y="-7.2" font-family="Times New Roman,serif" font-size="14.00">0.02 MB</text>
</g>
<!-- wp_formmaker_blocked -->
<g id="node15" class="node">
<title>wp_formmaker_blocked</title>
<polygon fill="none" stroke="black" points="2455.62,-57.5 2305.38,-57.5 2305.38,0 2455.62,0 2455.62,-57.5"/>
<text text-anchor="middle" x="2380.5" y="-40.2" font-family="Times New Roman,serif" font-size="14.00">wp_formmaker_blocked</text>
<text text-anchor="middle" x="2380.5" y="-23.7" font-family="Times New Roman,serif" font-size="14.00">0 rows</text>
<text text-anchor="middle" x="2380.5" y="-7.2" font-family="Times New Roman,serif" font-size="14.00">0.02 MB</text>
</g>
<!-- wp_formmaker_query -->
<g id="node16" class="node">
<title>wp_formmaker_query</title>
<polygon fill="none" stroke="black" points="2611.62,-57.5 2473.38,-57.5 2473.38,0 2611.62,0 2611.62,-57.5"/>
<text text-anchor="middle" x="2542.5" y="-40.2" font-family="Times New Roman,serif" font-size="14.00">wp_formmaker_query</text>
<text text-anchor="middle" x="2542.5" y="-23.7" font-family="Times New Roman,serif" font-size="14.00">0 rows</text>
<text text-anchor="middle" x="2542.5" y="-7.2" font-family="Times New Roman,serif" font-size="14.00">0.02 MB</text>
</g>
<!-- wp_formmaker_sessions -->
<g id="node17" class="node">
<title>wp_formmaker_sessions</title>
<polygon fill="none" stroke="black" points="2781.38,-57.5 2629.62,-57.5 2629.62,0 2781.38,0 2781.38,-57.5"/>
<text text-anchor="middle" x="2705.5" y="-40.2" font-family="Times New Roman,serif" font-size="14.00">wp_formmaker_sessions</text>
<text text-anchor="middle" x="2705.5" y="-23.7" font-family="Times New Roman,serif" font-size="14.00">0 rows</text>
<text text-anchor="middle" x="2705.5" y="-7.2" font-family="Times New Roman,serif" font-size="14.00">0.00 MB</text>
</g>
<!-- wp_formmaker_submits -->
<g id="node18" class="node">
<title>wp_formmaker_submits</title>
<polygon fill="none" stroke="black" points="2949.62,-57.5 2799.38,-57.5 2799.38,0 2949.62,0 2949.62,-57.5"/>
<text text-anchor="middle" x="2874.5" y="-40.2" font-family="Times New Roman,serif" font-size="14.00">wp_formmaker_submits</text>
<text text-anchor="middle" x="2874.5" y="-23.7" font-family="Times New Roman,serif" font-size="14.00">0 rows</text>
<text text-anchor="middle" x="2874.5" y="-7.2" font-family="Times New Roman,serif" font-size="14.00">0.00 MB</text>
</g>
<!-- wp_formmaker_themes -->
<g id="node19" class="node">
<title>wp_formmaker_themes</title>
<polygon fill="none" stroke="black" points="3113.75,-57.5 2967.25,-57.5 2967.25,0 3113.75,0 3113.75,-57.5"/>
<text text-anchor="middle" x="3040.5" y="-40.2" font-family="Times New Roman,serif" font-size="14.00">wp_formmaker_themes</text>
<text text-anchor="middle" x="3040.5" y="-23.7" font-family="Times New Roman,serif" font-size="14.00">37 rows</text>
<text text-anchor="middle" x="3040.5" y="-7.2" font-family="Times New Roman,serif" font-size="14.00">0.56 MB</text>
</g>
<!-- wp_formmaker_views -->
<g id="node20" class="node">
<title>wp_formmaker_views</title>
<polygon fill="none" stroke="black" points="3271,-57.5 3132,-57.5 3132,0 3271,0 3271,-57.5"/>
<text text-anchor="middle" x="3201.5" y="-40.2" font-family="Times New Roman,serif" font-size="14.00">wp_formmaker_views</text>
<text text-anchor="middle" x="3201.5" y="-23.7" font-family="Times New Roman,serif" font-size="14.00">0 rows</text>
<text text-anchor="middle" x="3201.5" y="-7.2" font-family="Times New Roman,serif" font-size="14.00">0.00 MB</text>
</g>
<!-- wp_itsec_distributed_storage -->
<g id="node21" class="node">
<title>wp_itsec_distributed_storage</title>
<polygon fill="none" stroke="black" points="3463.62,-57.5 3289.38,-57.5 3289.38,0 3463.62,0 3463.62,-57.5"/>
<text text-anchor="middle" x="3376.5" y="-40.2" font-family="Times New Roman,serif" font-size="14.00">wp_itsec_distributed_storage</text>
<text text-anchor="middle" x="3376.5" y="-23.7" font-family="Times New Roman,serif" font-size="14.00">0 rows</text>
<text text-anchor="middle" x="3376.5" y="-7.2" font-family="Times New Roman,serif" font-size="14.00">0.00 MB</text>
</g>
<!-- wp_itsec_fingerprints -->
<g id="node22" class="node">
<title>wp_itsec_fingerprints</title>
<polygon fill="none" stroke="black" points="3615.38,-57.5 3481.62,-57.5 3481.62,0 3615.38,0 3615.38,-57.5"/>
<text text-anchor="middle" x="3548.5" y="-40.2" font-family="Times New Roman,serif" font-size="14.00">wp_itsec_fingerprints</text>
<text text-anchor="middle" x="3548.5" y="-23.7" font-family="Times New Roman,serif" font-size="14.00">0 rows</text>
<text text-anchor="middle" x="3548.5" y="-7.2" font-family="Times New Roman,serif" font-size="14.00">0.00 MB</text>
</g>
<!-- wp_itsec_geolocation_cache -->
<g id="node23" class="node">
<title>wp_itsec_geolocation_cache</title>
<polygon fill="none" stroke="black" points="3805.12,-57.5 3633.88,-57.5 3633.88,0 3805.12,0 3805.12,-57.5"/>
<text text-anchor="middle" x="3719.5" y="-40.2" font-family="Times New Roman,serif" font-size="14.00">wp_itsec_geolocation_cache</text>
<text text-anchor="middle" x="3719.5" y="-23.7" font-family="Times New Roman,serif" font-size="14.00">0 rows</text>
<text text-anchor="middle" x="3719.5" y="-7.2" font-family="Times New Roman,serif" font-size="14.00">0.00 MB</text>
</g>
<!-- wp_itsec_lockouts -->
<g id="node24" class="node">
<title>wp_itsec_lockouts</title>
<polygon fill="none" stroke="black" points="3939.75,-57.5 3823.25,-57.5 3823.25,0 3939.75,0 3939.75,-57.5"/>
<text text-anchor="middle" x="3881.5" y="-40.2" font-family="Times New Roman,serif" font-size="14.00">wp_itsec_lockouts</text>
<text text-anchor="middle" x="3881.5" y="-23.7" font-family="Times New Roman,serif" font-size="14.00">145 rows</text>
<text text-anchor="middle" x="3881.5" y="-7.2" font-family="Times New Roman,serif" font-size="14.00">0.07 MB</text>
</g>
<!-- wp_itsec_logs -->
<g id="node25" class="node">
<title>wp_itsec_logs</title>
<polygon fill="none" stroke="black" points="4051.12,-57.5 3957.88,-57.5 3957.88,0 4051.12,0 4051.12,-57.5"/>
<text text-anchor="middle" x="4004.5" y="-40.2" font-family="Times New Roman,serif" font-size="14.00">wp_itsec_logs</text>
<text text-anchor="middle" x="4004.5" y="-23.7" font-family="Times New Roman,serif" font-size="14.00">13.690 rows</text>
<text text-anchor="middle" x="4004.5" y="-7.2" font-family="Times New Roman,serif" font-size="14.00">127.81 MB</text>
</g>
<!-- wp_itsec_mutexes -->
<g id="node26" class="node">
<title>wp_itsec_mutexes</title>
<polygon fill="none" stroke="black" points="4185.75,-57.5 4069.25,-57.5 4069.25,0 4185.75,0 4185.75,-57.5"/>
<text text-anchor="middle" x="4127.5" y="-40.2" font-family="Times New Roman,serif" font-size="14.00">wp_itsec_mutexes</text>
<text text-anchor="middle" x="4127.5" y="-23.7" font-family="Times New Roman,serif" font-size="14.00">0 rows</text>
<text text-anchor="middle" x="4127.5" y="-7.2" font-family="Times New Roman,serif" font-size="14.00">0.03 MB</text>
</g>
<!-- wp_itsec_opaque_tokens -->
<g id="node27" class="node">
<title>wp_itsec_opaque_tokens</title>
<polygon fill="none" stroke="black" points="4355.38,-57.5 4203.62,-57.5 4203.62,0 4355.38,0 4355.38,-57.5"/>
<text text-anchor="middle" x="4279.5" y="-40.2" font-family="Times New Roman,serif" font-size="14.00">wp_itsec_opaque_tokens</text>
<text text-anchor="middle" x="4279.5" y="-23.7" font-family="Times New Roman,serif" font-size="14.00">0 rows</text>
<text text-anchor="middle" x="4279.5" y="-7.2" font-family="Times New Roman,serif" font-size="14.00">0.00 MB</text>
</g>
<!-- wp_itsec_temp -->
<g id="node28" class="node">
<title>wp_itsec_temp</title>
<polygon fill="none" stroke="black" points="4471.75,-57.5 4373.25,-57.5 4373.25,0 4471.75,0 4471.75,-57.5"/>
<text text-anchor="middle" x="4422.5" y="-40.2" font-family="Times New Roman,serif" font-size="14.00">wp_itsec_temp</text>
<text text-anchor="middle" x="4422.5" y="-23.7" font-family="Times New Roman,serif" font-size="14.00">17.202 rows</text>
<text text-anchor="middle" x="4422.5" y="-7.2" font-family="Times New Roman,serif" font-size="14.00">1.84 MB</text>
</g>
<!-- wp_itsec_user_groups -->
<g id="node29" class="node">
<title>wp_itsec_user_groups</title>
<polygon fill="none" stroke="black" points="4626.88,-57.5 4490.12,-57.5 4490.12,0 4626.88,0 4626.88,-57.5"/>
<text text-anchor="middle" x="4558.5" y="-40.2" font-family="Times New Roman,serif" font-size="14.00">wp_itsec_user_groups</text>
<text text-anchor="middle" x="4558.5" y="-23.7" font-family="Times New Roman,serif" font-size="14.00">5 rows</text>
<text text-anchor="middle" x="4558.5" y="-7.2" font-family="Times New Roman,serif" font-size="14.00">0.02 MB</text>
</g>
<!-- wp_links -->
<g id="node30" class="node">
<title>wp_links</title>
<polygon fill="none" stroke="black" points="4710.25,-57.5 4644.75,-57.5 4644.75,0 4710.25,0 4710.25,-57.5"/>
<text text-anchor="middle" x="4677.5" y="-40.2" font-family="Times New Roman,serif" font-size="14.00">wp_links</text>
<text text-anchor="middle" x="4677.5" y="-23.7" font-family="Times New Roman,serif" font-size="14.00">0 rows</text>
<text text-anchor="middle" x="4677.5" y="-7.2" font-family="Times New Roman,serif" font-size="14.00">0.00 MB</text>
</g>
<!-- wp_options -->
<g id="node31" class="node">
<title>wp_options</title>
<polygon fill="none" stroke="black" points="4807,-57.5 4728,-57.5 4728,0 4807,0 4807,-57.5"/>
<text text-anchor="middle" x="4767.5" y="-40.2" font-family="Times New Roman,serif" font-size="14.00">wp_options</text>
<text text-anchor="middle" x="4767.5" y="-23.7" font-family="Times New Roman,serif" font-size="14.00">1.436 rows</text>
<text text-anchor="middle" x="4767.5" y="-7.2" font-family="Times New Roman,serif" font-size="14.00">2.36 MB</text>
</g>
<!-- wp_postmeta -->
<g id="node32" class="node">
<title>wp_postmeta</title>
<polygon fill="none" stroke="black" points="4913.88,-57.5 4825.12,-57.5 4825.12,0 4913.88,0 4913.88,-57.5"/>
<text text-anchor="middle" x="4869.5" y="-40.2" font-family="Times New Roman,serif" font-size="14.00">wp_postmeta</text>
<text text-anchor="middle" x="4869.5" y="-23.7" font-family="Times New Roman,serif" font-size="14.00">541 rows</text>
<text text-anchor="middle" x="4869.5" y="-7.2" font-family="Times New Roman,serif" font-size="14.00">0.08 MB</text>
</g>
<!-- wp_posts -->
<g id="node33" class="node">
<title>wp_posts</title>
<polygon fill="none" stroke="black" points="4999,-57.5 4932,-57.5 4932,0 4999,0 4999,-57.5"/>
<text text-anchor="middle" x="4965.5" y="-40.2" font-family="Times New Roman,serif" font-size="14.00">wp_posts</text>
<text text-anchor="middle" x="4965.5" y="-23.7" font-family="Times New Roman,serif" font-size="14.00">94 rows</text>
<text text-anchor="middle" x="4965.5" y="-7.2" font-family="Times New Roman,serif" font-size="14.00">0.05 MB</text>
</g>
<!-- wp_revslider_css -->
<g id="node34" class="node">
<title>wp_revslider_css</title>
<polygon fill="none" stroke="black" points="5126.38,-57.5 5016.62,-57.5 5016.62,0 5126.38,0 5126.38,-57.5"/>
<text text-anchor="middle" x="5071.5" y="-40.2" font-family="Times New Roman,serif" font-size="14.00">wp_revslider_css</text>
<text text-anchor="middle" x="5071.5" y="-23.7" font-family="Times New Roman,serif" font-size="14.00">109 rows</text>
<text text-anchor="middle" x="5071.5" y="-7.2" font-family="Times New Roman,serif" font-size="14.00">0.09 MB</text>
</g>
<!-- wp_revslider_layer_animations -->
<g id="node35" class="node">
<title>wp_revslider_layer_animations</title>
<polygon fill="none" stroke="black" points="5331,-57.5 5144,-57.5 5144,0 5331,0 5331,-57.5"/>
<text text-anchor="middle" x="5237.5" y="-40.2" font-family="Times New Roman,serif" font-size="14.00">wp_revslider_layer_animations</text>
<text text-anchor="middle" x="5237.5" y="-23.7" font-family="Times New Roman,serif" font-size="14.00">0 rows</text>
<text text-anchor="middle" x="5237.5" y="-7.2" font-family="Times New Roman,serif" font-size="14.00">0.00 MB</text>
</g>
<!-- wp_revslider_navigations -->
<g id="node36" class="node">
<title>wp_revslider_navigations</title>
<polygon fill="none" stroke="black" points="5504.25,-57.5 5348.75,-57.5 5348.75,0 5504.25,0 5504.25,-57.5"/>
<text text-anchor="middle" x="5426.5" y="-40.2" font-family="Times New Roman,serif" font-size="14.00">wp_revslider_navigations</text>
<text text-anchor="middle" x="5426.5" y="-23.7" font-family="Times New Roman,serif" font-size="14.00">0 rows</text>
<text text-anchor="middle" x="5426.5" y="-7.2" font-family="Times New Roman,serif" font-size="14.00">0.00 MB</text>
</g>
<!-- wp_revslider_sliders -->
<g id="node37" class="node">
<title>wp_revslider_sliders</title>
<polygon fill="none" stroke="black" points="5650.75,-57.5 5522.25,-57.5 5522.25,0 5650.75,0 5650.75,-57.5"/>
<text text-anchor="middle" x="5586.5" y="-40.2" font-family="Times New Roman,serif" font-size="14.00">wp_revslider_sliders</text>
<text text-anchor="middle" x="5586.5" y="-23.7" font-family="Times New Roman,serif" font-size="14.00">0 rows</text>
<text text-anchor="middle" x="5586.5" y="-7.2" font-family="Times New Roman,serif" font-size="14.00">0.00 MB</text>
</g>
<!-- wp_revslider_slides -->
<g id="node38" class="node">
<title>wp_revslider_slides</title>
<polygon fill="none" stroke="black" points="5792.5,-57.5 5668.5,-57.5 5668.5,0 5792.5,0 5792.5,-57.5"/>
<text text-anchor="middle" x="5730.5" y="-40.2" font-family="Times New Roman,serif" font-size="14.00">wp_revslider_slides</text>
<text text-anchor="middle" x="5730.5" y="-23.7" font-family="Times New Roman,serif" font-size="14.00">0 rows</text>
<text text-anchor="middle" x="5730.5" y="-7.2" font-family="Times New Roman,serif" font-size="14.00">0.00 MB</text>
</g>
<!-- wp_revslider_static_slides -->
<g id="node39" class="node">
<title>wp_revslider_static_slides</title>
<polygon fill="none" stroke="black" points="5970.12,-57.5 5810.88,-57.5 5810.88,0 5970.12,0 5970.12,-57.5"/>
<text text-anchor="middle" x="5890.5" y="-40.2" font-family="Times New Roman,serif" font-size="14.00">wp_revslider_static_slides</text>
<text text-anchor="middle" x="5890.5" y="-23.7" font-family="Times New Roman,serif" font-size="14.00">0 rows</text>
<text text-anchor="middle" x="5890.5" y="-7.2" font-family="Times New Roman,serif" font-size="14.00">0.00 MB</text>
</g>
<!-- wp_term_relationships -->
<g id="node40" class="node">
<title>wp_term_relationships</title>
<polygon fill="none" stroke="black" points="6128.75,-57.5 5988.25,-57.5 5988.25,0 6128.75,0 6128.75,-57.5"/>
<text text-anchor="middle" x="6058.5" y="-40.2" font-family="Times New Roman,serif" font-size="14.00">wp_term_relationships</text>
<text text-anchor="middle" x="6058.5" y="-23.7" font-family="Times New Roman,serif" font-size="14.00">28 rows</text>
<text text-anchor="middle" x="6058.5" y="-7.2" font-family="Times New Roman,serif" font-size="14.00">0.00 MB</text>
</g>
<!-- wp_term_taxonomy -->
<g id="node41" class="node">
<title>wp_term_taxonomy</title>
<polygon fill="none" stroke="black" points="6272.62,-57.5 6146.38,-57.5 6146.38,0 6272.62,0 6272.62,-57.5"/>
<text text-anchor="middle" x="6209.5" y="-40.2" font-family="Times New Roman,serif" font-size="14.00">wp_term_taxonomy</text>
<text text-anchor="middle" x="6209.5" y="-23.7" font-family="Times New Roman,serif" font-size="14.00">14 rows</text>
<text text-anchor="middle" x="6209.5" y="-7.2" font-family="Times New Roman,serif" font-size="14.00">0.00 MB</text>
</g>
<!-- wp_termmeta -->
<g id="node42" class="node">
<title>wp_termmeta</title>
<polygon fill="none" stroke="black" points="6382.38,-57.5 6290.62,-57.5 6290.62,0 6382.38,0 6382.38,-57.5"/>
<text text-anchor="middle" x="6336.5" y="-40.2" font-family="Times New Roman,serif" font-size="14.00">wp_termmeta</text>
<text text-anchor="middle" x="6336.5" y="-23.7" font-family="Times New Roman,serif" font-size="14.00">0 rows</text>
<text text-anchor="middle" x="6336.5" y="-7.2" font-family="Times New Roman,serif" font-size="14.00">0.00 MB</text>
</g>
<!-- wp_terms -->
<g id="node43" class="node">
<title>wp_terms</title>
<polygon fill="none" stroke="black" points="6470.5,-57.5 6400.5,-57.5 6400.5,0 6470.5,0 6470.5,-57.5"/>
<text text-anchor="middle" x="6435.5" y="-40.2" font-family="Times New Roman,serif" font-size="14.00">wp_terms</text>
<text text-anchor="middle" x="6435.5" y="-23.7" font-family="Times New Roman,serif" font-size="14.00">14 rows</text>
<text text-anchor="middle" x="6435.5" y="-7.2" font-family="Times New Roman,serif" font-size="14.00">0.01 MB</text>
</g>
<!-- wp_usermeta -->
<g id="node44" class="node">
<title>wp_usermeta</title>
<polygon fill="none" stroke="black" points="6576.88,-57.5 6488.12,-57.5 6488.12,0 6576.88,0 6576.88,-57.5"/>
<text text-anchor="middle" x="6532.5" y="-40.2" font-family="Times New Roman,serif" font-size="14.00">wp_usermeta</text>
<text text-anchor="middle" x="6532.5" y="-23.7" font-family="Times New Roman,serif" font-size="14.00">134 rows</text>
<text text-anchor="middle" x="6532.5" y="-7.2" font-family="Times New Roman,serif" font-size="14.00">0.03 MB</text>
</g>
<!-- wp_users -->
<g id="node45" class="node">
<title>wp_users</title>
<polygon fill="none" stroke="black" points="6662,-57.5 6595,-57.5 6595,0 6662,0 6662,-57.5"/>
<text text-anchor="middle" x="6628.5" y="-40.2" font-family="Times New Roman,serif" font-size="14.00">wp_users</text>
<text text-anchor="middle" x="6628.5" y="-23.7" font-family="Times New Roman,serif" font-size="14.00">3 rows</text>
<text text-anchor="middle" x="6628.5" y="-7.2" font-family="Times New Roman,serif" font-size="14.00">0.01 MB</text>
</g>
<!-- wp_yoast_indexable -->
<g id="node46" class="node">
<title>wp_yoast_indexable</title>
<polygon fill="none" stroke="black" points="6807,-57.5 6680,-57.5 6680,0 6807,0 6807,-57.5"/>
<text text-anchor="middle" x="6743.5" y="-40.2" font-family="Times New Roman,serif" font-size="14.00">wp_yoast_indexable</text>
<text text-anchor="middle" x="6743.5" y="-23.7" font-family="Times New Roman,serif" font-size="14.00">84 rows</text>
<text text-anchor="middle" x="6743.5" y="-7.2" font-family="Times New Roman,serif" font-size="14.00">0.14 MB</text>
</g>
<!-- wp_yoast_indexable_hierarchy -->
<g id="node47" class="node">
<title>wp_yoast_indexable_hierarchy</title>
<polygon fill="none" stroke="black" points="7009.88,-57.5 6825.12,-57.5 6825.12,0 7009.88,0 7009.88,-57.5"/>
<text text-anchor="middle" x="6917.5" y="-40.2" font-family="Times New Roman,serif" font-size="14.00">wp_yoast_indexable_hierarchy</text>
<text text-anchor="middle" x="6917.5" y="-23.7" font-family="Times New Roman,serif" font-size="14.00">0 rows</text>
<text text-anchor="middle" x="6917.5" y="-7.2" font-family="Times New Roman,serif" font-size="14.00">0.06 MB</text>
</g>
<!-- wp_yoast_migrations -->
<g id="node48" class="node">
<title>wp_yoast_migrations</title>
<polygon fill="none" stroke="black" points="7161,-57.5 7028,-57.5 7028,0 7161,0 7161,-57.5"/>
<text text-anchor="middle" x="7094.5" y="-40.2" font-family="Times New Roman,serif" font-size="14.00">wp_yoast_migrations</text>
<text text-anchor="middle" x="7094.5" y="-23.7" font-family="Times New Roman,serif" font-size="14.00">18 rows</text>
<text text-anchor="middle" x="7094.5" y="-7.2" font-family="Times New Roman,serif" font-size="14.00">0.03 MB</text>
</g>
<!-- wp_yoast_primary_term -->
<g id="node49" class="node">
<title>wp_yoast_primary_term</title>
<polygon fill="none" stroke="black" points="7329.62,-57.5 7179.38,-57.5 7179.38,0 7329.62,0 7329.62,-57.5"/>
<text text-anchor="middle" x="7254.5" y="-40.2" font-family="Times New Roman,serif" font-size="14.00">wp_yoast_primary_term</text>
<text text-anchor="middle" x="7254.5" y="-23.7" font-family="Times New Roman,serif" font-size="14.00">11 rows</text>
<text text-anchor="middle" x="7254.5" y="-7.2" font-family="Times New Roman,serif" font-size="14.00">0.05 MB</text>
</g>
<!-- wp_yoast_seo_links -->
<g id="node50" class="node">
<title>wp_yoast_seo_links</title>
<polygon fill="none" stroke="black" points="7473.25,-57.5 7347.75,-57.5 7347.75,0 7473.25,0 7473.25,-57.5"/>
<text text-anchor="middle" x="7410.5" y="-40.2" font-family="Times New Roman,serif" font-size="14.00">wp_yoast_seo_links</text>
<text text-anchor="middle" x="7410.5" y="-23.7" font-family="Times New Roman,serif" font-size="14.00">0 rows</text>
<text text-anchor="middle" x="7410.5" y="-7.2" font-family="Times New Roman,serif" font-size="14.00">0.00 MB</text>
</g>
<!-- wp_yoast_seo_meta -->
<g id="node51" class="node">
<title>wp_yoast_seo_meta</title>
<polygon fill="none" stroke="black" points="7617.62,-57.5 7491.38,-57.5 7491.38,0 7617.62,0 7617.62,-57.5"/>
<text text-anchor="middle" x="7554.5" y="-40.2" font-family="Times New Roman,serif" font-size="14.00">wp_yoast_seo_meta</text>
<text text-anchor="middle" x="7554.5" y="-23.7" font-family="Times New Roman,serif" font-size="14.00">57 rows</text>
<text text-anchor="middle" x="7554.5" y="-7.2" font-family="Times New Roman,serif" font-size="14.00">0.00 MB</text>
</g>
</g>
</svg>
