<?xml version="1.0" encoding="UTF-8" standalone="no"?>
<!DOCTYPE svg PUBLIC "-//W3C//DTD SVG 1.1//EN"
 "http://www.w3.org/Graphics/SVG/1.1/DTD/svg11.dtd">
<!-- Generated by graphviz version 12.2.1 (20241206.2353)
 -->
<!-- Title: DataFlow Pages: 1 -->
<svg width="944pt" height="2733pt"
 viewBox="0.00 0.00 943.60 2732.50" xmlns="http://www.w3.org/2000/svg" xmlns:xlink="http://www.w3.org/1999/xlink">
<g id="graph0" class="graph" transform="scale(1 1) rotate(0) translate(36 2696.5)">
<title>DataFlow</title>
<text text-anchor="middle" x="435.8" y="-2622.3" font-family="Arial" font-size="16.00">Fluxo de Dados por Categoria</text>
<text text-anchor="middle" x="435.8" y="-2603.55" font-family="Arial" font-size="16.00">Banco de Dados: db_almoxarifado</text>
<g id="clust1" class="cluster">
<title>cluster_business</title>
<path fill="#f5b7b1" stroke="#aaaaaa" stroke-width="1.5" d="M375.75,-8C375.75,-8 526.15,-8 526.15,-8 532.15,-8 538.15,-14 538.15,-20 538.15,-20 538.15,-1458 538.15,-1458 538.15,-1464 532.15,-1470 526.15,-1470 526.15,-1470 375.75,-1470 375.75,-1470 369.75,-1470 363.75,-1464 363.75,-1458 363.75,-1458 363.75,-20 363.75,-20 363.75,-14 369.75,-8 375.75,-8"/>
<text text-anchor="middle" x="450.95" y="-1454.6" font-family="Arial Bold" font-size="12.00">💼 Entidades de Negócio</text>
</g>
<g id="clust2" class="cluster">
<title>cluster_relationship</title>
<path fill="#a9dfbf" stroke="#aaaaaa" stroke-width="1.5" d="M20,-781C20,-781 195.25,-781 195.25,-781 201.25,-781 207.25,-787 207.25,-793 207.25,-793 207.25,-2461 207.25,-2461 207.25,-2467 201.25,-2473 195.25,-2473 195.25,-2473 20,-2473 20,-2473 14,-2473 8,-2467 8,-2461 8,-2461 8,-793 8,-793 8,-787 14,-781 20,-781"/>
<text text-anchor="middle" x="107.62" y="-2457.6" font-family="Arial Bold" font-size="12.00">🔗 Relacionamentos / Junções</text>
</g>
<g id="clust3" class="cluster">
<title>cluster_logging</title>
<path fill="#fad7a0" stroke="#aaaaaa" stroke-width="1.5" d="M32.42,-2506C32.42,-2506 182.83,-2506 182.83,-2506 188.83,-2506 194.83,-2512 194.83,-2518 194.83,-2518 194.83,-2576 194.83,-2576 194.83,-2582 188.83,-2588 182.83,-2588 182.83,-2588 32.42,-2588 32.42,-2588 26.42,-2588 20.42,-2582 20.42,-2576 20.42,-2576 20.42,-2518 20.42,-2518 20.42,-2512 26.42,-2506 32.42,-2506"/>
<text text-anchor="middle" x="107.62" y="-2572.6" font-family="Arial Bold" font-size="12.00">📊 Logs &amp; Auditoria</text>
</g>
<g id="clust4" class="cluster">
<title>cluster_authentication</title>
<path fill="#aed6f1" stroke="#aaaaaa" stroke-width="1.5" d="M699.9,-894C699.9,-894 853.9,-894 853.9,-894 859.9,-894 865.9,-900 865.9,-906 865.9,-906 865.9,-1769 865.9,-1769 865.9,-1775 859.9,-1781 853.9,-1781 853.9,-1781 699.9,-1781 699.9,-1781 693.9,-1781 687.9,-1775 687.9,-1769 687.9,-1769 687.9,-906 687.9,-906 687.9,-900 693.9,-894 699.9,-894"/>
<text text-anchor="middle" x="776.9" y="-1765.6" font-family="Arial Bold" font-size="12.00">🔐 Autenticação &amp; Usuários</text>
</g>
<g id="clust5" class="cluster">
<title>cluster_configuration</title>
<path fill="#d5dbdb" stroke="#aaaaaa" stroke-width="1.5" d="M32.42,-238C32.42,-238 182.83,-238 182.83,-238 188.83,-238 194.83,-244 194.83,-250 194.83,-250 194.83,-308 194.83,-308 194.83,-314 188.83,-320 182.83,-320 182.83,-320 32.42,-320 32.42,-320 26.42,-320 20.42,-314 20.42,-308 20.42,-308 20.42,-250 20.42,-250 20.42,-244 26.42,-238 32.42,-238"/>
<text text-anchor="middle" x="107.62" y="-304.6" font-family="Arial Bold" font-size="12.00">⚙️ Configuração &amp; Sistema</text>
</g>
<!-- almoxarifado -->
<g id="node1" class="node">
<title>almoxarifado</title>
<path fill="white" stroke="black" d="M518.15,-59.6C518.15,-59.6 383.75,-59.6 383.75,-59.6 377.75,-59.6 371.75,-53.6 371.75,-47.6 371.75,-47.6 371.75,-28.4 371.75,-28.4 371.75,-22.4 377.75,-16.4 383.75,-16.4 383.75,-16.4 518.15,-16.4 518.15,-16.4 524.15,-16.4 530.15,-22.4 530.15,-28.4 530.15,-28.4 530.15,-47.6 530.15,-47.6 530.15,-53.6 524.15,-59.6 518.15,-59.6"/>
<text text-anchor="start" x="423.2" y="-39.5" font-family="Arial" font-size="10.00">almoxarifado</text>
<text text-anchor="start" x="396.95" y="-29.5" font-family="Arial" font-size="10.00"> </text>
<text text-anchor="start" x="399.95" y="-29.5" font-family="Arial" font-size="9.00">Linhas: 109 | Tam: 0.1 MB</text>
</g>
<!-- cidade -->
<g id="node2" class="node">
<title>cidade</title>
<path fill="white" stroke="black" d="M518.15,-174.6C518.15,-174.6 383.75,-174.6 383.75,-174.6 377.75,-174.6 371.75,-168.6 371.75,-162.6 371.75,-162.6 371.75,-143.4 371.75,-143.4 371.75,-137.4 377.75,-131.4 383.75,-131.4 383.75,-131.4 518.15,-131.4 518.15,-131.4 524.15,-131.4 530.15,-137.4 530.15,-143.4 530.15,-143.4 530.15,-162.6 530.15,-162.6 530.15,-168.6 524.15,-174.6 518.15,-174.6"/>
<text text-anchor="start" x="436.7" y="-154.5" font-family="Arial" font-size="10.00">cidade</text>
<text text-anchor="start" x="393.2" y="-144.5" font-family="Arial" font-size="10.00"> </text>
<text text-anchor="start" x="396.2" y="-144.5" font-family="Arial" font-size="9.00">Linhas: 5.571 | Tam: 0.4 MB</text>
</g>
<!-- entidade -->
<g id="node3" class="node">
<title>entidade</title>
<path fill="white" stroke="black" d="M518.15,-289.6C518.15,-289.6 383.75,-289.6 383.75,-289.6 377.75,-289.6 371.75,-283.6 371.75,-277.6 371.75,-277.6 371.75,-258.4 371.75,-258.4 371.75,-252.4 377.75,-246.4 383.75,-246.4 383.75,-246.4 518.15,-246.4 518.15,-246.4 524.15,-246.4 530.15,-252.4 530.15,-258.4 530.15,-258.4 530.15,-277.6 530.15,-277.6 530.15,-283.6 524.15,-289.6 518.15,-289.6"/>
<text text-anchor="start" x="432.58" y="-269.5" font-family="Arial" font-size="10.00">entidade</text>
<text text-anchor="start" x="399.58" y="-259.5" font-family="Arial" font-size="10.00"> </text>
<text text-anchor="start" x="402.58" y="-259.5" font-family="Arial" font-size="9.00">Linhas: 24 | Tam: 0.1 MB</text>
</g>
<!-- estado -->
<g id="node4" class="node">
<title>estado</title>
<path fill="white" stroke="black" d="M518.15,-404.6C518.15,-404.6 383.75,-404.6 383.75,-404.6 377.75,-404.6 371.75,-398.6 371.75,-392.6 371.75,-392.6 371.75,-373.4 371.75,-373.4 371.75,-367.4 377.75,-361.4 383.75,-361.4 383.75,-361.4 518.15,-361.4 518.15,-361.4 524.15,-361.4 530.15,-367.4 530.15,-373.4 530.15,-373.4 530.15,-392.6 530.15,-392.6 530.15,-398.6 524.15,-404.6 518.15,-404.6"/>
<text text-anchor="start" x="436.33" y="-384.5" font-family="Arial" font-size="10.00">estado</text>
<text text-anchor="start" x="399.58" y="-374.5" font-family="Arial" font-size="10.00"> </text>
<text text-anchor="start" x="402.58" y="-374.5" font-family="Arial" font-size="9.00">Linhas: 27 | Tam: 0.0 MB</text>
</g>
<!-- fornecedor -->
<g id="node5" class="node">
<title>fornecedor</title>
<path fill="white" stroke="black" d="M518.15,-519.6C518.15,-519.6 383.75,-519.6 383.75,-519.6 377.75,-519.6 371.75,-513.6 371.75,-507.6 371.75,-507.6 371.75,-488.4 371.75,-488.4 371.75,-482.4 377.75,-476.4 383.75,-476.4 383.75,-476.4 518.15,-476.4 518.15,-476.4 524.15,-476.4 530.15,-482.4 530.15,-488.4 530.15,-488.4 530.15,-507.6 530.15,-507.6 530.15,-513.6 524.15,-519.6 518.15,-519.6"/>
<text text-anchor="start" x="428.08" y="-499.5" font-family="Arial" font-size="10.00">fornecedor</text>
<text text-anchor="start" x="396.95" y="-489.5" font-family="Arial" font-size="10.00"> </text>
<text text-anchor="start" x="399.95" y="-489.5" font-family="Arial" font-size="9.00">Linhas: 540 | Tam: 0.2 MB</text>
</g>
<!-- inventario -->
<g id="node6" class="node">
<title>inventario</title>
<path fill="white" stroke="black" d="M518.15,-634.6C518.15,-634.6 383.75,-634.6 383.75,-634.6 377.75,-634.6 371.75,-628.6 371.75,-622.6 371.75,-622.6 371.75,-603.4 371.75,-603.4 371.75,-597.4 377.75,-591.4 383.75,-591.4 383.75,-591.4 518.15,-591.4 518.15,-591.4 524.15,-591.4 530.15,-597.4 530.15,-603.4 530.15,-603.4 530.15,-622.6 530.15,-622.6 530.15,-628.6 524.15,-634.6 518.15,-634.6"/>
<text text-anchor="start" x="429.95" y="-614.5" font-family="Arial" font-size="10.00">inventario</text>
<text text-anchor="start" x="399.58" y="-604.5" font-family="Arial" font-size="10.00"> </text>
<text text-anchor="start" x="402.58" y="-604.5" font-family="Arial" font-size="9.00">Linhas: 36 | Tam: 0.1 MB</text>
</g>
<!-- lotacao -->
<g id="node7" class="node">
<title>lotacao</title>
<path fill="white" stroke="black" d="M518.15,-749.6C518.15,-749.6 383.75,-749.6 383.75,-749.6 377.75,-749.6 371.75,-743.6 371.75,-737.6 371.75,-737.6 371.75,-718.4 371.75,-718.4 371.75,-712.4 377.75,-706.4 383.75,-706.4 383.75,-706.4 518.15,-706.4 518.15,-706.4 524.15,-706.4 530.15,-712.4 530.15,-718.4 530.15,-718.4 530.15,-737.6 530.15,-737.6 530.15,-743.6 524.15,-749.6 518.15,-749.6"/>
<text text-anchor="start" x="435.2" y="-729.5" font-family="Arial" font-size="10.00">lotacao</text>
<text text-anchor="start" x="396.95" y="-719.5" font-family="Arial" font-size="10.00"> </text>
<text text-anchor="start" x="399.95" y="-719.5" font-family="Arial" font-size="9.00">Linhas: 232 | Tam: 0.0 MB</text>
</g>
<!-- lote -->
<g id="node8" class="node">
<title>lote</title>
<path fill="white" stroke="black" d="M518.15,-864.6C518.15,-864.6 383.75,-864.6 383.75,-864.6 377.75,-864.6 371.75,-858.6 371.75,-852.6 371.75,-852.6 371.75,-833.4 371.75,-833.4 371.75,-827.4 377.75,-821.4 383.75,-821.4 383.75,-821.4 518.15,-821.4 518.15,-821.4 524.15,-821.4 530.15,-827.4 530.15,-833.4 530.15,-833.4 530.15,-852.6 530.15,-852.6 530.15,-858.6 524.15,-864.6 518.15,-864.6"/>
<text text-anchor="start" x="443.08" y="-844.5" font-family="Arial" font-size="10.00">lote</text>
<text text-anchor="start" x="393.2" y="-834.5" font-family="Arial" font-size="10.00"> </text>
<text text-anchor="start" x="396.2" y="-834.5" font-family="Arial" font-size="9.00">Linhas: 4.279 | Tam: 1.6 MB</text>
</g>
<!-- migration -->
<g id="node9" class="node">
<title>migration</title>
<path fill="white" stroke="black" d="M518.15,-979.6C518.15,-979.6 383.75,-979.6 383.75,-979.6 377.75,-979.6 371.75,-973.6 371.75,-967.6 371.75,-967.6 371.75,-948.4 371.75,-948.4 371.75,-942.4 377.75,-936.4 383.75,-936.4 383.75,-936.4 518.15,-936.4 518.15,-936.4 524.15,-936.4 530.15,-942.4 530.15,-948.4 530.15,-948.4 530.15,-967.6 530.15,-967.6 530.15,-973.6 524.15,-979.6 518.15,-979.6"/>
<text text-anchor="start" x="431.08" y="-959.5" font-family="Arial" font-size="10.00">migration</text>
<text text-anchor="start" x="399.58" y="-949.5" font-family="Arial" font-size="10.00"> </text>
<text text-anchor="start" x="402.58" y="-949.5" font-family="Arial" font-size="9.00">Linhas: 19 | Tam: 0.0 MB</text>
</g>
<!-- operacao -->
<g id="node10" class="node">
<title>operacao</title>
<path fill="white" stroke="black" d="M518.15,-1094.6C518.15,-1094.6 383.75,-1094.6 383.75,-1094.6 377.75,-1094.6 371.75,-1088.6 371.75,-1082.6 371.75,-1082.6 371.75,-1063.4 371.75,-1063.4 371.75,-1057.4 377.75,-1051.4 383.75,-1051.4 383.75,-1051.4 518.15,-1051.4 518.15,-1051.4 524.15,-1051.4 530.15,-1057.4 530.15,-1063.4 530.15,-1063.4 530.15,-1082.6 530.15,-1082.6 530.15,-1088.6 524.15,-1094.6 518.15,-1094.6"/>
<text text-anchor="start" x="431.08" y="-1074.5" font-family="Arial" font-size="10.00">operacao</text>
<text text-anchor="start" x="396.95" y="-1064.5" font-family="Arial" font-size="10.00"> </text>
<text text-anchor="start" x="399.95" y="-1064.5" font-family="Arial" font-size="9.00">Linhas: 333 | Tam: 0.1 MB</text>
</g>
<!-- produto -->
<g id="node11" class="node">
<title>produto</title>
<path fill="white" stroke="black" d="M518.15,-1209.6C518.15,-1209.6 383.75,-1209.6 383.75,-1209.6 377.75,-1209.6 371.75,-1203.6 371.75,-1197.6 371.75,-1197.6 371.75,-1178.4 371.75,-1178.4 371.75,-1172.4 377.75,-1166.4 383.75,-1166.4 383.75,-1166.4 518.15,-1166.4 518.15,-1166.4 524.15,-1166.4 530.15,-1172.4 530.15,-1178.4 530.15,-1178.4 530.15,-1197.6 530.15,-1197.6 530.15,-1203.6 524.15,-1209.6 518.15,-1209.6"/>
<text text-anchor="start" x="434.83" y="-1189.5" font-family="Arial" font-size="10.00">produto</text>
<text text-anchor="start" x="390.95" y="-1179.5" font-family="Arial" font-size="10.00"> </text>
<text text-anchor="start" x="393.95" y="-1179.5" font-family="Arial" font-size="9.00">Linhas: 11.559 | Tam: 1.9 MB</text>
</g>
<!-- requisicao -->
<g id="node12" class="node">
<title>requisicao</title>
<path fill="white" stroke="black" d="M518.15,-1324.6C518.15,-1324.6 383.75,-1324.6 383.75,-1324.6 377.75,-1324.6 371.75,-1318.6 371.75,-1312.6 371.75,-1312.6 371.75,-1293.4 371.75,-1293.4 371.75,-1287.4 377.75,-1281.4 383.75,-1281.4 383.75,-1281.4 518.15,-1281.4 518.15,-1281.4 524.15,-1281.4 530.15,-1287.4 530.15,-1293.4 530.15,-1293.4 530.15,-1312.6 530.15,-1312.6 530.15,-1318.6 524.15,-1324.6 518.15,-1324.6"/>
<text text-anchor="start" x="428.83" y="-1304.5" font-family="Arial" font-size="10.00">requisicao</text>
<text text-anchor="start" x="390.58" y="-1294.5" font-family="Arial" font-size="10.00"> </text>
<text text-anchor="start" x="393.58" y="-1294.5" font-family="Arial" font-size="9.00">Linhas: 18.429 | Tam: 4.8 MB</text>
</g>
<!-- user -->
<g id="node35" class="node">
<title>user</title>
<path fill="white" stroke="black" d="M843.6,-1520.6C843.6,-1520.6 709.2,-1520.6 709.2,-1520.6 703.2,-1520.6 697.2,-1514.6 697.2,-1508.6 697.2,-1508.6 697.2,-1489.4 697.2,-1489.4 697.2,-1483.4 703.2,-1477.4 709.2,-1477.4 709.2,-1477.4 843.6,-1477.4 843.6,-1477.4 849.6,-1477.4 855.6,-1483.4 855.6,-1489.4 855.6,-1489.4 855.6,-1508.6 855.6,-1508.6 855.6,-1514.6 849.6,-1520.6 843.6,-1520.6"/>
<text text-anchor="start" x="767.02" y="-1500.5" font-family="Arial" font-size="10.00">user</text>
<text text-anchor="start" x="722.4" y="-1490.5" font-family="Arial" font-size="10.00"> </text>
<text text-anchor="start" x="725.4" y="-1490.5" font-family="Arial" font-size="9.00">Linhas: 297 | Tam: 0.1 MB</text>
</g>
<!-- requisicao&#45;&gt;user -->
<g id="edge3" class="edge">
<title>requisicao&#45;&gt;user</title>
<path fill="none" stroke="#6c757d" stroke-width="1.5" stroke-dasharray="5,2" d="M538.15,-1355.23C581.26,-1381.36 633.62,-1413.08 678.16,-1440.08"/>
<polygon fill="#6c757d" stroke="#6c757d" stroke-width="1.5" points="686.34,-1445.03 675.45,-1443.7 683.5,-1443.6 677.66,-1440.06 677.79,-1439.85 677.92,-1439.64 683.75,-1443.17 680.12,-1436 686.34,-1445.03"/>
<text text-anchor="middle" x="613.02" y="-1410.08" font-family="Times New Roman,serif" font-size="14.00" fill="#6c757d"> &#160;7 &#160;</text>
</g>
<!-- secretaria -->
<g id="node13" class="node">
<title>secretaria</title>
<path fill="white" stroke="black" d="M518.15,-1439.6C518.15,-1439.6 383.75,-1439.6 383.75,-1439.6 377.75,-1439.6 371.75,-1433.6 371.75,-1427.6 371.75,-1427.6 371.75,-1408.4 371.75,-1408.4 371.75,-1402.4 377.75,-1396.4 383.75,-1396.4 383.75,-1396.4 518.15,-1396.4 518.15,-1396.4 524.15,-1396.4 530.15,-1402.4 530.15,-1408.4 530.15,-1408.4 530.15,-1427.6 530.15,-1427.6 530.15,-1433.6 524.15,-1439.6 518.15,-1439.6"/>
<text text-anchor="start" x="429.58" y="-1419.5" font-family="Arial" font-size="10.00">secretaria</text>
<text text-anchor="start" x="399.58" y="-1409.5" font-family="Arial" font-size="10.00"> </text>
<text text-anchor="start" x="402.58" y="-1409.5" font-family="Arial" font-size="9.00">Linhas: 61 | Tam: 0.0 MB</text>
</g>
<!-- almoxarife_has_almoxarifado -->
<g id="node14" class="node">
<title>almoxarife_has_almoxarifado</title>
<path fill="white" stroke="black" d="M174.82,-1292.6C174.82,-1292.6 40.43,-1292.6 40.43,-1292.6 34.43,-1292.6 28.42,-1286.6 28.42,-1280.6 28.42,-1280.6 28.42,-1261.4 28.42,-1261.4 28.42,-1255.4 34.42,-1249.4 40.42,-1249.4 40.42,-1249.4 174.82,-1249.4 174.82,-1249.4 180.82,-1249.4 186.82,-1255.4 186.82,-1261.4 186.82,-1261.4 186.82,-1280.6 186.82,-1280.6 186.82,-1286.6 180.82,-1292.6 174.82,-1292.6"/>
<text text-anchor="start" x="44.25" y="-1272.5" font-family="Arial" font-size="10.00">almoxarife_has_almoxarifado</text>
<text text-anchor="start" x="53.62" y="-1262.5" font-family="Arial" font-size="10.00"> </text>
<text text-anchor="start" x="56.62" y="-1262.5" font-family="Arial" font-size="9.00">Linhas: 297 | Tam: 0.1 MB</text>
</g>
<!-- almoxarife_has_almoxarifado&#45;&gt;user -->
<g id="edge1" class="edge">
<title>almoxarife_has_almoxarifado&#45;&gt;user</title>
<path fill="none" stroke="#6c757d" stroke-width="1.5" stroke-dasharray="5,2" d="M207.25,-1328C285.82,-1389.01 272.58,-1448.2 363.75,-1488 466.95,-1533.05 599,-1526.83 685.32,-1515.37"/>
<polygon fill="#6c757d" stroke="#6c757d" stroke-width="1.5" points="686.12,-1515.18 677.42,-1521.86 683.09,-1516.15 676.45,-1517.72 676.39,-1517.48 676.33,-1517.24 682.98,-1515.67 675.36,-1513.1 686.12,-1515.18"/>
<text text-anchor="middle" x="450.95" y="-1526.16" font-family="Times New Roman,serif" font-size="14.00" fill="#6c757d"> &#160;4 &#160;</text>
</g>
<!-- aprovador_has_lotacao -->
<g id="node15" class="node">
<title>aprovador_has_lotacao</title>
<path fill="white" stroke="black" d="M174.82,-947.6C174.82,-947.6 40.43,-947.6 40.43,-947.6 34.43,-947.6 28.42,-941.6 28.42,-935.6 28.42,-935.6 28.42,-916.4 28.42,-916.4 28.42,-910.4 34.42,-904.4 40.42,-904.4 40.42,-904.4 174.82,-904.4 174.82,-904.4 180.82,-904.4 186.82,-910.4 186.82,-916.4 186.82,-916.4 186.82,-935.6 186.82,-935.6 186.82,-941.6 180.82,-947.6 174.82,-947.6"/>
<text text-anchor="start" x="57.38" y="-927.5" font-family="Arial" font-size="10.00">aprovador_has_lotacao</text>
<text text-anchor="start" x="49.88" y="-917.5" font-family="Arial" font-size="10.00"> </text>
<text text-anchor="start" x="52.88" y="-917.5" font-family="Arial" font-size="9.00">Linhas: 1.121 | Tam: 0.1 MB</text>
</g>
<!-- item_almoxarifado -->
<g id="node16" class="node">
<title>item_almoxarifado</title>
<path fill="white" stroke="black" d="M174.82,-1062.6C174.82,-1062.6 40.43,-1062.6 40.43,-1062.6 34.43,-1062.6 28.42,-1056.6 28.42,-1050.6 28.42,-1050.6 28.42,-1031.4 28.42,-1031.4 28.42,-1025.4 34.42,-1019.4 40.42,-1019.4 40.42,-1019.4 174.82,-1019.4 174.82,-1019.4 180.82,-1019.4 186.82,-1025.4 186.82,-1031.4 186.82,-1031.4 186.82,-1050.6 186.82,-1050.6 186.82,-1056.6 180.82,-1062.6 174.82,-1062.6"/>
<text text-anchor="start" x="67.88" y="-1042.5" font-family="Arial" font-size="10.00">item_almoxarifado</text>
<text text-anchor="start" x="47.25" y="-1032.5" font-family="Arial" font-size="10.00"> </text>
<text text-anchor="start" x="50.25" y="-1032.5" font-family="Arial" font-size="9.00">Linhas: 13.422 | Tam: 2.4 MB</text>
</g>
<!-- item_inventario -->
<g id="node17" class="node">
<title>item_inventario</title>
<path fill="white" stroke="black" d="M174.82,-1177.6C174.82,-1177.6 40.43,-1177.6 40.43,-1177.6 34.43,-1177.6 28.42,-1171.6 28.42,-1165.6 28.42,-1165.6 28.42,-1146.4 28.42,-1146.4 28.42,-1140.4 34.42,-1134.4 40.42,-1134.4 40.42,-1134.4 174.82,-1134.4 174.82,-1134.4 180.82,-1134.4 186.82,-1140.4 186.82,-1146.4 186.82,-1146.4 186.82,-1165.6 186.82,-1165.6 186.82,-1171.6 180.82,-1177.6 174.82,-1177.6"/>
<text text-anchor="start" x="74.62" y="-1157.5" font-family="Arial" font-size="10.00">item_inventario</text>
<text text-anchor="start" x="53.62" y="-1147.5" font-family="Arial" font-size="10.00"> </text>
<text text-anchor="start" x="56.62" y="-1147.5" font-family="Arial" font-size="9.00">Linhas: 161 | Tam: 0.1 MB</text>
</g>
<!-- item_movimentacao -->
<g id="node18" class="node">
<title>item_movimentacao</title>
<path fill="white" stroke="black" d="M174.82,-832.6C174.82,-832.6 40.43,-832.6 40.43,-832.6 34.43,-832.6 28.42,-826.6 28.42,-820.6 28.42,-820.6 28.42,-801.4 28.42,-801.4 28.42,-795.4 34.42,-789.4 40.42,-789.4 40.42,-789.4 174.82,-789.4 174.82,-789.4 180.82,-789.4 186.82,-795.4 186.82,-801.4 186.82,-801.4 186.82,-820.6 186.82,-820.6 186.82,-826.6 180.82,-832.6 174.82,-832.6"/>
<text text-anchor="start" x="63.75" y="-812.5" font-family="Arial" font-size="10.00">item_movimentacao</text>
<text text-anchor="start" x="42" y="-802.5" font-family="Arial" font-size="10.00"> </text>
<text text-anchor="start" x="45" y="-802.5" font-family="Arial" font-size="9.00">Linhas: 130.627 | Tam: 15.1 MB</text>
</g>
<!-- item_movimentacao&#45;&gt;fornecedor -->
<g id="edge2" class="edge">
<title>item_movimentacao&#45;&gt;fornecedor</title>
<path fill="none" stroke="#6c757d" stroke-width="1.5" stroke-dasharray="5,2" d="M134.82,-781C177.73,-732.72 267.04,-635.76 354.77,-562.43"/>
<polygon fill="#6c757d" stroke="#6c757d" stroke-width="1.5" points="362.34,-556.16 357.5,-566.01 360.06,-558.38 354.8,-562.73 354.64,-562.54 354.48,-562.35 359.74,-557.99 351.77,-559.07 362.34,-556.16"/>
<text text-anchor="middle" x="285.5" y="-637.66" font-family="Times New Roman,serif" font-size="14.00" fill="#6c757d"> &#160;30 &#160;</text>
</g>
<!-- item_requisicao_entrega -->
<g id="node19" class="node">
<title>item_requisicao_entrega</title>
<path fill="white" stroke="black" d="M174.82,-1407.6C174.82,-1407.6 40.43,-1407.6 40.43,-1407.6 34.43,-1407.6 28.42,-1401.6 28.42,-1395.6 28.42,-1395.6 28.42,-1376.4 28.42,-1376.4 28.42,-1370.4 34.42,-1364.4 40.42,-1364.4 40.42,-1364.4 174.82,-1364.4 174.82,-1364.4 180.82,-1364.4 186.82,-1370.4 186.82,-1376.4 186.82,-1376.4 186.82,-1395.6 186.82,-1395.6 186.82,-1401.6 180.82,-1407.6 174.82,-1407.6"/>
<text text-anchor="start" x="54.75" y="-1387.5" font-family="Arial" font-size="10.00">item_requisicao_entrega</text>
<text text-anchor="start" x="47.25" y="-1377.5" font-family="Arial" font-size="10.00"> </text>
<text text-anchor="start" x="50.25" y="-1377.5" font-family="Arial" font-size="9.00">Linhas: 47.058 | Tam: 5.5 MB</text>
</g>
<!-- item_requisicao_transferencia_entrega -->
<g id="node20" class="node">
<title>item_requisicao_transferencia_entrega</title>
<path fill="white" stroke="black" d="M187.25,-1522.6C187.25,-1522.6 28,-1522.6 28,-1522.6 22,-1522.6 16,-1516.6 16,-1510.6 16,-1510.6 16,-1491.4 16,-1491.4 16,-1485.4 22,-1479.4 28,-1479.4 28,-1479.4 187.25,-1479.4 187.25,-1479.4 193.25,-1479.4 199.25,-1485.4 199.25,-1491.4 199.25,-1491.4 199.25,-1510.6 199.25,-1510.6 199.25,-1516.6 193.25,-1522.6 187.25,-1522.6"/>
<text text-anchor="start" x="24" y="-1502.5" font-family="Arial" font-size="10.00">item_requisicao_transferencia_entrega</text>
<text text-anchor="start" x="49.88" y="-1492.5" font-family="Arial" font-size="10.00"> </text>
<text text-anchor="start" x="52.88" y="-1492.5" font-family="Arial" font-size="9.00">Linhas: 1.833 | Tam: 0.2 MB</text>
</g>
<!-- itens_requisicao -->
<g id="node21" class="node">
<title>itens_requisicao</title>
<path fill="white" stroke="black" d="M174.82,-1637.6C174.82,-1637.6 40.43,-1637.6 40.43,-1637.6 34.43,-1637.6 28.42,-1631.6 28.42,-1625.6 28.42,-1625.6 28.42,-1606.4 28.42,-1606.4 28.42,-1600.4 34.42,-1594.4 40.42,-1594.4 40.42,-1594.4 174.82,-1594.4 174.82,-1594.4 180.82,-1594.4 186.82,-1600.4 186.82,-1606.4 186.82,-1606.4 186.82,-1625.6 186.82,-1625.6 186.82,-1631.6 180.82,-1637.6 174.82,-1637.6"/>
<text text-anchor="start" x="72.38" y="-1617.5" font-family="Arial" font-size="10.00">itens_requisicao</text>
<text text-anchor="start" x="47.25" y="-1607.5" font-family="Arial" font-size="10.00"> </text>
<text text-anchor="start" x="50.25" y="-1607.5" font-family="Arial" font-size="9.00">Linhas: 49.699 | Tam: 6.5 MB</text>
</g>
<!-- itens_transferencia -->
<g id="node22" class="node">
<title>itens_transferencia</title>
<path fill="white" stroke="black" d="M174.82,-1752.6C174.82,-1752.6 40.43,-1752.6 40.43,-1752.6 34.43,-1752.6 28.42,-1746.6 28.42,-1740.6 28.42,-1740.6 28.42,-1721.4 28.42,-1721.4 28.42,-1715.4 34.42,-1709.4 40.42,-1709.4 40.42,-1709.4 174.82,-1709.4 174.82,-1709.4 180.82,-1709.4 186.82,-1715.4 186.82,-1721.4 186.82,-1721.4 186.82,-1740.6 186.82,-1740.6 186.82,-1746.6 180.82,-1752.6 174.82,-1752.6"/>
<text text-anchor="start" x="66.38" y="-1732.5" font-family="Arial" font-size="10.00">itens_transferencia</text>
<text text-anchor="start" x="49.88" y="-1722.5" font-family="Arial" font-size="10.00"> </text>
<text text-anchor="start" x="52.88" y="-1722.5" font-family="Arial" font-size="9.00">Linhas: 1.850 | Tam: 0.2 MB</text>
</g>
<!-- local_produto -->
<g id="node23" class="node">
<title>local_produto</title>
<path fill="white" stroke="black" d="M174.82,-1867.6C174.82,-1867.6 40.43,-1867.6 40.43,-1867.6 34.43,-1867.6 28.42,-1861.6 28.42,-1855.6 28.42,-1855.6 28.42,-1836.4 28.42,-1836.4 28.42,-1830.4 34.42,-1824.4 40.42,-1824.4 40.42,-1824.4 174.82,-1824.4 174.82,-1824.4 180.82,-1824.4 186.82,-1830.4 186.82,-1836.4 186.82,-1836.4 186.82,-1855.6 186.82,-1855.6 186.82,-1861.6 180.82,-1867.6 174.82,-1867.6"/>
<text text-anchor="start" x="78.75" y="-1847.5" font-family="Arial" font-size="10.00">local_produto</text>
<text text-anchor="start" x="49.88" y="-1837.5" font-family="Arial" font-size="10.00"> </text>
<text text-anchor="start" x="52.88" y="-1837.5" font-family="Arial" font-size="9.00">Linhas: 1.237 | Tam: 0.2 MB</text>
</g>
<!-- movimentacao_geral -->
<g id="node24" class="node">
<title>movimentacao_geral</title>
<path fill="white" stroke="black" d="M174.82,-1982.6C174.82,-1982.6 40.43,-1982.6 40.43,-1982.6 34.43,-1982.6 28.42,-1976.6 28.42,-1970.6 28.42,-1970.6 28.42,-1951.4 28.42,-1951.4 28.42,-1945.4 34.42,-1939.4 40.42,-1939.4 40.42,-1939.4 174.82,-1939.4 174.82,-1939.4 180.82,-1939.4 186.82,-1945.4 186.82,-1951.4 186.82,-1951.4 186.82,-1970.6 186.82,-1970.6 186.82,-1976.6 180.82,-1982.6 174.82,-1982.6"/>
<text text-anchor="start" x="62.62" y="-1962.5" font-family="Arial" font-size="10.00">movimentacao_geral</text>
<text text-anchor="start" x="47.25" y="-1952.5" font-family="Arial" font-size="10.00"> </text>
<text text-anchor="start" x="50.25" y="-1952.5" font-family="Arial" font-size="9.00">Linhas: 18.930 | Tam: 4.8 MB</text>
</g>
<!-- nota_fiscal -->
<g id="node25" class="node">
<title>nota_fiscal</title>
<path fill="white" stroke="black" d="M174.82,-2097.6C174.82,-2097.6 40.43,-2097.6 40.43,-2097.6 34.43,-2097.6 28.42,-2091.6 28.42,-2085.6 28.42,-2085.6 28.42,-2066.4 28.42,-2066.4 28.42,-2060.4 34.42,-2054.4 40.42,-2054.4 40.42,-2054.4 174.82,-2054.4 174.82,-2054.4 180.82,-2054.4 186.82,-2060.4 186.82,-2066.4 186.82,-2066.4 186.82,-2085.6 186.82,-2085.6 186.82,-2091.6 180.82,-2097.6 174.82,-2097.6"/>
<text text-anchor="start" x="84" y="-2077.5" font-family="Arial" font-size="10.00">nota_fiscal</text>
<text text-anchor="start" x="49.88" y="-2067.5" font-family="Arial" font-size="10.00"> </text>
<text text-anchor="start" x="52.88" y="-2067.5" font-family="Arial" font-size="9.00">Linhas: 6.286 | Tam: 0.4 MB</text>
</g>
<!-- requisicao_transferencia -->
<g id="node26" class="node">
<title>requisicao_transferencia</title>
<path fill="white" stroke="black" d="M174.82,-2212.6C174.82,-2212.6 40.43,-2212.6 40.43,-2212.6 34.43,-2212.6 28.42,-2206.6 28.42,-2200.6 28.42,-2200.6 28.42,-2181.4 28.42,-2181.4 28.42,-2175.4 34.42,-2169.4 40.42,-2169.4 40.42,-2169.4 174.82,-2169.4 174.82,-2169.4 180.82,-2169.4 186.82,-2175.4 186.82,-2181.4 186.82,-2181.4 186.82,-2200.6 186.82,-2200.6 186.82,-2206.6 180.82,-2212.6 174.82,-2212.6"/>
<text text-anchor="start" x="54.75" y="-2192.5" font-family="Arial" font-size="10.00">requisicao_transferencia</text>
<text text-anchor="start" x="53.62" y="-2182.5" font-family="Arial" font-size="10.00"> </text>
<text text-anchor="start" x="56.62" y="-2182.5" font-family="Arial" font-size="9.00">Linhas: 430 | Tam: 0.1 MB</text>
</g>
<!-- tipo_produto -->
<g id="node27" class="node">
<title>tipo_produto</title>
<path fill="white" stroke="black" d="M174.82,-2327.6C174.82,-2327.6 40.43,-2327.6 40.43,-2327.6 34.43,-2327.6 28.42,-2321.6 28.42,-2315.6 28.42,-2315.6 28.42,-2296.4 28.42,-2296.4 28.42,-2290.4 34.42,-2284.4 40.42,-2284.4 40.42,-2284.4 174.82,-2284.4 174.82,-2284.4 180.82,-2284.4 186.82,-2290.4 186.82,-2296.4 186.82,-2296.4 186.82,-2315.6 186.82,-2315.6 186.82,-2321.6 180.82,-2327.6 174.82,-2327.6"/>
<text text-anchor="start" x="81" y="-2307.5" font-family="Arial" font-size="10.00">tipo_produto</text>
<text text-anchor="start" x="53.62" y="-2297.5" font-family="Arial" font-size="10.00"> </text>
<text text-anchor="start" x="56.62" y="-2297.5" font-family="Arial" font-size="9.00">Linhas: 169 | Tam: 0.0 MB</text>
</g>
<!-- unidade_medida -->
<g id="node28" class="node">
<title>unidade_medida</title>
<path fill="white" stroke="black" d="M174.82,-2442.6C174.82,-2442.6 40.43,-2442.6 40.43,-2442.6 34.43,-2442.6 28.42,-2436.6 28.42,-2430.6 28.42,-2430.6 28.42,-2411.4 28.42,-2411.4 28.42,-2405.4 34.42,-2399.4 40.42,-2399.4 40.42,-2399.4 174.82,-2399.4 174.82,-2399.4 180.82,-2399.4 186.82,-2405.4 186.82,-2411.4 186.82,-2411.4 186.82,-2430.6 186.82,-2430.6 186.82,-2436.6 180.82,-2442.6 174.82,-2442.6"/>
<text text-anchor="start" x="72.38" y="-2422.5" font-family="Arial" font-size="10.00">unidade_medida</text>
<text text-anchor="start" x="53.62" y="-2412.5" font-family="Arial" font-size="10.00"> </text>
<text text-anchor="start" x="56.62" y="-2412.5" font-family="Arial" font-size="9.00">Linhas: 269 | Tam: 0.1 MB</text>
</g>
<!-- audit_trail_entry -->
<g id="node29" class="node">
<title>audit_trail_entry</title>
<path fill="white" stroke="black" d="M174.82,-2557.6C174.82,-2557.6 40.43,-2557.6 40.43,-2557.6 34.43,-2557.6 28.42,-2551.6 28.42,-2545.6 28.42,-2545.6 28.42,-2526.4 28.42,-2526.4 28.42,-2520.4 34.42,-2514.4 40.42,-2514.4 40.42,-2514.4 174.82,-2514.4 174.82,-2514.4 180.82,-2514.4 186.82,-2520.4 186.82,-2526.4 186.82,-2526.4 186.82,-2545.6 186.82,-2545.6 186.82,-2551.6 180.82,-2557.6 174.82,-2557.6"/>
<text text-anchor="start" x="73.12" y="-2537.5" font-family="Arial" font-size="10.00">audit_trail_entry</text>
<text text-anchor="start" x="44.62" y="-2527.5" font-family="Arial" font-size="10.00"> </text>
<text text-anchor="start" x="47.62" y="-2527.5" font-family="Arial" font-size="9.00">Linhas: 83.324 | Tam: 36.6 MB</text>
</g>
<!-- auth_assignment -->
<g id="node30" class="node">
<title>auth_assignment</title>
<path fill="white" stroke="black" d="M843.6,-945.6C843.6,-945.6 709.2,-945.6 709.2,-945.6 703.2,-945.6 697.2,-939.6 697.2,-933.6 697.2,-933.6 697.2,-914.4 697.2,-914.4 697.2,-908.4 703.2,-902.4 709.2,-902.4 709.2,-902.4 843.6,-902.4 843.6,-902.4 849.6,-902.4 855.6,-908.4 855.6,-914.4 855.6,-914.4 855.6,-933.6 855.6,-933.6 855.6,-939.6 849.6,-945.6 843.6,-945.6"/>
<text text-anchor="start" x="739.27" y="-925.5" font-family="Arial" font-size="10.00">auth_assignment</text>
<text text-anchor="start" x="722.4" y="-915.5" font-family="Arial" font-size="10.00"> </text>
<text text-anchor="start" x="725.4" y="-915.5" font-family="Arial" font-size="9.00">Linhas: 782 | Tam: 0.1 MB</text>
</g>
<!-- auth_item -->
<g id="node31" class="node">
<title>auth_item</title>
<path fill="white" stroke="black" d="M843.6,-1060.6C843.6,-1060.6 709.2,-1060.6 709.2,-1060.6 703.2,-1060.6 697.2,-1054.6 697.2,-1048.6 697.2,-1048.6 697.2,-1029.4 697.2,-1029.4 697.2,-1023.4 703.2,-1017.4 709.2,-1017.4 709.2,-1017.4 843.6,-1017.4 843.6,-1017.4 849.6,-1017.4 855.6,-1023.4 855.6,-1029.4 855.6,-1029.4 855.6,-1048.6 855.6,-1048.6 855.6,-1054.6 849.6,-1060.6 843.6,-1060.6"/>
<text text-anchor="start" x="755.02" y="-1040.5" font-family="Arial" font-size="10.00">auth_item</text>
<text text-anchor="start" x="722.4" y="-1030.5" font-family="Arial" font-size="10.00"> </text>
<text text-anchor="start" x="725.4" y="-1030.5" font-family="Arial" font-size="9.00">Linhas: 326 | Tam: 0.1 MB</text>
</g>
<!-- auth_item_child -->
<g id="node32" class="node">
<title>auth_item_child</title>
<path fill="white" stroke="black" d="M843.6,-1175.6C843.6,-1175.6 709.2,-1175.6 709.2,-1175.6 703.2,-1175.6 697.2,-1169.6 697.2,-1163.6 697.2,-1163.6 697.2,-1144.4 697.2,-1144.4 697.2,-1138.4 703.2,-1132.4 709.2,-1132.4 709.2,-1132.4 843.6,-1132.4 843.6,-1132.4 849.6,-1132.4 855.6,-1138.4 855.6,-1144.4 855.6,-1144.4 855.6,-1163.6 855.6,-1163.6 855.6,-1169.6 849.6,-1175.6 843.6,-1175.6"/>
<text text-anchor="start" x="742.27" y="-1155.5" font-family="Arial" font-size="10.00">auth_item_child</text>
<text text-anchor="start" x="722.4" y="-1145.5" font-family="Arial" font-size="10.00"> </text>
<text text-anchor="start" x="725.4" y="-1145.5" font-family="Arial" font-size="9.00">Linhas: 134 | Tam: 0.0 MB</text>
</g>
<!-- auth_item_group -->
<g id="node33" class="node">
<title>auth_item_group</title>
<path fill="white" stroke="black" d="M843.6,-1290.6C843.6,-1290.6 709.2,-1290.6 709.2,-1290.6 703.2,-1290.6 697.2,-1284.6 697.2,-1278.6 697.2,-1278.6 697.2,-1259.4 697.2,-1259.4 697.2,-1253.4 703.2,-1247.4 709.2,-1247.4 709.2,-1247.4 843.6,-1247.4 843.6,-1247.4 849.6,-1247.4 855.6,-1253.4 855.6,-1259.4 855.6,-1259.4 855.6,-1278.6 855.6,-1278.6 855.6,-1284.6 849.6,-1290.6 843.6,-1290.6"/>
<text text-anchor="start" x="740.4" y="-1270.5" font-family="Arial" font-size="10.00">auth_item_group</text>
<text text-anchor="start" x="727.65" y="-1260.5" font-family="Arial" font-size="10.00"> </text>
<text text-anchor="start" x="730.65" y="-1260.5" font-family="Arial" font-size="9.00">Linhas: 4 | Tam: 0.0 MB</text>
</g>
<!-- auth_rule -->
<g id="node34" class="node">
<title>auth_rule</title>
<path fill="white" stroke="black" d="M843.6,-1405.6C843.6,-1405.6 709.2,-1405.6 709.2,-1405.6 703.2,-1405.6 697.2,-1399.6 697.2,-1393.6 697.2,-1393.6 697.2,-1374.4 697.2,-1374.4 697.2,-1368.4 703.2,-1362.4 709.2,-1362.4 709.2,-1362.4 843.6,-1362.4 843.6,-1362.4 849.6,-1362.4 855.6,-1368.4 855.6,-1374.4 855.6,-1374.4 855.6,-1393.6 855.6,-1393.6 855.6,-1399.6 849.6,-1405.6 843.6,-1405.6"/>
<text text-anchor="start" x="756.52" y="-1385.5" font-family="Arial" font-size="10.00">auth_rule</text>
<text text-anchor="start" x="727.65" y="-1375.5" font-family="Arial" font-size="10.00"> </text>
<text text-anchor="start" x="730.65" y="-1375.5" font-family="Arial" font-size="9.00">Linhas: 0 | Tam: 0.0 MB</text>
</g>
<!-- user_lotacao_secundaria -->
<g id="node36" class="node">
<title>user_lotacao_secundaria</title>
<path fill="white" stroke="black" d="M843.6,-1635.6C843.6,-1635.6 709.2,-1635.6 709.2,-1635.6 703.2,-1635.6 697.2,-1629.6 697.2,-1623.6 697.2,-1623.6 697.2,-1604.4 697.2,-1604.4 697.2,-1598.4 703.2,-1592.4 709.2,-1592.4 709.2,-1592.4 843.6,-1592.4 843.6,-1592.4 849.6,-1592.4 855.6,-1598.4 855.6,-1604.4 855.6,-1604.4 855.6,-1623.6 855.6,-1623.6 855.6,-1629.6 849.6,-1635.6 843.6,-1635.6"/>
<text text-anchor="start" x="722.4" y="-1615.5" font-family="Arial" font-size="10.00">user_lotacao_secundaria</text>
<text text-anchor="start" x="722.4" y="-1605.5" font-family="Arial" font-size="10.00"> </text>
<text text-anchor="start" x="725.4" y="-1605.5" font-family="Arial" font-size="9.00">Linhas: 200 | Tam: 0.1 MB</text>
</g>
<!-- user_visit_log -->
<g id="node37" class="node">
<title>user_visit_log</title>
<path fill="white" stroke="black" d="M843.6,-1750.6C843.6,-1750.6 709.2,-1750.6 709.2,-1750.6 703.2,-1750.6 697.2,-1744.6 697.2,-1738.6 697.2,-1738.6 697.2,-1719.4 697.2,-1719.4 697.2,-1713.4 703.2,-1707.4 709.2,-1707.4 709.2,-1707.4 843.6,-1707.4 843.6,-1707.4 849.6,-1707.4 855.6,-1713.4 855.6,-1719.4 855.6,-1719.4 855.6,-1738.6 855.6,-1738.6 855.6,-1744.6 849.6,-1750.6 843.6,-1750.6"/>
<text text-anchor="start" x="746.4" y="-1730.5" font-family="Arial" font-size="10.00">user_visit_log</text>
<text text-anchor="start" x="716.02" y="-1720.5" font-family="Arial" font-size="10.00"> </text>
<text text-anchor="start" x="719.02" y="-1720.5" font-family="Arial" font-size="9.00">Linhas: 16.693 | Tam: 3.9 MB</text>
</g>
<!-- parametros_entidade -->
<g id="node38" class="node">
<title>parametros_entidade</title>
<path fill="white" stroke="black" d="M174.82,-289.6C174.82,-289.6 40.43,-289.6 40.43,-289.6 34.43,-289.6 28.42,-283.6 28.42,-277.6 28.42,-277.6 28.42,-258.4 28.42,-258.4 28.42,-252.4 34.42,-246.4 40.42,-246.4 40.42,-246.4 174.82,-246.4 174.82,-246.4 180.82,-246.4 186.82,-252.4 186.82,-258.4 186.82,-258.4 186.82,-277.6 186.82,-277.6 186.82,-283.6 180.82,-289.6 174.82,-289.6"/>
<text text-anchor="start" x="62.25" y="-269.5" font-family="Arial" font-size="10.00">parametros_entidade</text>
<text text-anchor="start" x="56.25" y="-259.5" font-family="Arial" font-size="10.00"> </text>
<text text-anchor="start" x="59.25" y="-259.5" font-family="Arial" font-size="9.00">Linhas: 24 | Tam: 0.0 MB</text>
</g>
<!-- parametros_entidade&#45;&gt;entidade -->
<g id="edge4" class="edge">
<title>parametros_entidade&#45;&gt;entidade</title>
<path fill="none" stroke="#6c757d" stroke-width="1.5" stroke-dasharray="5,2" d="M194.82,-268C245.22,-268 308.76,-268 359.82,-268"/>
<polygon fill="#6c757d" stroke="#6c757d" stroke-width="1.5" points="361.92,-268 351.92,-272.5 358.75,-268.25 351.92,-268.25 351.92,-268 351.92,-267.75 358.75,-267.75 351.92,-263.5 361.92,-268"/>
<text text-anchor="middle" x="285.5" y="-271.2" font-family="Times New Roman,serif" font-size="14.00" fill="#6c757d"> &#160;1 &#160;</text>
</g>
</g>
</svg>
